<svg xmlns="http://www.w3.org/2000/svg" viewBox="0 0 512 461" width="512" height="461">
	<defs>
		<clipPath clipPathUnits="userSpaceOnUse" id="cp1">
			<path d="M-1052 -566L-652 -566L-652 -166L-1052 -166L-1052 -566ZM219.06 103.48L360.64 186.02L331.28 284.61L187.87 204.53L219.06 103.48L219.06 103.48Z" />
		</clipPath>
		<clipPath clipPathUnits="userSpaceOnUse" id="cp2">
			<path d="M-1052 -566L-652 -566L-652 -166L-1052 -166L-1052 -566ZM235.13 208.5L258.75 221.63" />
		</clipPath>
		<clipPath clipPathUnits="userSpaceOnUse" id="cp3">
			<path d="M-1052 -566L-652 -566L-652 -166L-1052 -166L-1052 -566ZM299.63 245.63L325.88 261.38" />
		</clipPath>
		<clipPath clipPathUnits="userSpaceOnUse" id="cp4">
			<path d="M-1052 -566L-652 -566L-652 -166L-1052 -166L-1052 -566ZM235.5 208.5L258 220.88" />
		</clipPath>
		<clipPath clipPathUnits="userSpaceOnUse" id="cp5">
			<path d="M-1052 -566L-652 -566L-652 -166L-1052 -166L-1052 -566ZM324.75 181.5L342.75 192" />
		</clipPath>
		<clipPath clipPathUnits="userSpaceOnUse" id="cp6">
			<path d="M-1052 -566L-652 -566L-652 -166L-1052 -166L-1052 -566ZM214.06 211.41C204.7 208.38 199.39 199.99 201.44 191.46C202.46 187.21 205.04 184.09 208.54 182.41C212.03 180.73 216.44 180.5 221.13 182.01C224.63 183.14 227.34 184.8 229.41 187.07C230.71 188.51 231.18 189.73 230.89 190.93C230.51 192.5 229 193.23 227.28 192.67C226.05 192.27 225.24 191.47 224.53 190.76C223.16 189.35 221.75 188.47 219.83 187.85C214.32 186.07 209.75 188.43 208.48 193.74C207.2 199.06 210.05 203.85 215.55 205.63C217.86 206.37 219.25 206.33 220.86 206.01C221.79 205.8 222.83 205.57 224.04 205.96C225.73 206.51 226.76 208.14 226.39 209.68C226.1 210.89 225.13 211.66 223.34 212.07C220.72 212.76 217.52 212.53 214.06 211.41Z" />
		</clipPath>
	</defs>
	<style>
		tspan { white-space:pre }
		.shp0 { fill: #adcee1 } 
		.shp1 { fill: #88d3d8 } 
		.shp2 { fill: #ffffff } 
		.shp3 { fill: #68e1fd } 
		.shp4 { fill: #ffffff;stroke: #ffffff;stroke-width: 2 } 
		.shp5 { fill: #000000;stroke: #ffffff;stroke-width: 2 } 
		.shp6 { fill: #000000;stroke: #4788c7;stroke-width: 1.2 } 
		.shp7 { fill: #053855 } 
		.shp8 { fill: #ced4ea } 
		.shp9 { fill: #e4e7f4 } 
		.shp10 { fill: #4367c7 } 
		.shp11 { fill: #add5f7 } 
		.shp12 { fill: #000000 } 
		.shp13 { fill: #f2f2f2 } 
		.shp14 { fill: #4367c7;stroke: #4367c7;stroke-width: 0.223 } 
		.shp15 { fill: #ef7f6c } 
		.shp16 { fill: #f4f4f4 } 
		.shp17 { fill: #bababc } 
		.shp18 { fill: #cccccc } 
		.shp19 { fill: #7eb753 } 
		.shp20 { fill: #c4b7b3 } 
		.shp21 { fill: #ffac99 } 
		.shp22 { fill: #ce5438 } 
		.shp23 { fill: #ea7554 } 
		.shp24 { fill: #15156d } 
		.shp25 { fill: #3129a3 } 
		.shp26 { fill: #af594a } 
		.shp27 { fill: #f78f8f } 
		.shp28 { fill: #c74343 } 
		.shp29 { fill: #ffeea3 } 
		.shp30 { fill: #ba9b48 } 
		.shp31 { fill: #f5ce85 } 
		.shp32 { fill: #967a44 } 
		.shp33 { fill: #06489e } 
		.shp34 { fill: #f04900 } 
		.shp35 { fill: #ff6753 } 
		.shp36 { fill: #a03dff } 
		.shp37 { fill: #fc9c54 } 
		.shp38 { fill: #42a200 } 
		.shp39 { fill: #ffaf68 } 
		.shp40 { fill: #653200 } 
		.shp41 { fill: #4eb300 } 
		.shp42 { fill: #25b000 } 
		.shp43 { fill: #ff8f02 } 
		.shp44 { fill: #ca4300 } 
		.shp45 { fill: #ffd8bd } 
		.shp46 { fill: #ffffff;stroke: #4367c7;stroke-width: 4 } 
		.shp47 { fill: #ffffff;stroke: #4367c7;stroke-width: 2 } 
		.shp48 { fill: #000000;stroke: #4788c7;stroke-linecap:square } 
	</style>
	<path id="Layer" class="shp0" d="M88.12 276.46L88.12 280.91L90.37 283.66" />
	<path id="Layer" class="shp1" d="M177.43 222.35L90.6 276.12C89 277.13 88.03 278.9 88.07 280.8C88.11 282.69 89.14 284.43 90.79 285.37L222.5 359.9C226.24 362.02 230.83 361.98 234.54 359.8L320.9 309.09C327.18 303.88 326.72 294.22 320.9 293.82L190.01 222.3C186.13 219.99 181.29 220.01 177.43 222.35L177.43 222.35Z" />
	<path id="Layer" class="shp2" d="M177.43 218.65L90.6 272.42C89 273.42 88.03 275.2 88.07 277.09C88.11 278.99 89.14 280.72 90.79 281.66L222.5 356.14C226.24 358.26 230.83 358.22 234.54 356.04L320.9 305.33C322.97 304.13 324.24 301.93 324.24 299.54C324.24 297.15 322.97 294.95 320.9 293.75L190.01 218.49C186.11 216.22 181.27 216.28 177.43 218.65L177.43 218.65Z" />
	<path id="Layer" class="shp3" d="M180.96 211.3C180.96 211.3 216.98 95.03 216.74 95.03C216.49 95.03 217.85 89.82 224.3 92.78L362.59 174.16C362.59 174.16 369.3 176.88 367.99 183.12L332.78 296.9C331.33 298.98 328.7 299.89 326.28 299.15C322.06 297.85 184.23 217.79 184.23 217.79C181.59 216.83 180.16 213.99 180.96 211.3Z" />
	<path id="Layer" class="shp2" d="M219.06 103.48L360.64 186.02L331.28 284.61L187.87 204.53L219.06 103.48L219.06 103.48Z" />
	<g id="Clip-Path" clip-path="url(#cp1)">
		<path id="Layer" class="shp4" d="M219.06 103.48L360.64 186.02L331.28 284.61L187.87 204.53L219.06 103.48L219.06 103.48Z" />
	</g>
	<g id="Clip-Path" clip-path="url(#cp2)">
		<path id="Layer" class="shp5" d="M235.13 208.5L258.75 221.63" />
	</g>
	<g id="Clip-Path" clip-path="url(#cp3)">
		<path id="Layer" class="shp6" d="M299.63 245.63L325.88 261.38" />
	</g>
	<g id="Clip-Path" clip-path="url(#cp4)">
		<path id="Layer" class="shp5" d="M235.5 208.5L258 220.88" />
	</g>
	<g id="Clip-Path" clip-path="url(#cp5)">
		<path id="Layer" class="shp5" d="M324.75 181.5L342.75 192" />
	</g>
	<path id="Layer" class="shp3" d="M172.1 230.98L140.37 250.74C139.22 251.45 138.53 252.72 138.56 254.07C138.58 255.42 139.32 256.65 140.5 257.32L254.35 322.19C257.82 324.19 262.09 324.19 265.55 322.19C272.87 317.93 285.47 310.24 293.18 305.51C294.58 304.65 295.43 303.13 295.41 301.49C295.39 299.85 294.51 298.34 293.09 297.51C270.06 284.12 194.94 240.43 178.49 230.88C176.51 229.73 174.05 229.76 172.1 230.98L172.1 230.98Z" />
	<path id="Layer" class="shp3" d="M173.83 284.61L213.6 306.98C214.83 307.69 215.59 309 215.59 310.42C215.59 311.85 214.83 313.16 213.6 313.87L190.2 327.56C188.56 328.51 186.55 328.51 184.92 327.56L144.22 304.35C143.18 303.76 142.55 302.66 142.55 301.47C142.55 300.27 143.18 299.17 144.22 298.58L168.62 284.64C170.23 283.72 172.21 283.71 173.83 284.61Z" />
	<g id="Layer" style="opacity: 0.102">
		<path id="Layer" class="shp7" d="M172.1 230.98L140.37 250.74C139.22 251.45 138.53 252.72 138.56 254.07C138.58 255.42 139.32 256.65 140.5 257.32L254.35 322.19C257.82 324.19 262.09 324.19 265.55 322.19C272.87 317.93 285.47 310.24 293.18 305.51C294.58 304.65 295.43 303.13 295.41 301.49C295.39 299.85 294.51 298.34 293.09 297.51C270.06 284.12 194.94 240.43 178.49 230.88C176.51 229.73 174.05 229.76 172.1 230.98L172.1 230.98Z" />
	</g>
	<g id="Layer" style="opacity: 0.102">
		<path id="Layer" class="shp7" d="M173.83 284.61L213.6 306.98C214.83 307.69 215.59 309 215.59 310.42C215.59 311.85 214.83 313.16 213.6 313.87L190.2 327.56C188.56 328.51 186.55 328.51 184.92 327.56L144.22 304.35C143.18 303.76 142.55 302.66 142.55 301.47C142.55 300.27 143.18 299.17 144.22 298.58L168.62 284.64C170.23 283.72 172.21 283.71 173.83 284.61Z" />
	</g>
	<path id="Layer" class="shp8" d="M460.39 97.49L325.15 19.23C323.89 18.5 322.35 18.46 321.06 19.14C319.77 19.81 318.92 21.1 318.8 22.55L309.69 132.84C309.55 134.48 310.37 136.05 311.79 136.86L446.98 213.85C448.21 214.55 449.71 214.59 450.97 213.96C452.24 213.32 453.1 212.1 453.28 210.69L464.98 106.67C465.41 102.97 463.61 99.36 460.39 97.49Z" />
	<path id="Layer" class="shp8" d="M447.19 215.82L451.83 213.4L447.65 212.2L447.19 215.82L447.19 215.82Z" />
	<path id="Layer" class="shp9" d="M456.55 99.35L321.33 21.11C320.07 20.37 318.53 20.33 317.24 21.01C315.95 21.68 315.1 22.97 314.98 24.42L305.87 134.72C305.73 136.35 306.55 137.92 307.97 138.74L443.16 215.72C444.39 216.42 445.89 216.47 447.16 215.83C448.42 215.2 449.29 213.97 449.46 212.57L461.16 108.54C461.59 104.83 459.78 101.22 456.55 99.35L456.55 99.35Z" />
	<path id="Layer" class="shp10" d="M459.53 123.24L461.19 108.45C461.61 104.75 459.79 101.16 456.57 99.3L321.33 21.11C320.07 20.37 318.53 20.33 317.24 21.01C315.95 21.68 315.1 22.97 314.98 24.42L313.73 39.53L459.17 123.48L459.53 123.24Z" />
	<path id="Layer" class="shp11" d="M320.04 62.7L317.12 97.38C316.93 99.59 318.04 101.7 319.96 102.81L342.85 116.04C343.72 116.54 344.79 116.56 345.68 116.1C346.57 115.63 347.16 114.75 347.25 113.75L350.22 79.08C350.41 76.87 349.3 74.75 347.38 73.64L324.41 60.4C323.54 59.91 322.48 59.9 321.6 60.36C320.71 60.83 320.13 61.71 320.04 62.7Z" />
	<path id="Layer" class="shp10" d="M322.49 72.61L322.48 72.88C322.48 73.73 322.93 74.52 323.66 74.95L341.32 85.21C342.06 85.64 342.96 85.65 343.7 85.22C344.44 84.8 344.9 84.01 344.9 83.16L344.9 83.16C344.9 82.32 344.46 81.54 343.74 81.11L326.08 70.58C325.35 70.14 324.44 70.13 323.69 70.55C322.95 70.97 322.49 71.76 322.49 72.61L322.49 72.61Z" />
	<path id="Layer" class="shp12" d="M322.28 80.14L345.06 93.27" />
	<path id="Layer" class="shp2" d="M321.67 81.17L344.42 94.3C344.97 94.56 345.64 94.36 345.95 93.82C346.27 93.3 346.13 92.61 345.63 92.25L322.88 79.12C322.33 78.86 321.66 79.06 321.35 79.59C321.03 80.12 321.18 80.81 321.67 81.17L321.67 81.17Z" />
	<path id="Layer" class="shp12" d="M322.27 85.43L345.05 98.56" />
	<path id="Layer" class="shp2" d="M321.66 86.45L344.41 99.58C344.96 99.84 345.63 99.64 345.94 99.11C346.26 98.58 346.11 97.9 345.62 97.54L322.87 84.4C322.32 84.14 321.65 84.35 321.34 84.88C321.02 85.41 321.16 86.09 321.66 86.45L321.66 86.45Z" />
	<path id="Layer" class="shp12" d="M322.26 90.88L345.04 104.01" />
	<path id="Layer" class="shp2" d="M321.65 91.9L344.39 105.03C344.95 105.3 345.62 105.09 345.93 104.56C346.24 104.03 346.1 103.35 345.6 102.99L322.86 89.86C322.3 89.59 321.64 89.8 321.32 90.33C321.01 90.86 321.15 91.54 321.65 91.9Z" />
	<path id="Layer" class="shp11" d="M356.73 77.94C356.73 79.38 348.43 152.25 348.43 152.25L436.58 203.94L445.58 129.99L356.73 77.94Z" />
	<path id="Layer" class="shp10" d="M362.8 104.61L362.8 105.02C362.8 106.36 363.51 107.6 364.66 108.27L392.5 124.46C393.66 125.14 395.09 125.14 396.26 124.48C397.42 123.81 398.14 122.57 398.14 121.23L398.14 121.23C398.14 119.91 397.45 118.68 396.31 118.01L368.47 101.4C367.32 100.71 365.88 100.69 364.7 101.36C363.53 102.02 362.81 103.26 362.8 104.61Z" />
	<path id="Layer" class="shp12" d="M362.49 116.48L398.4 137.19" />
	<path id="Layer" class="shp2" d="M361.89 117.51L397.77 138.21C398.33 138.48 398.99 138.27 399.31 137.74C399.62 137.21 399.48 136.53 398.98 136.17L363.1 115.46C362.54 115.2 361.87 115.4 361.56 115.94C361.24 116.46 361.39 117.15 361.89 117.51L361.89 117.51Z" />
	<path id="Layer" class="shp12" d="M362.47 124.81L398.39 145.52" />
	<path id="Layer" class="shp2" d="M361.87 125.8L397.75 146.51C398.31 146.77 398.97 146.57 399.29 146.03C399.6 145.5 399.46 144.82 398.96 144.46L363.08 123.76C362.52 123.49 361.85 123.7 361.54 124.23C361.23 124.76 361.37 125.44 361.87 125.8L361.87 125.8Z" />
	<path id="Layer" class="shp12" d="M362.45 133.4L398.37 154.12" />
	<path id="Layer" class="shp2" d="M361.85 134.43L397.73 155.13C398.29 155.39 398.95 155.19 399.27 154.66C399.58 154.13 399.44 153.44 398.94 153.08L363.06 132.38C362.5 132.12 361.84 132.32 361.52 132.85C361.21 133.38 361.35 134.06 361.85 134.43L361.85 134.43Z" />
	<path id="Layer" class="shp2" d="M408.02 123.03L402.53 174.56C402.4 175.74 402.98 176.88 404.01 177.46L427.5 190.78C428.37 191.27 429.42 191.3 430.3 190.85C431.19 190.41 431.79 189.55 431.91 188.56L438.08 137.86C438.22 136.68 437.66 135.54 436.64 134.94L412.48 120.78C411.61 120.26 410.54 120.23 409.63 120.68C408.73 121.14 408.12 122.02 408.02 123.03L408.02 123.03Z" />
	<path id="Layer" class="shp11" d="M321.71 33.26C321.72 31.81 322.55 30.63 323.58 30.63C324.61 30.63 325.44 31.81 325.43 33.27C325.43 34.72 324.6 35.9 323.57 35.89C322.54 35.89 321.71 34.71 321.71 33.26Z" />
	<path id="Layer" class="shp2" d="M327.67 36.92C327.67 35.46 328.51 34.29 329.53 34.29C330.56 34.29 331.39 35.47 331.39 36.93C331.38 38.38 330.55 39.56 329.52 39.55C328.49 39.55 327.66 38.37 327.67 36.92Z" />
	<g id="Layer" style="opacity: 0.549">
		<path id="Layer" fill-rule="evenodd" class="shp13" d="M327.35 116.94C326.84 110.82 329.38 105.78 333.13 105.49C336.88 105.19 340.2 109.73 340.7 115.85C341.21 121.96 338.67 127 334.92 127.3C331.17 127.6 327.85 123.06 327.35 116.94ZM334.76 125.24C337.28 125 339.07 120.79 338.67 115.98C338.28 111.17 335.82 107.28 333.29 107.51C330.77 107.75 328.97 112 329.38 116.77C329.77 121.58 332.23 125.48 334.76 125.24Z" />
	</g>
	<path id="Layer" fill-rule="evenodd" class="shp14" d="M209.34 10.88L209.34 7.31C209.34 6.35 210.12 5.57 211.08 5.57L218.32 5.57C219.28 5.57 220.06 6.35 220.06 7.31L220.06 10.88C220.06 11.85 219.28 12.63 218.32 12.63L211.08 12.63C210.1 12.63 209.32 11.85 209.34 10.88ZM245.04 47.57C245.04 64.35 231.43 77.93 214.68 77.93C197.9 77.93 184.32 64.33 184.32 47.57C184.32 30.79 197.92 17.21 214.68 17.21C231.46 17.21 245.04 30.81 245.04 47.57ZM212.38 16.09L212.38 13.25L216.98 13.25L216.98 16.09C216.22 16.02 215.46 16 214.68 16C213.92 16 213.14 16.02 212.38 16.09ZM193.48 24.18L191.55 21.52L197.34 17.32L199.29 20C198.77 20.29 198.26 20.6 197.74 20.92L196.94 19.8L194.06 21.9L194.86 22.99C194.39 23.37 193.94 23.75 193.48 24.18ZM232.42 19.82L231.61 20.94C231.1 20.63 230.59 20.31 230.07 20.02L232.02 17.34L237.8 21.54L235.88 24.18C235.43 23.78 234.99 23.4 234.52 23.02L235.3 21.92L232.42 19.82ZM214.68 21.36C200.2 21.36 188.47 33.09 188.47 47.57C188.47 62.05 200.2 73.78 214.68 73.78C229.15 73.78 240.88 62.05 240.88 47.57C240.88 33.12 229.15 21.36 214.68 21.36ZM217.22 47.12C217.22 48.55 216.07 49.71 214.63 49.71C213.2 49.71 212.04 48.55 212.04 47.12C212.04 46.23 212.51 45.43 213.23 44.96L214.66 29.18L216.09 44.96C216.8 45.43 217.25 46.21 217.22 47.12ZM215.68 47.12C215.68 46.56 215.21 46.1 214.66 46.1C214.1 46.1 213.63 46.56 213.63 47.12C213.63 47.68 214.1 48.15 214.66 48.15C215.24 48.15 215.68 47.68 215.68 47.12ZM214.05 26.41L214.05 24.96C214.05 24.63 214.32 24.36 214.66 24.36C214.99 24.36 215.26 24.63 215.26 24.96L215.26 26.41C215.26 26.75 214.99 27.02 214.66 27.02C214.34 27.02 214.08 26.77 214.05 26.41ZM215.26 67.34L215.26 68.8C215.26 69.13 214.99 69.4 214.66 69.4C214.32 69.4 214.05 69.13 214.05 68.8L214.05 67.34C214.05 67.01 214.32 66.74 214.66 66.74C214.99 66.74 215.26 67.01 215.26 67.34ZM237.18 46.9C237.18 47.24 236.91 47.5 236.57 47.5L235.12 47.5C234.79 47.5 234.52 47.24 234.52 46.9C234.52 46.56 234.79 46.3 235.12 46.3L236.57 46.3C236.89 46.3 237.15 46.56 237.18 46.9ZM194.82 46.9C194.82 47.24 194.55 47.5 194.21 47.5L192.76 47.5C192.43 47.5 192.16 47.24 192.16 46.9C192.16 46.56 192.43 46.3 192.76 46.3L194.21 46.3C194.55 46.3 194.79 46.56 194.82 46.9ZM233.6 58.56C233.53 58.65 233.42 58.72 233.31 58.72C233.24 58.72 233.18 58.72 233.13 58.67L231.9 57.91C231.75 57.8 231.7 57.6 231.79 57.44C231.9 57.29 232.11 57.24 232.26 57.33L233.49 58.09C233.65 58.18 233.69 58.38 233.6 58.56ZM196.2 35.1L197.43 35.86C197.59 35.98 197.63 36.18 197.54 36.33C197.47 36.42 197.36 36.49 197.25 36.49C197.18 36.49 197.12 36.49 197.07 36.44L195.84 35.68C195.69 35.57 195.64 35.37 195.73 35.21C195.84 35.06 196.05 35.01 196.2 35.1ZM225.42 65.96C225.51 66.14 225.45 66.34 225.29 66.43C225.25 66.45 225.18 66.47 225.13 66.47C225.02 66.47 224.91 66.4 224.84 66.29L224.15 65.02C224.06 64.84 224.13 64.64 224.29 64.55C224.46 64.46 224.66 64.53 224.75 64.68L225.42 65.96ZM204.56 29.12L203.87 27.84C203.78 27.66 203.84 27.46 204 27.37C204.18 27.28 204.38 27.35 204.47 27.51L205.14 28.78C205.23 28.96 205.16 29.16 205 29.25C204.96 29.27 204.89 29.29 204.85 29.29C204.74 29.29 204.62 29.23 204.56 29.12ZM197.07 57.33C197.23 57.22 197.43 57.27 197.54 57.44C197.63 57.6 197.59 57.82 197.43 57.91L196.2 58.67C196.13 58.7 196.09 58.72 196.02 58.72C195.91 58.72 195.8 58.67 195.73 58.56C195.64 58.41 195.69 58.18 195.84 58.09L197.07 57.33ZM233.6 35.21C233.69 35.37 233.65 35.6 233.49 35.68L232.26 36.44C232.19 36.47 232.15 36.49 232.08 36.49C231.97 36.49 231.86 36.44 231.79 36.33C231.7 36.18 231.75 35.95 231.9 35.86L233.13 35.1C233.29 35.01 233.49 35.06 233.6 35.21ZM205.14 65.02L204.45 66.29C204.4 66.4 204.27 66.47 204.15 66.47C204.11 66.47 204.04 66.45 204 66.43C203.84 66.34 203.78 66.11 203.87 65.96L204.56 64.68C204.65 64.53 204.87 64.46 205.03 64.55C205.18 64.64 205.25 64.84 205.14 65.02ZM225.31 27.37C225.49 27.46 225.54 27.66 225.42 27.84L224.73 29.12C224.69 29.23 224.55 29.29 224.44 29.29C224.4 29.29 224.33 29.27 224.29 29.25C224.13 29.16 224.06 28.94 224.15 28.78L224.84 27.51C224.93 27.35 225.16 27.28 225.31 27.37Z" />
	<g id="Layer">
		<g id="Layer">
			<path id="Layer" class="shp15" d="M66.08 47.13L59.41 50.07L65.82 52.89L67.36 49.57" />
			<path id="Layer" class="shp10" d="M126.85 243.07L71.44 210.77C66.92 208.14 64.13 203.3 64.11 198.07L62.32 51.39C62.32 47.55 68.32 45.58 71.61 47.55L128.93 81.37C131.82 83.07 133.6 86.18 133.6 89.55L133.6 239.2C133.6 240.8 132.74 242.28 131.34 243.08C129.95 243.88 128.24 243.87 126.85 243.07L126.85 243.07Z" />
			<path id="Layer" class="shp15" d="M131.29 243.12L124.04 246.95L124.88 241.89L129.91 240.99" />
			<path id="Layer" class="shp16" d="M119.9 246.75L64.49 214.46C59.95 211.81 57.15 206.95 57.15 201.7L57.15 53.63C57.15 52.21 57.9 50.91 59.13 50.21C60.35 49.51 61.86 49.52 63.07 50.25L122 85.06C124.89 86.77 126.67 89.88 126.67 93.25L126.67 242.87C126.67 244.48 125.81 245.97 124.41 246.77C123.01 247.57 121.29 247.56 119.9 246.75L119.9 246.75Z" />
			<path id="Layer" class="shp3" d="M121.99 108.22L58.86 72.02L58.86 201.55L121.99 238.05L121.99 108.22L121.99 108.22Z" />
			<path id="Layer" class="shp17" d="M86.59 223.05C88.15 222.68 89.01 220.66 88.51 218.55C88 216.45 86.33 215.03 84.76 215.41C83.2 215.78 82.34 217.8 82.85 219.91C83.35 222.02 85.03 223.43 86.59 223.05Z" />
			<path id="Layer" class="shp18" d="M83.33 72.29L83.33 72.29C83.33 72.79 83.6 73.25 84.04 73.5L96.24 80.5C96.68 80.75 97.21 80.75 97.65 80.5C98.08 80.25 98.35 79.79 98.35 79.29L98.35 78.99C98.35 78.47 98.07 78 97.62 77.75L85.42 71.06C84.99 70.82 84.46 70.83 84.03 71.08C83.6 71.33 83.34 71.79 83.33 72.29Z" />
			<path id="Layer" class="shp18" d="M78.38 70.32C79.09 70.06 79.38 69.06 79.02 68.08C78.66 67.11 77.78 66.53 77.07 66.8C76.36 67.06 76.07 68.07 76.43 69.04C76.79 70.01 77.66 70.59 78.38 70.32Z" />
			<path id="Layer" class="shp15" d="M77.8 97.5L77.8 105.69C77.8 106.29 77.48 106.85 76.97 107.15C76.45 107.46 75.82 107.47 75.29 107.19L67.72 103.06C67.18 102.76 66.84 102.19 66.84 101.57L66.84 93.15C66.84 92.55 67.17 91.99 67.69 91.69C68.21 91.39 68.86 91.39 69.38 91.69L77 96.06C77.5 96.38 77.8 96.92 77.8 97.5Z" />
			<path id="Layer" class="shp19" d="M115.88 119.31L115.88 127.5C115.88 128.09 115.56 128.65 115.05 128.95C114.53 129.26 113.9 129.27 113.37 128.99L105.8 124.82C105.26 124.52 104.92 123.95 104.92 123.33L104.92 114.95C104.92 114.35 105.25 113.79 105.77 113.49C106.29 113.19 106.93 113.19 107.46 113.49L115 117.83C115.54 118.13 115.87 118.69 115.88 119.31Z" />
			<path id="Layer" class="shp13" d="M96.4 108.76L96.4 116.95C96.4 117.55 96.08 118.11 95.57 118.41C95.05 118.72 94.42 118.73 93.89 118.44L86.32 114.29C85.78 113.99 85.44 113.41 85.44 112.8L85.44 104.42C85.44 103.8 85.76 103.24 86.29 102.94C86.82 102.63 87.47 102.64 88 102.94L95.57 107.3C96.09 107.6 96.4 108.16 96.4 108.76L96.4 108.76Z" />
			<path id="Layer" class="shp13" d="M110.09 212.29C113.3 211.27 114.79 206.94 113.42 202.63C112.05 198.31 108.33 195.64 105.12 196.66C101.91 197.68 100.42 202.01 101.79 206.32C103.16 210.63 106.88 213.31 110.09 212.29Z" />
			<path id="Layer" class="shp20" d="M107.93 205.59C109.12 205.33 109.78 203.72 109.4 201.99C109.03 200.27 107.76 199.07 106.57 199.33C105.39 199.59 104.73 201.2 105.1 202.93C105.48 204.65 106.75 205.84 107.93 205.59Z" />
			<path id="Layer" class="shp20" d="M111.57 211.5C111.57 211.5 110.25 205.73 106.92 205.02L102.77 208.54C103.66 210.34 105.25 211.69 107.17 212.28C110.5 213.4 111.57 211.5 111.57 211.5Z" />
			<path id="Layer" class="shp19" d="M75.65 128.2L75.65 136.39C75.65 136.99 75.33 137.55 74.82 137.85C74.3 138.16 73.67 138.17 73.14 137.88L65.57 133.73C65.03 133.43 64.69 132.85 64.69 132.24L64.69 123.86C64.69 123.25 65.02 122.69 65.54 122.39C66.06 122.09 66.71 122.09 67.23 122.38L74.8 126.74C75.33 127.04 75.65 127.6 75.65 128.2L75.65 128.2Z" />
			<path id="Layer" class="shp15" d="M113.08 149.67L113.08 157.87C113.08 158.46 112.76 159.02 112.25 159.32C111.73 159.63 111.1 159.64 110.57 159.36L103 155.2C102.46 154.89 102.12 154.33 102.12 153.71L102.12 145.32C102.12 144.72 102.45 144.16 102.97 143.86C103.49 143.56 104.13 143.56 104.66 143.86L112.23 148.21C112.75 148.51 113.08 149.07 113.08 149.67L113.08 149.67Z" />
			<path id="Layer" class="shp19" d="M93.32 138.63L93.32 146.83C93.32 147.42 93 147.98 92.49 148.28C91.97 148.59 91.34 148.6 90.81 148.32L83.24 144.15C82.7 143.86 82.36 143.28 82.36 142.67L82.36 134.29C82.36 133.68 82.69 133.12 83.21 132.82C83.73 132.52 84.38 132.52 84.9 132.81L92.47 137.17C93 137.47 93.32 138.03 93.32 138.63L93.32 138.63Z" />
			<path id="Layer" class="shp21" d="M75 181.58L75 189.76C75 190.36 74.68 190.92 74.17 191.22C73.65 191.53 73.02 191.54 72.49 191.25L65 187.07C64.46 186.76 64.12 186.19 64.12 185.58L64.12 177.2C64.12 176.59 64.45 176.03 64.97 175.73C65.49 175.43 66.13 175.43 66.66 175.73L74.19 180.07C74.71 180.38 75.02 180.96 75 181.58Z" />
			<path id="Layer" class="shp2" d="M70.31 186.97C71.5 186.46 71.9 184.7 71.19 183.05C70.48 181.41 68.94 180.49 67.74 181C66.54 181.52 66.15 183.27 66.86 184.92C67.57 186.57 69.11 187.49 70.31 186.97Z" />
			<path id="Layer" class="shp3" d="M10.26 59.43C8.88 58.72 8.01 57.3 8 55.75L8 34.37C8 32.88 8.8 31.5 10.09 30.76C11.38 30.02 12.97 30.02 14.26 30.76L47.76 50.31C49.07 51.07 49.87 52.49 49.83 54L48.7 81.06L10.26 59.43Z" />
			<path id="Layer" class="shp3" d="M48.7 81.06L48.7 86.95L40.72 74.17" />
			<path id="Layer" class="shp12" d="M43.64 57.13L14.29 40.31" />
			<path id="Layer" class="shp2" d="M43 58.21L13.65 41.38C13.05 41.04 12.85 40.27 13.2 39.68C13.55 39.08 14.31 38.88 14.91 39.23L44.27 56.06C44.83 56.43 45 57.17 44.66 57.75C44.32 58.32 43.59 58.53 43 58.21Z" />
			<path id="Layer" class="shp12" d="M42.17 65.69L12.82 48.86" />
			<path id="Layer" class="shp2" d="M41.54 66.76L12.19 49.94C11.59 49.59 11.39 48.82 11.74 48.23C12.09 47.63 12.85 47.43 13.45 47.77L42.81 64.61C43.41 64.95 43.61 65.72 43.26 66.31C42.91 66.91 42.15 67.11 41.55 66.76L41.54 66.76Z" />
			<path id="Layer" class="shp22" d="M25.33 124.42C25.33 124.42 15.82 135.42 15.48 143.36L26.39 165.24L33.66 153.76C33.66 153.76 24.2 143.99 33.66 136.45C33.66 136.45 36.9 123.75 25.33 124.45" />
			<path id="Layer" class="shp23" d="M28.94 232.25C28.94 232.25 25.36 237.25 25.66 240.12C25.66 240.12 30.51 247.9 31.55 249.98C31.55 249.98 32.86 252.98 31.55 254.47C31.55 254.47 19.09 246.25 18.83 244.7L20.39 237.17L15.44 243.43L11.83 241.3L19.48 228.42" />
			<path id="Layer" class="shp24" d="M30.36 254.63C30.06 254.34 21.23 251.27 21.23 251.27C21.23 251.27 17.08 246.96 17.23 245.27C17.38 243.6 18.87 237.09 20.42 237.15C21.97 237.23 22.14 245.88 22.14 245.88L30.36 254.63Z" />
			<path id="Layer" class="shp23" d="M40.87 240.49L42 253.71C42 253.71 44.86 255.79 45.56 255.62C45.56 255.62 48.36 254.88 48.38 254.55C48.38 254.55 47.38 245.22 47.66 244.98C47.66 244.98 52.33 251.86 53.66 251.98C53.66 251.98 65.51 246.02 64.51 243.72C64.51 243.72 58.44 242.62 55.94 242.6C55.94 242.6 49.94 241.14 48.12 236.86" />
			<path id="Layer" class="shp25" d="M47.5 204.67L53.9 238.55C53.9 238.55 50.21 243.38 36.99 242.77L27.16 218.77" />
			<path id="Layer" class="shp25" d="M50.33 151.5C50.33 151.5 60.19 165.89 57.16 189.2C54.47 209.85 33.85 234.2 33.85 234.2C33.85 234.2 27.68 236.91 14.85 224.76L29 202.23C29 202.23 15.19 170.23 31.49 149.91" />
			<g id="Layer" style="opacity: 0.549">
				<g id="Layer" style="opacity: 0.549">
					<path id="Layer" fill-rule="evenodd" class="shp13" d="M77.25 120.5C76.56 112.27 79.91 105.5 85 105.06C90.09 104.63 94.59 110.75 95.28 118.98C95.97 127.19 92.53 133.98 87.53 134.4C82.49 134.83 77.94 128.71 77.25 120.5ZM80.03 120.26C80.57 126.74 83.89 131.96 87.29 131.68C90.69 131.38 93.08 125.68 92.54 119.2C92 112.74 88.67 107.5 85.28 107.8C81.89 108.06 79.49 113.8 80.03 120.26Z" />
				</g>
			</g>
			<path id="Layer" class="shp21" d="M78.13 123.89C78.13 122.05 80.97 122.05 81.01 123.89C81.01 124.89 81.01 125.83 81.01 126.81C81.12 126.6 81.23 126.38 81.33 126.18C82.46 123.5 83.3 120.71 83.84 117.86C84.2 116 86.84 116.86 86.61 118.62C86.42 120.01 86.12 121.4 85.73 122.75L86.01 122.63C86.51 122.47 87.05 122.52 87.51 122.77C87.97 123.03 88.3 123.46 88.43 123.96C88.57 124.4 88.6 124.87 88.5 125.32L88.72 125.32C89.35 125.54 89.84 126.04 90.04 126.68C90.23 127.31 90.12 128 89.72 128.54C90.08 128.82 90.32 129.22 90.41 129.67C90.53 130.71 90.05 131.73 89.18 132.31C88.18 133.13 87.11 134.19 86.18 135.08C84.99 136.25 83.65 137.38 82.53 138.31C81.41 139.25 79.59 136.19 79.53 135.15C79.12 135.29 78.66 135.21 78.32 134.94C77.97 134.67 77.78 134.25 77.81 133.81C78.1 130.52 78.2 127.21 78.13 123.89Z" />
			<path id="Layer" class="shp26" d="M83.88 126.96C84.55 125.55 85.17 124.11 85.76 122.64C85.88 122.33 86.39 122.48 86.26 122.79C85.67 124.29 85.03 125.77 84.33 127.23C84.19 127.54 83.74 127.26 83.88 126.96Z" />
			<path id="Layer" class="shp23" d="M48.83 119.74C48.83 119.74 53.64 124.06 55.5 127.06C57.36 130.06 64.82 138.31 67.89 135.82C70.96 133.35 76.4 128.62 76.4 128.62C76.4 128.62 84.17 133.95 83.4 139.51C83.4 139.51 76.5 153.62 65.75 150.51C55 147.41 52.32 143.35 52.32 143.35L50.7 152.51C50.7 152.51 37.36 156.7 31.17 150.51C31.17 150.51 27.11 124.19 30.1 120.25" />
			<path id="Layer" class="shp21" d="M50.32 103.79C50.42 104.08 50.65 113.64 47.4 114.56C44.15 115.46 38.63 113.19 37.2 110.17C35.77 107.13 37.81 97.5 42.94 96.94C48.07 96.38 49.4 101 50.32 103.79Z" />
			<path id="Layer" class="shp25" d="M25.16 118.86C26.08 116.75 27.59 115.63 27.23 113.13C26.95 111.23 26.47 109.35 27.14 107.44C27.81 105.55 29.48 104.58 31.06 103.44C31.52 103.11 31.95 102.73 32.34 102.32L32.68 101.75C33.62 100.15 34.3 98.23 35.56 96.85C36.82 95.59 38.44 94.76 40.19 94.48C43.89 93.8 47.71 94.67 50.75 96.88C50.75 96.88 53.54 99.56 52.66 102.44C52.66 102.44 48.3 104.25 46.37 105.56C44.23 107 45.59 109.75 46.49 111.56C47.18 112.9 47.52 114.4 47.49 115.92C47.46 117.32 47.96 118.7 48.88 119.76C49.88 121.17 51.04 122.63 51.12 124.43C51.28 127.96 47.53 135.43 36.8 132.65C36.11 132.48 35.39 132.26 34.67 132.02C32.38 131.39 30.23 130.33 28.34 128.89C25.33 126.55 23.58 122.46 25.16 118.86Z" />
			<path id="Layer" class="shp24" d="M48.82 211.65C48.82 211.65 37.53 231.2 33.82 234.17L36.97 242.77C36.97 242.77 50.1 224.38 48.82 211.65Z" />
			<path id="Layer" class="shp24" d="M29.24 201.2C32.85 193.58 34.85 185.31 35.13 176.89C35.13 176.23 36.2 176.23 36.13 176.89C35.85 185.49 33.81 193.94 30.13 201.72C29.85 202.33 29 201.79 29.24 201.2Z" />
		</g>
	</g>
	<g id="Layer">
		<g id="Layer">
			<path id="Layer" class="shp27" d="M87.29 195.57L89.65 194.3L92.72 200.01L90.91 199.46L90.36 201.28L87.29 195.57Z" />
			<path id="Layer" fill-rule="evenodd" class="shp28" d="M93.09 200.3L91.03 199.69L90.41 201.75L87.04 195.5L89.72 194.06L93.09 200.3ZM87.53 195.64L90.32 200.81L90.79 199.24L92.36 199.71L89.58 194.54L87.53 195.64Z" />
			<path id="Layer" class="shp27" d="M82.32 196.89L80.51 196.35L86.21 193.27L87.49 195.63L81.78 198.71L82.32 196.89Z" />
			<path id="Layer" fill-rule="evenodd" class="shp28" d="M87.73 195.71L81.48 199.07L82.1 197.01L80.04 196.39L86.29 193.03L87.73 195.71ZM80.97 196.3L82.55 196.77L82.08 198.35L87.24 195.56L86.14 193.51L80.97 196.3Z" />
			<path id="Layer" class="shp29" d="M86.82 197.49C84.08 196.67 82.51 193.77 83.33 191.02C84.16 188.28 87.06 186.71 89.8 187.53C92.55 188.36 94.11 191.26 93.29 194C92.47 196.75 89.57 198.31 86.82 197.49Z" />
			<path id="Layer" fill-rule="evenodd" class="shp30" d="M93.46 194.05C92.61 196.9 89.61 198.51 86.77 197.66C83.92 196.81 82.31 193.81 83.16 190.97C84.01 188.13 87.01 186.51 89.86 187.36C92.7 188.21 94.31 191.21 93.46 194.05ZM83.51 191.07C82.71 193.72 84.22 196.52 86.87 197.32C89.52 198.11 92.33 196.6 93.12 193.95C93.91 191.3 92.4 188.5 89.75 187.71C87.1 186.91 84.3 188.42 83.51 191.07Z" />
			<path id="Layer" class="shp31" d="M84.54 191.38C85.16 189.3 87.36 188.11 89.44 188.74C91.53 189.36 92.71 191.56 92.09 193.64C91.46 195.73 89.26 196.91 87.18 196.29C85.1 195.66 83.91 193.47 84.54 191.38Z" />
			<path id="Layer" class="shp32" d="M89.34 190.78L88.22 194.52L87.57 194.33L88.44 191.45C88.29 191.5 88.02 191.52 87.51 191.5L87.67 190.94C88.15 190.93 88.62 190.85 89.07 190.7L89.34 190.78Z" />
		</g>
	</g>
	<path id="Layer" class="shp3" d="M495.13 250.92C495.13 250.92 510.17 255.15 505.74 282.44L472.78 261.38C472.78 261.38 486.12 248.32 495.13 250.92Z" />
	<g id="Layer" style="opacity: 0.388">
		<path id="Layer" class="shp33" d="M495.13 250.92C495.13 250.92 510.17 255.15 505.74 282.44L472.78 261.38C472.78 261.38 486.12 248.32 495.13 250.92Z" />
	</g>
	<path id="Layer" class="shp3" d="M379.85 369.06C426.87 343.57 410.2 304.28 409.99 265.83C409.93 253.54 410.16 240.72 413.5 228.72C414.72 224.35 416.36 219.76 419.36 216.28C421.05 214.33 423.47 212.06 426.07 211.47C428.97 210.81 431.71 213.05 434.04 214.43L442.12 219.22L463.46 231.91L480.78 242.16L483.83 243.98L496.61 251.54C494.18 250.1 488.9 254.97 487.6 256.49C484.61 259.97 482.96 264.56 481.74 268.92C478.4 280.84 478.17 293.7 478.22 306.03C478.4 344.51 500.06 393.26 452.97 418.72C426.78 432.91 386.64 457.14 386.64 457.14L308.32 410.6C316.63 405.57 357.26 381.29 379.85 369.06Z" />
	<path id="Layer" class="shp34" d="M395.32 300.05L400.11 296.46C400.12 296.15 400.29 295.86 400.56 295.7C405.13 292.51 409.7 289.31 414.27 286.09C414.56 285.87 414.94 285.8 415.29 285.92C415.64 286.04 415.9 286.33 415.99 286.69C416.47 287.52 415.86 288.38 415.08 289.03C414.31 289.67 413.35 290.46 412.47 291.21C412.59 291.29 412.68 291.4 412.76 291.51C413.46 292.61 414.63 294.16 414.64 295.52C414.65 296.88 413.55 297.56 412.69 298.3L412.69 298.5C412.87 300.18 412.13 300.68 410.79 301.48C410.54 301.66 410.21 301.71 409.91 301.63C408.99 302.24 408.01 302.75 407 303.18L402.96 305.24C401.93 305.76 401.19 304.53 401.6 303.7C400.8 303.76 400.46 302.88 400.66 302.19C400.56 302.09 400.48 301.97 400.43 301.83L400.43 301.78L399.04 302.87C397.95 303.75 396.57 301.99 397.69 301.11L398.69 300.32L396.65 301.85C396.15 302.22 395.45 302.12 395.08 301.62C394.71 301.12 394.82 300.42 395.32 300.05L395.32 300.05Z" />
	<path id="Layer" class="shp35" d="M363.58 440.42L361.86 439.33L361.86 419.91L370.38 419.6C370.38 419.6 370.55 427.89 372.57 429.78C372.57 429.78 379.56 430.31 380.06 430.48C380.06 430.48 383.9 429.67 385.4 431.22C385.4 431.22 380.3 437.24 376.78 438.06C374.37 438.55 371.9 438.64 369.47 438.34C369.47 438.34 368.7 433.37 367.48 433.86L366.17 439.6L363.58 440.42Z" />
	<path id="Layer" class="shp36" d="M357.16 337.61C355.96 344.27 355.26 351 355.05 357.76C354.9 365.4 357.6 426.47 357.6 426.47C357.6 426.47 362.67 432.41 375 428.83C376.79 428.31 377.36 369.24 377.36 369.24L373.09 342.14" />
	<path id="Layer" class="shp37" d="M362.84 306.77C363.52 306.77 386.21 306.19 401.55 292.44C401.55 292.44 408.89 299.65 405.91 305.16C405.91 305.16 384.17 326.11 367.59 321.82" />
	<path id="Layer" class="shp38" d="M380.82 300.29C380.88 300.2 380.99 300.14 381.1 300.14C381.22 300.14 381.32 300.2 381.39 300.29C383.57 303.6 384.36 307.64 383.57 311.52C383.48 311.94 382.85 311.76 382.93 311.35C383.62 307.83 382.97 304.18 381.1 301.12C379.23 304.61 378.27 308.51 378.31 312.47C378.31 312.66 378.16 312.81 377.97 312.81C377.79 312.81 377.64 312.66 377.64 312.47C377.61 308.2 378.71 304 380.82 300.29L380.82 300.29Z" />
	<path id="Layer" class="shp35" d="M386.93 455.41L385.21 454.32L385.21 434.9L393.73 434.59C393.73 434.59 393.9 442.88 395.92 444.76C395.92 444.76 402.91 445.3 403.4 445.46C403.4 445.46 407.25 444.65 408.75 446.21C408.75 446.21 403.64 452.23 400.13 453.05C397.72 453.54 395.25 453.63 392.82 453.32C392.82 453.32 392.05 448.36 390.83 448.85L389.52 454.59L386.93 455.41Z" />
	<path id="Layer" class="shp36" d="M383.88 340.44C383.88 340.44 391.73 369.46 394.93 395.42C395.7 401.66 402.15 438.84 402.15 438.84C402.15 438.84 391.52 442.72 382.06 439.68C382.06 439.68 370.82 392.24 370.34 391.31C369.86 390.38 362.27 359.65 361.4 337.6" />
	<path id="Layer" class="shp39" d="M359.85 303.52L364.36 301.83C365.5 301.91 375.71 305.25 380.35 312C381 314.12 381.49 316.28 381.82 318.47C382.41 321.38 382.91 324.31 383.29 327.2C383.71 330.4 383.89 333.64 383.83 336.87C383.83 338.26 383.76 338.96 383.61 340.33C383.11 340.84 382.53 341.25 381.89 341.55C368.48 347.32 357.87 340.32 357.34 339.24C356.8 338.16 355.04 322.35 354.06 312.94C353.65 308.86 356.02 305 359.85 303.52Z" />
	<path id="Layer" class="shp34" d="M370.8 286.31C370.8 286.31 375.01 301.59 369.41 303.7C369.41 303.7 356.61 299.8 355.89 296.64C355.17 293.49 362.4 281.71 370.8 286.31Z" />
	<path id="Layer" class="shp40" d="M343.15 281.75C344.66 278.58 348.26 276.98 351.62 277.99C354.71 278.99 356.58 281.65 357.48 284.61C360.26 282.17 364.41 280.94 369.67 282.55C369.67 282.55 374.84 284.74 373.9 288.01C372.96 291.28 369.04 291.28 365.76 291.93C362.47 292.57 365.13 295.46 364.97 298.7C364.81 301.94 363.34 302.47 361.98 302.76C360.61 303.04 354.41 301.67 353.54 294.39C353.49 293.94 353.46 293.49 353.47 293.04C352.62 293.13 351.77 293.16 350.91 293.12C348.98 293.18 347.08 292.66 345.45 291.61C342.52 289.23 341.58 285.17 343.15 281.75Z" />
	<path id="Layer" class="shp34" d="M376.19 303.06C375.76 302.46 375.58 301.72 375.68 300.99C375.74 300.54 376.07 300.18 376.51 300.08C376.95 299.98 377.41 300.16 377.66 300.53L378.14 301.19C378.22 300.35 378.31 299.5 378.43 298.66C378.45 298.06 378.95 297.59 379.56 297.61C380.16 297.63 380.63 298.14 380.61 298.74C380.61 299 380.68 299.28 380.7 299.54C380.79 299.82 380.85 300.11 380.88 300.4C382.07 300.55 383.49 300.99 383.7 302.35C383.7 302.35 383.7 302.42 383.7 302.44C384.62 302.44 385.51 302.8 385.55 303.89C385.56 304.1 385.56 304.31 385.55 304.52C386.47 304.79 387.15 305.26 387.02 306.47C386.82 307.88 386.45 309.26 385.93 310.59C385.77 310.92 385.46 311.15 385.1 311.21C384.97 311.8 384.81 312.38 384.65 312.95C384.4 313.46 383.92 313.8 383.36 313.86C382.8 313.93 382.25 313.7 381.9 313.26C381.79 313.25 381.68 313.23 381.57 313.19C381.31 313.38 380.98 313.43 380.67 313.35C380.39 313.54 380.04 313.6 379.72 313.5C379.4 313.41 379.14 313.17 379.02 312.86C378.76 312.63 378.63 312.28 378.66 311.94C378.66 311.69 378.66 311.44 378.66 311.2L378.66 311.2C377.78 308.49 376.96 305.78 376.19 303.06Z" />
	<path id="Layer" class="shp39" d="M378.06 308.72C378.41 308.81 383.32 304.3 387.04 305.85C387.04 305.85 401.23 329.77 387.99 336.11C381.44 339.25 376.34 329.56 376.34 329.56L380.11 322.11L378.06 308.72Z" />
	<path id="Layer" class="shp2" d="M461.86 280.34C458.56 280.34 455.9 276.68 455.9 272.16C455.9 267.64 458.56 263.98 461.86 263.98C465.16 263.98 467.82 267.64 467.82 272.16C467.82 276.68 465.16 280.34 461.86 280.34Z" />
	<path id="Layer" class="shp13" d="M452.14 263.75L420.03 244.92C419.38 244.54 419.16 243.71 419.54 243.06C419.92 242.41 420.75 242.19 421.4 242.57L453.52 261.4C454.17 261.78 454.39 262.61 454.01 263.26C453.63 263.91 452.8 264.13 452.14 263.75L452.14 263.75Z" />
	<path id="Layer" class="shp13" d="M449.5 270L429.17 258.34C428.52 257.96 428.3 257.13 428.67 256.47C429.06 255.82 429.89 255.6 430.54 255.98L450.92 267.64C451.57 268.03 451.78 268.88 451.39 269.53C451 270.18 450.15 270.39 449.5 270L449.5 270Z" />
	<path id="Layer" class="shp2" d="M464.35 315.88C467.57 315.22 469.46 311.1 468.55 306.68C467.65 302.26 464.3 299.2 461.08 299.86C457.85 300.52 455.97 304.64 456.87 309.06C457.78 313.49 461.13 316.54 464.35 315.88Z" />
	<path id="Layer" class="shp13" d="M453.03 301.6L420.97 282.76C420.32 282.38 420.1 281.54 420.48 280.89C420.86 280.24 421.69 280.02 422.34 280.4L454.4 299.24C455.06 299.62 455.28 300.46 454.89 301.11C454.52 301.76 453.68 301.98 453.03 301.6Z" />
	<path id="Layer" class="shp13" d="M450.43 307.85L430.09 296.19C429.44 295.81 429.22 294.97 429.6 294.32C429.98 293.67 430.82 293.45 431.47 293.83L451.81 305.49C452.46 305.87 452.68 306.7 452.3 307.35C451.92 308 451.08 308.23 450.43 307.85L450.43 307.85Z" />
	<path id="Layer" class="shp2" d="M468.9 349.61C472.06 348.68 473.59 344.41 472.32 340.08C471.05 335.75 467.46 332.99 464.3 333.91C461.14 334.84 459.61 339.11 460.88 343.44C462.15 347.77 465.75 350.53 468.9 349.61Z" />
	<path id="Layer" class="shp13" d="M456.94 336.52L424.88 317.68C424.22 317.3 424.01 316.47 424.38 315.81C424.77 315.16 425.6 314.94 426.25 315.32L458.31 334.16C458.96 334.54 459.18 335.38 458.8 336.03C458.42 336.68 457.59 336.9 456.94 336.52L456.94 336.52Z" />
	<path id="Layer" class="shp13" d="M456.26 343.48L435.92 331.82C435.27 331.44 435.05 330.6 435.43 329.95C435.81 329.3 436.65 329.08 437.3 329.46L457.63 341.12C458.29 341.5 458.51 342.33 458.13 342.98C457.75 343.63 456.91 343.86 456.26 343.48L456.26 343.48Z" />
	<path id="Layer" class="shp2" d="M462.82 381.59C459.52 381.59 456.86 377.94 456.86 373.42C456.86 368.9 459.52 365.24 462.82 365.24C466.12 365.24 468.78 368.9 468.78 373.42C468.78 377.94 466.12 381.59 462.82 381.59Z" />
	<path id="Layer" class="shp13" d="M453.45 366.68L421.39 347.84C420.74 347.46 420.52 346.63 420.9 345.98C421.28 345.32 422.12 345.1 422.77 345.48L454.83 364.31C455.48 364.69 455.7 365.53 455.32 366.18C454.94 366.83 454.11 367.05 453.45 366.67L453.45 366.68Z" />
	<path id="Layer" class="shp13" d="M450.59 372.51L430.26 360.85C429.61 360.47 429.39 359.64 429.77 358.99C430.15 358.34 430.98 358.12 431.63 358.5L451.97 370.15C452.62 370.53 452.84 371.37 452.46 372.02C452.08 372.67 451.24 372.89 450.59 372.51Z" />
	<path id="Layer" class="shp41" d="M458.73 269.34L461.19 268.55C461.19 268.55 461 272.51 461.2 272.31C461.41 272.1 471.16 265.92 471.16 265.92L471.4 268.52L459.54 275.72L458.73 269.34Z" />
	<path id="Layer" class="shp34" d="M379.24 309.73C382.35 314.81 384.49 320.42 385.55 326.28C385.67 326.97 384.62 327.26 384.45 326.58C383.42 320.81 381.32 315.28 378.25 310.29C377.93 309.65 378.87 309.1 379.24 309.73Z" />
	<path id="Layer" class="shp34" d="M376.6 330.47C377.69 332.6 379.08 334.84 381.27 335.93C383.9 337.16 387.02 336.68 389.16 334.71C393.81 330.7 393.11 323.79 392.18 318.41C392.06 317.72 393.11 317.43 393.27 318.12C394.37 324.16 394.92 332.02 389.21 336.07C386.98 337.72 384.07 338.13 381.47 337.16C378.74 336.07 377.01 333.48 375.7 330.95C375.33 330.41 376.28 329.86 376.6 330.47Z" />
	<path id="Layer" class="shp40" d="M364.7 358.95C365.39 372.83 369.49 386.12 372.96 399.49C376.43 412.85 379.39 426.15 381.92 439.63L380.74 439.31C378.17 425.69 375.14 412.17 371.64 398.75C368.2 385.65 364.29 372.55 363.61 358.95C363.57 358.25 364.66 358.25 364.7 358.95Z" />
	<g id="Layer">
		<path id="Layer" class="shp33" d="M312.44 327.66C325.87 327.66 336.76 331.22 336.76 335.61L288.12 335.61C288.12 331.22 299.01 327.66 312.44 327.66Z" />
		<path id="Layer" class="shp33" d="M336.69 336.23L336.76 335.62C336.76 335.83 336.73 336.03 336.69 336.23L336.69 336.23Z" />
		<path id="Layer" class="shp12" d="M288.12 335.62L288.22 336.32" />
		<path id="Layer" class="shp33" d="M312.44 343.57C299.72 343.57 289.3 340.38 288.22 336.31L288.12 335.61L336.76 335.61L336.69 336.22C335.72 340.34 325.25 343.57 312.44 343.57Z" />
		<path id="Layer" class="shp42" d="M303.15 294.57L308.62 294.57L308.62 351.01L303.15 351.01L303.15 294.57Z" />
		<path id="Layer" class="shp42" d="M305.88 295.72C304.37 295.72 303.14 295.21 303.14 294.57C303.14 293.93 304.37 293.41 305.88 293.41C307.4 293.41 308.62 293.93 308.62 294.57C308.62 295.21 307.4 295.72 305.88 295.72Z" />
		<path id="Layer" class="shp43" d="M291.2 305.55L296.56 304.46L307.85 359.77L302.49 360.87L291.2 305.55Z" />
		<path id="Layer" class="shp43" d="M293.9 305.93C295.38 305.63 296.48 304.88 296.36 304.25C296.23 303.63 294.92 303.36 293.44 303.66C291.96 303.97 290.86 304.72 290.99 305.35C291.11 305.97 292.42 306.24 293.9 305.93Z" />
		<path id="Layer" class="shp39" d="M319.05 336.87L324.01 339.72C324.22 339.79 324.44 339.7 324.55 339.51C324.65 339.33 324.61 339.09 324.45 338.95L319.37 336.08C319.33 336.05 319.27 336.03 319.22 336.03L320.22 330.57L325.25 333.44C325.45 333.51 325.67 333.43 325.78 333.24C325.89 333.05 325.85 332.81 325.68 332.67L320.57 329.75C320.52 329.72 320.45 329.7 320.39 329.7L321.32 324.7L326.19 327.51C326.4 327.58 326.62 327.5 326.73 327.31C326.84 327.12 326.8 326.89 326.63 326.75L321.52 323.82L321.42 323.82L322.46 318.25L327.38 321.07C327.59 321.14 327.81 321.06 327.92 320.87C328.03 320.68 327.99 320.45 327.82 320.31L322.71 317.38L322.64 317.38L323.65 311.92L328.65 314.78C328.86 314.86 329.08 314.77 329.19 314.58C329.29 314.4 329.25 314.16 329.09 314.02L324.01 310.97C323.96 310.95 323.91 310.93 323.86 310.92L324.73 306.19L329.73 309.05C329.94 309.12 330.16 309.04 330.27 308.85C330.38 308.66 330.33 308.43 330.17 308.29L325.1 305.41C325.05 305.38 325 305.36 324.94 305.35L325.81 300.64L330.8 303.49C331.01 303.56 331.23 303.47 331.34 303.28C331.44 303.1 331.4 302.86 331.24 302.72L326.13 299.8C326.08 299.79 326.03 299.79 325.98 299.8L326.9 294.6L331.85 297.43C332.05 297.5 332.28 297.41 332.39 297.23C332.49 297.04 332.45 296.8 332.29 296.66L327.18 293.74L327.08 293.74L327.53 291.33L338.38 298.05C338.38 298.05 330.67 340.96 330.51 341.05C326.01 343.39 317.82 343.67 317.82 343.67L319.05 336.87Z" />
		<path id="Layer" class="shp44" d="M332.28 296.61C332.44 296.75 332.48 296.99 332.38 297.17C332.27 297.36 332.04 297.44 331.84 297.37L326.9 294.6L327.07 293.69L327.17 293.69L332.28 296.61Z" />
		<path id="Layer" class="shp44" d="M331.19 302.72C331.36 302.86 331.4 303.1 331.29 303.28C331.19 303.47 330.96 303.56 330.76 303.49L325.77 300.64L325.93 299.74C325.98 299.73 326.04 299.73 326.09 299.74L331.19 302.72Z" />
		<path id="Layer" class="shp44" d="M330.17 308.33C330.33 308.47 330.38 308.71 330.27 308.9C330.16 309.08 329.94 309.17 329.73 309.1L324.73 306.24L324.9 305.35C324.95 305.36 325.01 305.38 325.06 305.41L330.17 308.33Z" />
		<path id="Layer" class="shp44" d="M329.12 313.94C329.29 314.08 329.33 314.32 329.22 314.51C329.11 314.69 328.89 314.78 328.68 314.71L323.68 311.85L323.85 310.96C323.9 310.96 323.96 310.96 324.01 310.97L329.12 313.94Z" />
		<path id="Layer" class="shp44" d="M327.87 320.25C328.03 320.39 328.07 320.63 327.96 320.82C327.86 321 327.63 321.09 327.43 321.02L322.51 318.2L322.68 317.28L322.76 317.28L327.87 320.25Z" />
		<path id="Layer" class="shp44" d="M326.69 326.75C326.85 326.89 326.89 327.12 326.79 327.31C326.68 327.5 326.45 327.58 326.25 327.51L321.31 324.68L321.47 323.78L321.57 323.78L326.69 326.75Z" />
		<path id="Layer" class="shp44" d="M320.57 329.75L325.68 332.67C325.85 332.81 325.89 333.05 325.78 333.24C325.67 333.43 325.45 333.51 325.25 333.44L320.22 330.57L320.39 329.7C320.45 329.7 320.52 329.72 320.57 329.75Z" />
		<path id="Layer" class="shp44" d="M324.48 338.95C324.65 339.09 324.69 339.33 324.58 339.51C324.47 339.7 324.25 339.79 324.05 339.72L319.05 336.86L319.21 335.97C319.26 335.98 319.32 336 319.36 336.03L324.48 338.95Z" />
		<path id="Layer" class="shp45" d="M296.35 304.25C296.35 304.25 296.08 305.68 293.91 305.93L290.99 305.34L291.7 294.6L296.35 304.25Z" />
		<path id="Layer" class="shp40" d="M291.7 294.6L293.88 299.1C293.25 299.79 292.21 299.94 291.41 299.45L291.7 294.6Z" />
		<path id="Layer" class="shp45" d="M308.62 294.24C308.62 294.24 308.12 295.62 305.93 295.52L303.15 294.42L305.55 283.9L308.62 294.24Z" />
		<path id="Layer" class="shp40" d="M305.54 283.96L306.97 288.74C306.25 289.34 305.2 289.34 304.47 288.74L305.54 283.96Z" />
		<path id="Layer" class="shp3" d="M312.44 343.57C325.23 343.57 335.72 340.29 336.69 336.23C336.05 341.15 331.67 374.89 331.51 375.08C331.51 375.08 329.33 384.6 312.44 384.59C298.11 384.59 294.03 377.4 294.03 377.4L288.22 336.32C289.3 340.38 299.72 343.57 312.44 343.57Z" />
	</g>
	<g id="Layer">
		<g id="Layer">
			<g id="Layer">
				<g id="Layer">
					<path id="Layer" class="shp2" d="M214.06 211.41C204.7 208.38 199.39 199.99 201.44 191.46C202.46 187.21 205.04 184.09 208.54 182.41C212.03 180.73 216.44 180.5 221.13 182.01C224.63 183.14 227.34 184.8 229.41 187.07C230.71 188.51 231.18 189.73 230.89 190.93C230.51 192.5 229 193.23 227.28 192.67C226.05 192.27 225.24 191.47 224.53 190.76C223.16 189.35 221.75 188.47 219.83 187.85C214.32 186.07 209.75 188.43 208.48 193.74C207.2 199.06 210.05 203.85 215.55 205.63C217.86 206.37 219.25 206.33 220.86 206.01C221.79 205.8 222.83 205.57 224.04 205.96C225.73 206.51 226.76 208.14 226.39 209.68C226.1 210.89 225.13 211.66 223.34 212.07C220.72 212.76 217.52 212.53 214.06 211.41Z" />
					<g id="Clip-Path" clip-path="url(#cp6)">
						<path id="Layer" class="shp46" d="M214.06 211.41C204.7 208.38 199.39 199.99 201.44 191.46C202.46 187.21 205.04 184.09 208.54 182.41C212.03 180.73 216.44 180.5 221.13 182.01C224.63 183.14 227.34 184.8 229.41 187.07C230.71 188.51 231.18 189.73 230.89 190.93C230.51 192.5 229 193.23 227.28 192.67C226.05 192.27 225.24 191.47 224.53 190.76C223.16 189.35 221.75 188.47 219.83 187.85C214.32 186.07 209.75 188.43 208.48 193.74C207.2 199.06 210.05 203.85 215.55 205.63C217.86 206.37 219.25 206.33 220.86 206.01C221.79 205.8 222.83 205.57 224.04 205.96C225.73 206.51 226.76 208.14 226.39 209.68C226.1 210.89 225.13 211.66 223.34 212.07C220.72 212.76 217.52 212.53 214.06 211.41Z" />
					</g>
				</g>
			</g>
		</g>
		<g id="Layer">
			<g id="Layer">
			</g>
		</g>
		<g id="Layer">
			<g id="Layer">
				<path id="Layer" fill-rule="evenodd" class="shp10" d="M243.55 127.62C247.76 129.25 248.51 132.23 248.7 134.64L250.99 158.61C251.09 160.23 250.44 161.58 249.26 162.26C248.19 162.88 246.82 162.91 245.37 162.35C243.22 161.52 242.02 159.84 241.8 157.34L241.52 153.11L232.19 149.45L229.87 152.67C228.48 154.57 226.63 155.09 224.37 154.21C222.95 153.66 221.83 152.62 221.32 151.36C220.74 149.96 220.95 148.46 221.87 147.32L235.8 129.63C237.06 127.98 239.25 125.96 243.55 127.62L243.55 127.62ZM237.16 130.64L223.22 148.34C222.58 149.13 222.44 150.12 222.81 151.02C223.13 151.81 223.84 152.46 224.76 152.82C225.82 153.23 227.2 153.46 228.5 151.68L230.81 148.47L231.43 147.61L232.6 148.07L241.93 151.73L243.06 152.17L243.13 153.27L243.4 157.5C243.61 159.83 244.78 160.57 245.77 160.96C246.44 161.22 247.41 161.42 248.26 160.93C249.03 160.48 249.45 159.56 249.38 158.45L247.1 134.53C246.9 132.05 246.16 130.18 243.15 129.02C239.92 127.76 238.31 129.14 237.16 130.64ZM235.36 142.52L239.1 137.57L241.71 134.1L242.07 138.72L242.57 145.32L242.72 147.41L234.18 144.09L235.36 142.52ZM240.96 145.18L240.46 138.58L236.72 143.53L240.96 145.18Z" />
			</g>
		</g>
		<g id="Layer">
			<g id="Layer">
				<path id="Layer" fill-rule="evenodd" class="shp10" d="M319.33 182.8C318.28 184.71 316.51 185.94 314.24 186.41C316.08 189.23 316.36 192.14 314.97 194.64C311.87 200.24 306.01 200.69 297.57 196L290.57 192.12C288.26 190.84 287.37 188.48 288.46 186.51L299.93 165.85C301.01 163.91 303.47 163.43 305.78 164.71L312.07 168.21C321.78 173.59 321.38 179.12 319.33 182.8ZM305.09 165.96C303.59 165.13 302.11 165.42 301.41 166.68L289.95 187.34C289.23 188.62 289.76 190.04 291.26 190.87L298.26 194.76C308.34 200.35 311.78 196.9 313.49 193.82C314.63 191.76 314.42 189.41 312.86 187.02L311.77 185.34L313.66 184.95C315.53 184.56 316.98 183.53 317.85 181.98C320.4 177.38 318.28 173.28 311.38 169.45L305.09 165.96ZM299.42 180.74L304.16 183.37C308.32 185.67 308.74 188.4 307.75 190.19C306.7 192.08 303.92 193.01 300.05 190.87L295.28 188.21L299.42 180.74ZM304.95 170.77L309.08 173.07C313.85 175.71 313.5 178.03 312.87 179.17C312.02 180.7 309.56 181.48 306.16 179.59L301.5 177L304.95 170.77ZM306.85 178.34C309.18 179.64 310.85 179.32 311.38 178.35C311.91 177.4 311.59 176.09 308.39 174.31L305.74 172.84L303.67 176.58L306.85 178.34ZM300.74 189.62C303.93 191.39 305.66 190.46 306.27 189.37C306.87 188.28 306.85 186.49 303.47 184.61L300.21 182.81L297.45 187.79L300.74 189.62Z" />
			</g>
		</g>
		<path id="Layer" fill-rule="evenodd" class="shp47" d="M295.11 240.44C291.29 247.33 281.67 249.28 273.61 244.8L263 238.91L276.83 214L287.43 219.89C295.5 224.36 298.93 233.56 295.11 240.44ZM289.18 237.15C291.47 233.03 289.34 227.46 284.44 224.74L279.99 222.27L271.69 237.22L276.14 239.69C281.05 242.41 286.9 241.27 289.18 237.15Z" />
	</g>
	<path id="Layer" class="shp48" d="M258 141.38L276.75 151.88" />
	<path id="Layer" class="shp48" d="M325.13 180L345.75 191.25" />
	<path id="Layer" class="shp48" d="M256.5 152.63L280.5 166.5" />
	<path id="Layer" class="shp48" d="M324.38 191.25L347.63 204.38" />
	<path id="Layer" class="shp48" d="M235.13 197.25L255.75 208.88" />
	<path id="Layer" class="shp48" d="M233.25 208.5L259.88 222.75" />
	<path id="Layer" class="shp48" d="M302.63 235.88L323.63 248.63" />
</svg>