<svg xmlns="http://www.w3.org/2000/svg" xmlns:xlink="http://www.w3.org/1999/xlink" width="519" height="614" viewBox="0 0 519 614">
    <defs>
        <path id="d2fllofhya" d="M0 0L613 0 613 518 0 518z"/>
    </defs>
    <g fill="none" fill-rule="evenodd">
        <g>
            <g transform="matrix(0 1 1 0 .5 .5)">
                <mask id="m2j75xt67b" fill="#fff">
                    <use xlink:href="#d2fllofhya"/>
                </mask>
                <path fill="#E4E7FC" d="M21.342 518s-62.208-227.05 25.79-309.48c87.996-82.431 94.492-5.313 153.783-108.376C260.205-2.918 335.019-17.469 389.052 16.23c54.033 33.698 21.964 111.077 80.966 126.342 59.002 15.264 149.233 68.446 119.505 179.65-29.728 111.201 37.98 60.007 20.569 195.778H21.342z" mask="url(#m2j75xt67b)" opacity=".501"/>
            </g>
            <g>
                <path fill="#50BFA5" d="M246.915 58.467L243.578 59.492 241.339 54.301 236.277 55.197 233.966 51.586 232.138 52.757 235.23 57.587 240.028 56.737 242.358 62.138 247.379 60.595 246.915 58.467" transform="translate(59 48.5) matrix(-1 0 0 1 479.517 0)"/>
                <path fill="#50BFA5" d="M37.053 240.191L33.716 241.215 31.476 236.024 26.413 236.922 24.102 233.31 22.276 234.482 25.366 239.309 30.164 238.461 32.495 243.862 37.517 242.318 37.053 240.191" transform="translate(59 48.5) matrix(-1 0 0 1 59.793 0)"/>
                <path fill="#4FDD93" d="M231.254 301.31s-17.505-59.199-18.91-72.257c-1.403-13.06 8.386-9.013 8.386-9.013s-8.236-24.883-2.282-30.788c5.956-5.906 11.327 5.102 11.327 5.102s1.802-30.207 8.151-30.216c11.824-.021 11.592 32.941 11.592 32.941s3.017-12.904 9.35-9.366c9.548 5.336-4.145 31.2-4.145 31.2s12.167.006 16.44 6.129c7.67 10.982-39.909 76.268-39.909 76.268" transform="translate(59 48.5) matrix(-1 0 0 1 484.207 0)"/>
                <path fill="#4FDD93" d="M336.483 293.103s-50.173-8.386-61.086-17.273c-10.913-8.886-.112-12.891-.112-12.891s-25.204-12.915-24.913-21.697c.293-8.782 12.814-4.317 12.814-4.317s-21.237-24.206-16.209-28.804c9.363-8.56 33.916 16.601 33.916 16.601s-7.29-11.966.386-13.861c11.58-2.854 20.125 26.65 20.125 26.65s-2.171-11.651 5.812-10.098c14.326 2.784 29.267 65.69 29.267 65.69" transform="translate(59 48.5) matrix(-1 0 0 1 582.69 0)"/>
                <path fill="#3C8F7C" d="M307.46 227.41c-7.98-1.447-5.797 10.097-5.797 10.097s-8.522-29.5-20.072-26.647c-7.656 1.895-.385 13.86-.385 13.86s-24.488-25.159-33.827-16.599l89.104 84.982c-1.588-8.117-15.64-63.27-29.023-65.693" transform="translate(59 48.5) matrix(-1 0 0 1 583.862 0)"/>
                <path fill="#2745D8" d="M340 299.718s-26.33-27.142-39.589-29.97c-13.26-2.825-10.874 6.736-10.874 6.736s-26.307-23.32-32.405-17.67c-6.096 5.65.498 11.106.498 11.106s-21.913-3.935-25.048 3.354c-4.82 11.2 31.218 17.296 31.218 17.296s-15.104 1.063-11.6 8.086c5.282 10.59 87.8 1.062 87.8 1.062" transform="translate(59 48.5) matrix(-1 0 0 1 572.138 0)"/>
                <path fill="#2334A4" d="M232.138 273.07c3.148-7.138 25.152-3.285 25.152-3.285s-6.622-5.342-.5-10.875 31.717 14.199 31.717 14.199-6.035-11.405 7.278-8.636C309.1 267.242 340 298.966 340 298.966L232.138 273.07" transform="translate(59 48.5) matrix(-1 0 0 1 572.138 0)"/>
                <path fill="#F7CC7F" d="M186.529 22.42c-8.77 1.481-11.375 13.302-4.084 18.59 1.31.95 2.216 2.377 2.602 3.975l1.326 5.5c.367 1.514 1.803 2.487 3.304 2.234l3.322-.562c1.5-.254 2.56-1.648 2.432-3.204-.462-5.677-1.03-7.736.766-10.268 5.256-7.406-.897-17.748-9.668-16.266" transform="translate(59 48.5) matrix(-1 0 0 1 376.345 0)"/>
                <path fill="#FAE0B2" d="M192.246 30.574c-.286.654-.178 1.493-.11 2.457.753-.426 1.627-.959 1.911-1.74.2-.546-.024-1.32-.585-1.462-.062-.016-1.013.285-1.216.745zm-8.53 3.537c.469.502 1.254.723 2.4.67-.198-.838-.491-1.592-1.072-2.128-1.31-1.208-2.114.617-1.329 1.458zm4.232 12.786c-.6-4.935-1.44-10.144-1.726-11.622-5.276.289-3.27-5.232-.836-2.987.694.64 1.021 1.507 1.238 2.458 1.75-.157 3.465-.653 5.025-1.454-.084-1.217-.204-2.139.137-2.918.518-1.176 2.018-1.496 2.63-.35.229.43.27.98.103 1.437-.354.973-1.418 1.616-2.347 2.12.28 3.922.662 7.875 1.146 11.768l-.496.061c-.477-3.83-.857-7.718-1.134-11.578-1.55.765-3.236 1.244-4.963 1.405.361 1.89 1.158 6.967 1.722 11.6l-.499.06z" transform="translate(59 48.5) matrix(-1 0 0 1 377.517 0)"/>
                <path fill="#96D9C9" d="M181.724 45.025c.012.045.028.088.04.133l1.34 5.377c.372 1.481 1.824 2.432 3.342 2.184l3.36-.549c1.517-.248 2.59-1.61 2.46-3.132-.207-2.47-.437-4.237-.467-5.659l-10.075 1.646" transform="translate(59 48.5) matrix(-1 0 0 1 374 0)"/>
                <path fill="#FAE0B2" d="M197.453 18.236l-2.711-5.025c-.261-.486-.086-1.097.393-1.363.48-.267 1.08-.088 1.343.398l2.712 5.026c.26.486.085 1.096-.394 1.363-.482.268-1.082.085-1.343-.399" transform="translate(59 48.5) matrix(-1 0 0 1 393.931 0)"/>
                <path fill="#FAE0B2" d="M208.743 30.48l-6.15-.486c-.566-.045-.985-.496-.933-1.007.049-.512.547-.89 1.113-.845l6.15.485c.565.045.984.496.935 1.007-.05.511-.548.89-1.115.845" transform="translate(59 48.5) matrix(-1 0 0 1 411.517 0)"/>
                <path fill="#FAE0B2" d="M201.961 47.768c-.41-.397-.408-1.037.008-1.43 1.554-1.467 3.26-2.8 5.076-3.96.485-.311 1.141-.186 1.466.278.324.465.195 1.093-.292 1.403-1.704 1.09-3.306 2.34-4.764 3.718-.413.39-1.083.39-1.494-.009" transform="translate(59 48.5) matrix(-1 0 0 1 410.345 0)"/>
                <path fill="#FAE0B2" d="M181.35 17.554c-.573-.134-.914-.65-.762-1.152.728-2.383 1.175-4.841 1.328-7.305.033-.519.54-.918 1.134-.889.594.028 1.048.471 1.017.99-.16 2.593-.63 5.18-1.397 7.69-.155.505-.75.8-1.32.666" transform="translate(59 48.5) matrix(-1 0 0 1 364.62 0)"/>
                <path fill="#FAE0B2" d="M168.87 25.147c-.158-.48.139-.987.669-1.132l6.207-1.7c.53-.145 1.086.127 1.246.607.158.48-.141.987-.668 1.132l-6.208 1.7c-.527.145-1.085-.126-1.246-.607" transform="translate(59 48.5) matrix(-1 0 0 1 345.862 0)"/>
                <path fill="#FAE0B2" d="M172.495 42.207c-.09 0-.184-.013-.277-.04-2.204-.643-4.344-1.534-6.366-2.65-.498-.275-.687-.918-.422-1.436.265-.518.884-.715 1.382-.44 1.892 1.044 3.897 1.879 5.96 2.48.543.16.86.746.707 1.311-.128.469-.537.775-.984.775" transform="translate(59 48.5) matrix(-1 0 0 1 338.828 0)"/>
                <path fill="#FD9730" d="M75.899 84.92l-3.008-7.318-7.56-1.6c-.86-.181-1.146-1.3-.481-1.893l5.833-5.205-.861-7.895c-.097-.9.85-1.524 1.604-1.057l6.61 4.101 7.032-3.28c.8-.374 1.67.36 1.47 1.241l-1.746 7.739 5.205 5.868c.593.668.184 1.746-.693 1.824l-7.692.682-3.813 6.907c-.435.787-1.557.72-1.9-.114" transform="translate(59 48.5) matrix(-1 0 0 1 154.759 0)"/>
                <path fill="#FF3A6D" d="M46.103 59.793L44.822 64.692 36.291 63.606 33.488 70.549 26.966 70.727 27.061 73.862 35.783 73.625 38.442 67.044 47.314 68.175 49.241 60.803 46.103 59.793" transform="translate(59 48.5) matrix(-1 0 0 1 76.207 0)"/>
                <path fill="#FF3A6D" d="M260.276 301.31H114.43c-5.57 0-10.085-4.653-10.085-10.392v-6.181c0-5.739 4.515-10.392 10.085-10.392h145.846c-6.67 7.513-6.786 18.996-.267 26.652l.267.313" transform="translate(59 48.5) matrix(-1 0 0 1 364.62 0)"/>
                <path fill="#FAE0B2" d="M198.13 276.69h-81.304c-5.599 0-10.136 4.724-10.136 10.551 0 5.83 4.537 10.552 10.136 10.552h81.312c-3.8-6.473-3.794-14.647-.007-21.103" transform="translate(59 48.5) matrix(-1 0 0 1 304.828 0)"/>
                <path fill="#7708DD" d="M244.945 255.282c.212-.401-.111-.868-.602-.868h-77.424c-6.07 0-10.988 4.46-10.988 9.965 0 5.503 4.918 9.966 10.988 9.966h77.445c.493 0 .819-.47.602-.873-3.065-5.76-3.058-12.456-.02-18.19" transform="translate(59 48.5) matrix(-1 0 0 1 400.966 0)"/>
                <path fill="#F7CC7F" d="M207.266 255.586h-38.423c-7.132 0-12.912 3.674-12.912 8.206 0 4.534 5.78 8.208 12.912 8.208h38.674c-2.643-5.223-2.715-11.17-.251-16.414" transform="translate(59 48.5) matrix(-1 0 0 1 363.448 0)"/>
                <path fill="#B75742" d="M173.517 260.276h-5.063c-1.087 0-1.971.482-1.971 1.076v.096h7.034v-1.172" transform="translate(59 48.5) matrix(-1 0 0 1 340 0)"/>
                <path fill="#F47458" d="M171.165 262.318c0-1.13-1.311-2.042-2.93-2.042h-6.442c1.228 0 2.222.694 2.222 1.548l-.03 21.9 3.558-2.816 3.63 2.816-.008-21.406" transform="translate(59 48.5) matrix(-1 0 0 1 332.966 0)"/>
                <path fill="#FAE0B2" d="M222.759 253.241h-45.461c-4.03 0-7.298-3.938-7.298-8.794s3.267-8.792 7.298-8.792h45.46c-3.473 4.875-3.61 12.025-.324 17.086l.325.5" transform="translate(59 48.5) matrix(-1 0 0 1 392.759 0)"/>
                <path fill="#2AA4BF" d="M196.341 245.033c0-4.693 3.306-8.498 7.385-8.498h45.615c.214 0 .385-.2.383-.444-.002-.242-.174-.436-.383-.436h-72.365c-4.499 0-8.148 4.198-8.148 9.378 0 5.183 3.65 9.38 8.148 9.38h72.365c.209 0 .38-.195.383-.435.002-.246-.172-.444-.383-.444h-45.615c-4.079 0-7.385-3.807-7.385-8.5" transform="translate(59 48.5) matrix(-1 0 0 1 418.552 0)"/>
                <path fill="#184655" d="M185.241 240.345h-5.063c-1.087 0-1.971.483-1.971 1.074v.098h7.034v-1.172" transform="translate(59 48.5) matrix(-1 0 0 1 363.448 0)"/>
                <path fill="#3C8F7C" d="M182.89 242.286c0-1.07-1.312-1.941-2.93-1.941h-6.443c1.228 0 2.222.66 2.222 1.472l-.03 20.804 3.558-2.676 3.63 2.676-.007-20.335" transform="translate(59 48.5) matrix(-1 0 0 1 356.414 0)"/>
                <path fill="#184655" d="M97.476 109.595l6.869-1.733-4.655 59.53-8.242.263 4.157-55.897c.077-1.03.83-1.9 1.87-2.163" transform="translate(59 48.5) matrix(-1 0 0 1 195.793 0)"/>
                <path fill="#F7CC7F" d="M91.795 169.991c-.151.014-.305.012-.463-.007-1.342-.157-2.335-1.475-2.22-2.946l4.5-56.78c.116-1.472 1.299-2.538 2.643-2.38 1.34.156 2.334 1.476 2.219 2.947l-4.5 56.781c-.104 1.298-1.038 2.282-2.179 2.385" transform="translate(59 48.5) matrix(-1 0 0 1 187.586 0)"/>
                <path fill="#F7CC7F" d="M92.62 172.06c.003.04.005.077.01.117.207 2.198 1.987 3.844 3.972 3.673l56.088-4.805c1.987-.169 3.428-2.089 3.221-4.286-.009-.094-.02-.185-.037-.276l-63.253 5.576" transform="translate(59 48.5) matrix(-1 0 0 1 248.552 0)"/>
                <path fill="#F8CDBA" d="M144.207 232.803c-3.605 2.014-14.626-1.518-14.626-1.837-.157 3.035-12.34 32.742-12.34 32.742l.01 9.14s25.1 1.205 24.74-1.03c-.36-2.235-1.711-.782-6.717-5.003-.445-.375-7.475-2.02-5.574-6.213 3.833-8.446 11.97-22.527 14.507-27.8" transform="translate(59 48.5) matrix(-1 0 0 1 261.448 0)"/>
                <path fill="#3C8F7C" d="M118.019 274.338l27.506.007c.991-.1 1.224-.904.872-1.392-.721-1.004-5.993-3.374-9.535-4.945-6.172.715-17.02-1.644-18.014-3.042-2.613 3.478-1.382 9.258-.83 9.372" transform="translate(59 48.5) matrix(-1 0 0 1 263.793 0)"/>
                <path fill="#3144C0" d="M105.613 211.787c-.379-1.145 24.104-11.608 25.199-10.412 1.939 2.115-13.247 41.808-13.247 41.808l17.448 5.369s18.136-45.858 17.378-54.247c-.756-8.386-9.841-17.918-29.528-11.819-19.686 6.102-17.25 29.301-17.25 29.301" transform="translate(59 48.5) matrix(-1 0 0 1 257.931 0)"/>
                <path fill="#F8CDBA" d="M114.93 237.863c-4.256-.748-9.77-.961-14.185-1.035.521 3.802 3.046 23.301 2.584 24.5-1.869 4.854-6.019 7.126-6.019 7.126s19.57 17.084 20.75 15.112c1.182-1.973-.871-1.71-2.15-8.219-.112-.578-2.943-9.665-3.118-14.565-.335-9.345 1.992-17.728 2.138-22.92" transform="translate(59 48.5) matrix(-1 0 0 1 215.724 0)"/>
                <path fill="#2745D8" d="M201.786 174.77c-2.645-1.41-9.509-1.462-17.057-.972-14.717.956-29.245 3.853-43.244 8.496l-9.367 3.105.03-9.613s-29.801-4.99-30.84 2.401c-1.56 11.133.378 33.736 10.306 38.78 30.843 15.67 74.063-24.963 74.221-19.647.209 7.139 6.222 33.707 7.761 45.338 4.275.075 11.62.072 14.808-.66.619-22.787.909-63.207-6.618-67.228" transform="translate(59 48.5) matrix(-1 0 0 1 309.517 0)"/>
                <path fill="#3C8F7C" d="M96.159 268.96l21.803 16.864c.863.555 1.58.075 1.622-.531.086-1.247-2.58-6.461-4.385-9.948-5.431-3.374-12.596-12.17-12.466-13.897-2.3 1.88-6.942 7.068-6.574 7.511" transform="translate(59 48.5) matrix(-1 0 0 1 215.724 0)"/>
                <path fill="#13375B" d="M239.103 81.376c-.714-6.56-1.47-13.145-6.89-17.954-4.39-3.891-9.969-4.55-15.487-2.469-15.633 5.9-7.58 19.823-27.512 33.86-6.195 4.363-13.02 7.348-17.684 13.222-6.529 8.222-4.063 18.111 1.885 24.714 28.466 31.592 60.244-11.074 62.527-21.316 1.696-7.619 3.622-25.833 3.161-30.057" transform="translate(59 48.5) matrix(-1 0 0 1 406.828 0)"/>
                <path fill="#FD9730" d="M204.508 118.479c-2.308-4.284-4.686-7.683-4.686-7.683-2.396-4.284-8.583-6.451-8.583-6.451s-2.07.042-4.447.16c-.147.396-.297.68-.449.794-.893.674-6.012-.197-9.317 2.062-11.082 9.559-8.016 55.891-7.146 70.524l33.751.322s-4.255-31.487 2.601-39.577c4.776-5.633 1.703-13.798-1.724-20.151" transform="translate(59 48.5) matrix(-1 0 0 1 377.517 0)"/>
                <path fill="#F8CDBA" d="M178.105 88.38s-1.93 13.2-3.277 16.407c-1.347 3.208 7.408 10.068 14.694 12.15 7.286 2.083-2.226-7.085-1.924-10.514.301-3.429 1.627-19.664 1.627-19.664l-11.12 1.621" transform="translate(59 48.5) matrix(-1 0 0 1 366.966 0)"/>
                <path fill="#D39D86" d="M188.39 91.505l.369-4.746-11.133 1.652s-.28 1.581-.592 3.816c4.515 2.554 8.571 1.748 11.356-.722" transform="translate(59 48.5) matrix(-1 0 0 1 365.793 0)"/>
                <path fill="#F8CDBA" d="M181.555 63.43s-4.33.955-7.004 4.946c-2.672 3.991-4.507 15.74 4.299 21.225 8.804 5.485 15.652-2.273 15.765-9.84.114-7.567-1.544-17.665-13.06-16.33" transform="translate(59 48.5) matrix(-1 0 0 1 366.966 0)"/>
                <path fill="#D39D86" d="M174.275 77.01c-.737 1.89-2.197 3.064-3.263 2.62-1.066-.443-1.332-2.335-.595-4.226.734-1.89 2.194-3.064 3.26-2.62 1.066.443 1.332 2.335.598 4.226" transform="translate(59 48.5) matrix(-1 0 0 1 344.69 0)"/>
                <path fill="#13375B" d="M199.31 63.312s-5.553 11.85-10.433 12.908c-4.88 1.059-4.808 7.021-4.808 7.021s.107-13.77 4.682-16.928c4.573-3.158 10.56-3.001 10.56-3.001" transform="translate(59 48.5) matrix(-1 0 0 1 383.38 0)"/>
                <path fill="#D39D86" d="M196.687 78.986c.688 1.9.058 3.769-1.407 4.176-1.465.408-3.21-.801-3.898-2.7-.688-1.899-.058-3.769 1.407-4.176 1.465-.408 3.21.801 3.898 2.7" transform="translate(59 48.5) matrix(-1 0 0 1 388.069 0)"/>
                <path fill="#F8CDBA" d="M198.226 167.29c-2.06-.73-5.125-.822-5.073-1.089.206-1.08 9.305 2.386 8.076.81-.686-.879-7.493-3.988-9.15-3.476-1.607.499-12.15 3.404-12.15 3.404l-28.82-6.63s-7.273-16.228-7.985-30.171c-6.012.798-10.106 2.257-15.33 5.104 2.518 13.334 8.644 34.947 15.417 39.003 2.846 1.705 36.86-2.043 36.86-2.043s7.496-.52 8.72-.982c.93-.351 3.322-1.673 4.622-2.036 2.959-.82 8.226 1.244 8.242.674.012-.414-1.325-1.82-3.43-2.568" transform="translate(59 48.5) matrix(-1 0 0 1 329.448 0)"/>
                <path fill="#E1882F" d="M203.21 114.415c-.27-4.28-1.878-8.413-6.396-9.744-2.8-.825-5.942-.036-8.18 1.807-2.662 2.192-3.406 5.708-3.393 9.036.028 7.556.54 15.39 1.91 22.83 5.077-2.84 11.005-4.549 16.849-5.345-.002-.045-.434-12.926-.79-18.584" transform="translate(59 48.5) matrix(-1 0 0 1 389.241 0)"/>
                <path fill="#F7CC7F" d="M312.633 121.903l-43.993-8.19c-.883-.165-1.466-1.014-1.302-1.898l5.511-29.589c.166-.883 1.014-1.466 1.9-1.302l43.99 8.19c.885.165 1.468 1.015 1.302 1.898l-5.511 29.59c-.164.883-1.015 1.466-1.897 1.301" transform="translate(59 48.5) matrix(-1 0 0 1 587.38 0)"/>
                <path fill="#F7CC7F" d="M307.91 87.902l-13.47-2.566c-.887-.17-1.473-1.044-1.309-1.953l.844-4.635c.167-.91 1.02-1.51 1.91-1.34l13.467 2.566c.89.17 1.474 1.044 1.31 1.954l-.844 4.635c-.165.909-1.02 1.509-1.908 1.34" transform="translate(59 48.5) matrix(-1 0 0 1 603.793 0)"/>
                <path fill="#FAE0B2" d="M312.734 121.897c-.23.824-1.044 1.335-1.876 1.178l-44.555-8.388c-.828-.157-1.405-.923-1.331-1.772l2.33-26.99c.043-.465.275-.891.641-1.174.369-.282.837-.395 1.292-.31l49.497 9.32c.452.085.849.359 1.09.754.243.395.31.875.185 1.323l-7.273 26.06" transform="translate(59 48.5) matrix(-1 0 0 1 585.034 0)"/>
                <path fill="#50BFA5" d="M78.552 23.777L70.835 25.793 69.172 16.843 71.697 16.414 72.868 22.717 77.876 21.409 78.552 23.777" transform="translate(59 48.5) matrix(-1 0 0 1 147.724 0)"/>
                <path fill="#355389" d="M301.31 150.086c1.9-.14 4.812.615 6.12 1.414.194.165 1.697.705 3.26 3.039l-.353.22c-1.646-1.557-2.754-1.906-4.076-2.264-2.175-.504-4.369-.127-4.547-.04l-.404-2.37" transform="translate(59 48.5) matrix(-1 0 0 1 612 0)"/>
                <path fill="#FF3A6D" d="M289.52 154.615s-11.486 1.943-10.415 11.04c1.07 9.097 13.187 16.172 24.002 10.547 14.546-7.567 8.8-26.81-1.555-28.297-10.352-1.488-12.033 6.71-12.033 6.71" transform="translate(59 48.5) matrix(-1 0 0 1 590.897 0)"/>
                <path fill="#FE84A3" d="M282.654 151.533s3.059-3.098 9.758-.28c6.702 2.817 7.187 15.96 1.211 15.198-5.978-.763-15.748-13.023-10.969-14.918" transform="translate(59 48.5) matrix(-1 0 0 1 579.172 0)"/>
                <path fill="#7708DD" d="M275.907 30.715l-47.487 17.18c-1.53.554-3.214-.256-3.76-1.808l-8.764-24.92c-.546-1.552.253-3.26 1.783-3.813L265.166.174c1.53-.553 3.214.256 3.76 1.808l8.764 24.92c.546 1.552-.25 3.26-1.783 3.813" opacity=".504" transform="translate(59 48.5) matrix(-1 0 0 1 493.586 0)"/>
                <path fill="#FFF" d="M266.763 23.815c1.74 4.878-.803 10.242-5.682 11.982-4.877 1.74-10.24-.804-11.982-5.681-1.74-4.878.805-10.242 5.682-11.982 4.877-1.74 10.242.803 11.982 5.681" transform="translate(59 48.5) matrix(-1 0 0 1 515.862 0)"/>
                <path fill="#BA82ED" d="M261.277 23.05c.545 1.524-.252 3.2-1.775 3.744-1.526.544-3.2-.25-3.745-1.775-.543-1.524.252-3.2 1.777-3.744 1.523-.544 3.2.25 3.743 1.775" transform="translate(59 48.5) matrix(-1 0 0 1 517.034 0)"/>
                <path fill="#BA82ED" d="M260.276 31.137L251.453 34l-.354-.9c-.643-1.644.298-3.451 2.106-4.037l2.28-.74c1.807-.587 3.793.27 4.439 1.913l.352.901" transform="translate(59 48.5) matrix(-1 0 0 1 511.172 0)"/>
                <path fill="#FFF" d="M226.318 18.759c-.51 0-.97-.307-1.144-.763-.225-.596.106-1.254.736-1.467l21.019-7.083c.131-.044.27-.067.408-.067.513 0 .973.307 1.144.763.225.596-.103 1.254-.736 1.467l-21.017 7.083c-.133.044-.27.067-.41.067" transform="translate(59 48.5) matrix(-1 0 0 1 473.655 0)"/>
                <path fill="#FFF" d="M225.142 24.62c-.51 0-.968-.32-1.14-.799-.225-.625.104-1.314.734-1.538l16.337-5.8c.13-.046.268-.07.406-.07.511 0 .968.322 1.139.8.11.303.093.63-.045.92-.14.29-.382.51-.688.618l-16.337 5.8c-.13.046-.268.07-.406.07" transform="translate(59 48.5) matrix(-1 0 0 1 466.62 0)"/>
                <path fill="#FF3A6D" d="M264.966 216.897H149.524c-3.585 0-6.49 2.956-6.49 6.603v5.552c0 3.647 2.905 6.603 6.49 6.603h115.442l-.061-.064c-4.937-5.228-4.912-13.497.06-18.694" transform="translate(59 48.5) matrix(-1 0 0 1 408 0)"/>
                <path fill="#FAE0B2" d="M213.38 219.241h-61.528c-3.575 0-6.473 2.888-6.473 6.449 0 3.56 2.898 6.448 6.473 6.448h61.525c-2.261-3.994-2.259-8.907.002-12.897" transform="translate(59 48.5) matrix(-1 0 0 1 358.759 0)"/>
                <path fill="#FAE0B2" d="M21.802 217.89l-8.752-21.886c-.44-1.101.098-2.349 1.203-2.788l31.492-12.511c1.105-.44 2.357.098 2.798 1.199l8.751 21.885c.441 1.101-.097 2.349-1.202 2.788L24.6 219.088c-1.105.44-2.357-.097-2.798-1.199" transform="translate(59 48.5) matrix(-1 0 0 1 70.345 0)"/>
                <path fill="#2AA4BF" d="M25.738 204.78l-8.107-19.86c-.13-.319.03-.68.356-.807.327-.127.697.028.829.347l8.104 19.86c.13.32-.029.681-.355.808-.327.127-.697-.028-.827-.347" transform="translate(59 48.5) matrix(-1 0 0 1 44.552 0)"/>
                <path fill="#2AA4BF" d="M28.037 202.433l-6.887-16.337c-.134-.32.03-.682.368-.81.339-.129.722.029.856.349l6.89 16.337c.134.32-.03.682-.369.811-.338.127-.72-.028-.858-.35" transform="translate(59 48.5) matrix(-1 0 0 1 50.414 0)"/>
                <path fill="#2AA4BF" d="M30.428 207.126l-8.107-19.86c-.13-.319.029-.68.356-.807.326-.13.699.028.829.347l8.104 19.86c.13.319-.029.68-.356.807-.326.127-.696-.028-.826-.347" transform="translate(59 48.5) matrix(-1 0 0 1 53.931 0)"/>
                <path fill="#2AA4BF" d="M32.853 203.612l-5.845-15.182c-.121-.316.027-.674.332-.799.305-.128.651.028.772.344l5.846 15.182c.12.316-.027.674-.333.8-.305.125-.65-.029-.772-.345" transform="translate(59 48.5) matrix(-1 0 0 1 60.966 0)"/>
                <path fill="#355389" d="M22.256 183.528l-.152-.431c-.055-.16-.206-.241-.338-.18l-2.85 1.296c-.13.058-.193.238-.137.396l.151.433c.056.158.207.239.338.18l2.85-1.296c.13-.06.193-.238.138-.398" transform="translate(59 48.5) matrix(-1 0 0 1 41.034 0)"/>
                <path fill="#355389" d="M22.256 184.7l-.152-.43c-.055-.16-.206-.242-.34-.18l-2.85 1.295c-.13.059-.19.236-.135.396l.151.434c.056.157.207.238.338.18l2.85-1.296c.13-.061.193-.239.138-.399" transform="translate(59 48.5) matrix(-1 0 0 1 41.034 0)"/>
                <path fill="#355389" d="M21.083 185.873l-.151-.431c-.056-.16-.207-.241-.338-.18l-2.85 1.296c-.13.058-.193.236-.137.395l.15.434c.056.157.207.239.339.18l2.851-1.298c.13-.059.192-.236.136-.396" transform="translate(59 48.5) matrix(-1 0 0 1 38.69 0)"/>
                <path fill="#355389" d="M21.083 188.218l-.151-.431c-.056-.16-.207-.241-.338-.18l-2.85 1.296c-.13.059-.193.236-.137.396l.15.434c.056.157.207.239.339.178l2.85-1.297c.13-.058.193-.236.137-.396" transform="translate(59 48.5) matrix(-1 0 0 1 38.69 0)"/>
                <path fill="#355389" d="M19.91 189.39l-.15-.43c-.056-.16-.208-.242-.339-.181l-2.85 1.297c-.131.058-.191.236-.138.396l.151.431c.056.16.21.241.34.18l2.85-1.297c.132-.058.192-.236.136-.396" transform="translate(59 48.5) matrix(-1 0 0 1 36.345 0)"/>
                <path fill="#355389" d="M18.738 191.735l-.15-.431c-.056-.16-.208-.241-.339-.18l-2.85 1.297c-.13.058-.193.236-.137.395l.15.432c.056.16.208.24.339.18l2.85-1.297c.13-.058.193-.236.137-.396" transform="translate(59 48.5) matrix(-1 0 0 1 34 0)"/>
                <path fill="#355389" d="M18.738 192.908l-.151-.432c-.056-.16-.207-.24-.338-.18l-2.851 1.297c-.131.058-.192.236-.136.396l.151.431c.056.16.207.241.338.18l2.851-1.296c.131-.059.192-.236.136-.396" transform="translate(59 48.5) matrix(-1 0 0 1 34 0)"/>
                <path fill="#355389" d="M17.566 195.253l-.151-.432c-.056-.16-.207-.241-.338-.18l-2.85 1.297c-.131.058-.193.236-.138.396l.151.431c.056.16.207.241.338.18l2.85-1.297c.131-.058.193-.236.138-.395" transform="translate(59 48.5) matrix(-1 0 0 1 31.655 0)"/>
                <path fill="#355389" d="M17.565 196.425l-.15-.431c-.056-.16-.208-.242-.339-.18l-2.85 1.296c-.132.059-.192.236-.136.396l.15.431c.056.16.208.242.339.18l2.85-1.296c.132-.059.192-.236.136-.396" transform="translate(59 48.5) matrix(-1 0 0 1 31.655 0)"/>
                <path fill="#355389" d="M16.393 198.77l-.15-.432c-.056-.16-.207-.24-.339-.18l-2.85 1.297c-.13.058-.193.236-.137.396l.151.431c.056.16.207.241.338.18l2.85-1.296c.13-.059.193-.236.137-.396" transform="translate(59 48.5) matrix(-1 0 0 1 29.31 0)"/>
                <path fill="#355389" d="M16.393 199.942l-.151-.434c-.054-.157-.205-.238-.338-.177l-2.851 1.296c-.131.059-.191.236-.136.396l.151.432c.056.16.207.24.339.18l2.85-1.297c.132-.058.192-.236.136-.396" transform="translate(59 48.5) matrix(-1 0 0 1 29.31 0)"/>
                <path fill="#355389" d="M15.221 201.116l-.151-.434c-.056-.157-.207-.239-.338-.18l-2.85 1.298c-.13.059-.193.236-.138.396l.152.431c.055.16.206.241.338.18l2.85-1.296c.13-.06.193-.236.137-.395" transform="translate(59 48.5) matrix(-1 0 0 1 26.966 0)"/>
                <path fill="#B75742" d="M13.499 200.688L1.329 218.16c-.026.039-.05.082-.063.128l-1.241 3.838c-.143.446.367.817.74.533l3.257-2.476c.04-.03.075-.066.104-.108l12.2-17.517c.158-.225.096-.534-.133-.68l-2.047-1.32c-.216-.138-.5-.08-.647.13" transform="translate(59 48.5) matrix(-1 0 0 1 16.414 0)"/>
                <path fill="#F7CC7F" d="M17.586 220.054l-.034.048-3.66 2.657-.995-.644 1.368-4.046c1.07.565 2.354 1.145 3.321 1.985" transform="translate(59 48.5) matrix(-1 0 0 1 30.483 0)"/>
                <path fill="#2AA4BF" d="M110.507 8.207c1.786 1.428 4.893 6.024 8.854 9.25 2.319 1.887 4.105 1.407 7.064 1.766 14.04 1.7 10.235 4.577 11.92 4.86-.48 1.102-4.854 10.42-5.67 12.304-.755 1.737-2.058 2.515-3.946 2.253-2.903-.402-5.832-.701-8.692-1.323-7.327-1.592-11.404-5.265-16.656-9.726-1.393-1.183-1.735-2.66-1.013-4.332 3.361-7.784 7.776-14.336 8.14-15.052" transform="translate(59 48.5) matrix(-1 0 0 1 240.345 0)"/>
                <path fill="#86B1F2" d="M134.201 35.282c-.062 3.114.17 3.74-1.139 3.267-.788-.285-1.551-.655-2.296-1.048-.523-.277-.544-.642-.117-1.08.62-.637 1.258-1.257 1.878-1.876-.454-1.221.067-2.643 1.185-3.311.229-.137.063.153 2.01-4.428-6.443-.812-10.989-1.357-18.848-2.344-2.1-.265-3.97-1.1-5.595-2.488-5.616-4.8-11.23-9.598-16.839-14.402-.76-.652-.857-1.607-.253-2.342.463-.562 1.074-.589 1.733-.505 1.794.23 19.382 2.462 21.168 2.676 2.347.28 4.413 1.183 6.227 2.735 5.515 4.718 11.045 9.42 16.567 14.13.758.646.963 1.239.696 1.958-.293.79-.931 1.166-1.895.953-.699-.153-1.005.061-1.245.72-1.084 2.98-1.84 3.639-1.58 4.727.204.84-.774 2.293-1.657 2.658" transform="translate(59 48.5) matrix(-1 0 0 1 234.483 0)"/>
                <path fill="#2AA4BF" d="M38.69 243.755l3.22 3.06c7.62 7.24 13.834 15.815 18.329 25.297l.493 1.04s8.436.744 9.613-6.853c-7.4-8.322-13.491-17.209-18.519-27.092l-1.524-3.552-11.612 8.1" transform="translate(59 48.5) matrix(-1 0 0 1 109.034 0)"/>
                <path fill="#86B1F2" d="M70.296 235.794c.415.58-1.848 2.82-5.056 5.001-3.207 2.184-6.158 3.51-6.57 2.931-.416-.58 1.863-2.847 5.07-5.029 3.206-2.183 6.143-3.485 6.556-2.903" transform="translate(59 48.5) matrix(-1 0 0 1 128.966 0)"/>
                <path fill="#355389" d="M67.964 235.667l-.01-.012s-6.61 5.384-9.333 5.933l.841 1.102c.995-.517 2.125-1.19 3.286-1.972 3.263-2.187 5.573-4.432 5.216-5.051" transform="translate(59 48.5) matrix(-1 0 0 1 126.62 0)"/>
                <path fill="#B75742" d="M55.88 252.069c.01.904-.327 4.813-6.639 6.443.416.582.824 1.17 1.224 1.764 3.995-1.218 5.792-3.329 6.6-4.939.127-.253.281-.595.383-.86-.532-.796-1.056-1.598-1.569-2.408" transform="translate(59 48.5) matrix(-1 0 0 1 106.69 0)"/>
                <path fill="#B75742" d="M66.403 257.125L56.276 256.759 58.676 258.818 57.243 261.448 66.828 258.979 66.403 257.125" transform="translate(59 48.5) matrix(-1 0 0 1 123.103 0)"/>
                <path fill="#B75742" d="M58.35 259.103L55.103 265.146 57.387 264.219 58.266 266.138 59.793 259.782 58.35 259.103" transform="translate(59 48.5) matrix(-1 0 0 1 114.897 0)"/>
                <path fill="#F47458" d="M54.73 261.44c-1.613.133-3.018-1.331-3.136-3.268-.118-1.938 1.095-3.617 2.71-3.75 1.613-.133 3.018 1.331 3.136 3.268.119 1.938-1.094 3.617-2.71 3.75" transform="translate(59 48.5) matrix(-1 0 0 1 109.034 0)"/>
                <path fill="#9BC1F9" d="M33.462 121.368L12.477 102.63c-1.364-1.218-.798-3.724 1.084-4.79l16.748-9.49c1.073-.607 2.28-.55 3.057.144l20.985 18.738c1.364 1.218.797 3.724-1.084 4.79l-16.749 9.49c-1.072.607-2.28.55-3.056-.144" transform="translate(59 48.5) matrix(-1 0 0 1 66.828 0)"/>
                <path fill="#FFF" d="M18.148 106.063l-1.727-14.42c-.067-.552.33-1.142.884-1.317.555-.176 1.06.13 1.126.682l1.589 13.268 15.715 3.857c.51.125.748.686.527 1.252-.221.566-.817.923-1.33.797l-16.784-4.12" transform="translate(59 48.5) matrix(-1 0 0 1 52.759 0)"/>
                <path fill="#F7CC7F" d="M287.468 41.034L289.66 45.225 294.616 45.071 296.731 49.937 301.956 48.2 304.599 53.601 309.613 52.575 313.034 57.37 311.155 58.621 308.597 55.036 303.304 56.119 300.765 50.927 295.453 52.693 293.119 47.323 288.281 47.474 286.246 43.59 283.092 44.331 282.552 42.189 287.468 41.034" transform="translate(59 48.5) matrix(-1 0 0 1 595.586 0)"/>
                <path fill="#50BFA5" d="M19.293 150.699L23.731 152.456 27.31 149.214 32.143 151.528 34.862 146.93 40.446 149.312 43.485 145.379 49.241 146.815 48.684 148.936 44.38 147.865 41.173 152.015 35.805 149.726 33.04 154.401 27.707 151.847 24.212 155.012 20.099 153.384 18.25 155.931 16.414 154.666 19.293 150.699" transform="translate(59 48.5) matrix(-1 0 0 1 65.655 0)"/>
            </g>
        </g>
    </g>
</svg>
