<svg width="542" height="406" viewBox="0 0 542 406" fill="none" xmlns="http://www.w3.org/2000/svg">
<path d="M327.769 237.008H226.168V349.5H327.769V237.008Z" fill="#D6D7D8"/>
<path d="M390.733 345.852H163.203V354.573H390.733V345.852Z" fill="#428DFC"/>
<path d="M496.269 21.9922H49.7969V309.63H496.269V21.9922Z" fill="url(#paint0_linear)"/>
<path d="M488.398 29.1641H57.667V266.049H488.398V29.1641Z" fill="white"/>
<path d="M463.419 300.057C470.448 300.057 476.145 294.388 476.145 287.394C476.145 280.4 470.448 274.73 463.419 274.73C456.391 274.73 450.693 280.4 450.693 287.394C450.693 294.388 456.391 300.057 463.419 300.057Z" fill="#EEEEEE"/>
<path d="M210.299 160.217H179.601C164.464 160.217 152.148 147.778 152.148 132.487V116.986C152.15 93.1493 171.349 73.7559 194.951 73.7559C218.552 73.7559 237.753 93.1493 237.753 116.986V132.487C237.753 147.778 225.436 160.217 210.299 160.217ZM194.951 85.1398C177.565 85.1398 163.421 99.4251 163.421 116.986V132.487C163.421 141.5 170.681 148.833 179.603 148.833H210.299C219.222 148.833 226.482 141.5 226.482 132.487V116.986C226.482 99.4251 212.337 85.1398 194.951 85.1398Z" fill="#A1C3FC"/>
<path d="M218.942 238.862H170.96C152.124 238.862 136.855 223.44 136.855 204.416V155.954C136.855 136.93 152.124 121.508 170.96 121.508H218.941C237.776 121.508 253.045 136.93 253.045 155.954V204.416C253.047 223.44 237.778 238.862 218.942 238.862Z" fill="url(#paint1_linear)"/>
<path d="M212.103 227.588H168.755C151.893 227.588 138.225 213.783 138.225 196.752V153.77C138.225 136.739 151.893 122.934 168.755 122.934H212.103C228.964 122.934 242.633 136.739 242.633 153.77V196.752C242.633 213.783 228.964 227.588 212.103 227.588Z" fill="#A1C3FC"/>
<path d="M194.951 203.364C189.417 203.364 184.89 198.79 184.89 193.201V158.124C184.89 152.534 189.417 147.961 194.951 147.961C200.486 147.961 205.013 152.534 205.013 158.124V193.201C205.013 198.79 200.486 203.364 194.951 203.364Z" fill="#23286B"/>
<path d="M281.561 177.557V205.604H267.658V177.557H281.561Z" fill="#D6D7D8"/>
<path d="M254.218 177.557V205.604H240.315V177.557H254.218Z" fill="#D6D7D8"/>
<path d="M218.664 168.572V180.589C218.664 187.739 224.41 193.535 231.499 193.535H315.568V155.626H231.499C224.41 155.626 218.664 161.422 218.664 168.572Z" fill="#D6D7D8"/>
<path d="M316.319 167.739V181.762H236.607V167.739H316.319Z" fill="#C3B6BA"/>
<path d="M403.621 152.855V196.306C403.621 213.365 389.913 227.191 373 227.191H329.923C313.012 227.191 299.302 213.365 299.302 196.306V152.855C299.302 135.799 313.01 121.97 329.923 121.97H373C389.913 121.97 403.621 135.799 403.621 152.855ZM354.855 157.285V191.876H389.149V157.285H354.855V157.285Z" fill="#D6D7D8"/>
<path d="M84.0901 369.541L75.8792 392.464L133.845 392.466C133.845 392.466 130.873 386.729 120.964 382.479C111.056 378.229 103.008 369.539 103.008 369.539L84.0901 369.541Z" fill="url(#paint2_linear)"/>
<path d="M127.985 369.541L119.774 392.463L177.74 392.466C177.74 392.466 174.768 386.728 164.86 382.478C154.952 378.228 145.704 369.541 145.704 369.541H127.985Z" fill="#428DFC"/>
<path d="M112.438 207.852C112.438 207.852 110.116 213.221 114.481 235.942C113.451 247.871 111.106 259.649 107.49 271.063C101.669 288.831 72.0308 340.457 84.0914 369.541L103.009 369.539C103.009 369.539 128.446 304.271 132.521 286.502C136.596 268.733 146.005 216.253 150.96 206.92L112.438 207.852Z" fill="url(#paint3_linear)"/>
<path d="M113.893 205.23C113.893 205.23 107.198 217.174 117.386 244.846C127.574 272.519 127.864 280.967 127.282 288.541C126.701 296.114 121.17 304.853 122.916 320.875C124.663 336.897 119.675 339.021 120.839 351.838C122.004 364.654 127.986 369.541 127.986 369.541H145.705C145.705 369.541 157.846 303.396 158.719 283.005C159.592 262.614 143.865 226.591 144.457 206.686L113.893 205.23Z" fill="#23286B"/>
<path opacity="0.86" d="M118.477 231.942C118.565 231.864 118.702 231.873 118.781 231.962C118.781 231.963 118.781 231.963 118.782 231.963C118.863 232.055 118.855 232.195 118.763 232.277C118.671 232.358 118.531 232.349 118.45 232.258C118.45 232.257 118.45 232.257 118.449 232.256C118.373 232.161 118.385 232.023 118.477 231.942ZM130.65 248.903C130.772 248.912 130.864 249.015 130.858 249.137C130.852 249.254 130.752 249.343 130.635 249.338C130.631 249.338 130.628 249.337 130.624 249.337C130.502 249.328 130.41 249.224 130.416 249.103C130.426 248.982 130.53 248.893 130.65 248.903ZM131.028 243.581C131.149 243.592 131.238 243.697 131.228 243.817C131.221 243.938 131.115 244.031 130.994 244.024C130.873 244.017 130.78 243.911 130.787 243.79C130.801 243.668 130.906 243.577 131.028 243.581ZM117.191 224.6C117.3 224.56 117.422 224.617 117.461 224.727C117.462 224.73 117.463 224.733 117.464 224.737C117.505 224.85 117.449 224.974 117.337 225.015C117.224 225.056 117.1 224.999 117.059 224.888C117.058 224.884 117.056 224.878 117.055 224.873C117.016 224.764 117.072 224.642 117.182 224.603C117.185 224.602 117.188 224.601 117.191 224.6ZM120.192 243.595C120.244 243.482 120.377 243.434 120.49 243.487C120.603 243.538 120.65 243.672 120.598 243.784C120.546 243.897 120.412 243.945 120.3 243.892C120.299 243.892 120.297 243.891 120.296 243.891C120.187 243.836 120.141 243.706 120.192 243.595ZM122.569 238.824C122.621 238.711 122.755 238.664 122.868 238.716C122.98 238.768 123.029 238.902 122.975 239.014C122.922 239.127 122.79 239.175 122.677 239.122C122.676 239.122 122.675 239.121 122.673 239.121C122.565 239.066 122.519 238.935 122.569 238.824ZM113.39 222.636C113.494 222.612 113.599 222.674 113.625 222.779C113.649 222.883 113.586 222.988 113.482 223.014C113.378 223.038 113.273 222.976 113.247 222.871C113.221 222.766 113.284 222.661 113.39 222.636ZM115.625 241.163C115.682 241.072 115.802 241.043 115.894 241.1C115.986 241.157 116.015 241.278 115.957 241.37C115.956 241.371 115.956 241.371 115.956 241.372C115.898 241.463 115.777 241.489 115.686 241.431C115.596 241.374 115.569 241.254 115.625 241.163ZM118.144 237.129C118.202 237.038 118.323 237.01 118.415 237.067C118.506 237.125 118.533 237.246 118.476 237.338C118.419 237.429 118.297 237.456 118.206 237.399C118.116 237.345 118.085 237.227 118.14 237.137C118.141 237.134 118.143 237.132 118.144 237.129ZM120.663 233.089C120.679 233.054 120.706 233.028 120.741 233.015L120.749 233.014C120.809 232.987 120.879 232.993 120.933 233.028C121.028 233.086 121.056 233.21 120.997 233.304C120.997 233.305 120.997 233.305 120.996 233.306C120.938 233.396 120.817 233.423 120.726 233.367C120.683 233.343 120.654 233.3 120.646 233.251C120.623 233.197 120.63 233.136 120.663 233.089ZM135.48 244.374C135.585 244.349 135.69 244.415 135.714 244.521C135.714 244.522 135.715 244.523 135.715 244.524C135.742 244.624 135.682 244.729 135.581 244.756C135.579 244.757 135.576 244.757 135.573 244.758C135.466 244.78 135.359 244.715 135.33 244.608C135.31 244.503 135.375 244.401 135.48 244.374ZM113.74 229.774C113.827 229.71 113.95 229.729 114.013 229.818C114.014 229.819 114.015 229.822 114.017 229.824C114.081 229.905 114.065 230.022 113.985 230.085C113.982 230.087 113.978 230.089 113.975 230.092C113.89 230.158 113.769 230.142 113.704 230.058C113.702 230.056 113.701 230.054 113.699 230.051C113.636 229.961 113.654 229.84 113.74 229.774ZM117.611 227.009C117.703 226.951 117.823 226.972 117.889 227.058C117.951 227.148 117.929 227.272 117.84 227.335C117.747 227.395 117.623 227.369 117.565 227.277C117.508 227.188 117.529 227.071 117.611 227.009ZM125.369 242.272C125.474 242.296 125.544 242.397 125.527 242.505C125.509 242.611 125.409 242.682 125.303 242.664C125.196 242.646 125.122 242.547 125.137 242.44C125.156 242.331 125.259 242.256 125.369 242.272ZM126.151 237.581C126.256 237.604 126.326 237.705 126.309 237.813C126.291 237.919 126.191 237.99 126.085 237.972C125.982 237.957 125.911 237.863 125.925 237.758C125.925 237.754 125.926 237.751 125.927 237.746C125.944 237.64 126.043 237.566 126.151 237.581ZM142.974 238.362C143.063 238.299 143.184 238.317 143.25 238.403C143.314 238.49 143.295 238.613 143.207 238.676C143.205 238.677 143.203 238.678 143.201 238.68C143.12 238.744 143.002 238.729 142.94 238.648C142.938 238.645 142.936 238.641 142.933 238.638C142.868 238.553 142.883 238.432 142.967 238.367C142.968 238.366 142.972 238.364 142.974 238.362ZM115.989 229.478C116.033 229.43 116.107 229.427 116.155 229.47C116.203 229.515 116.206 229.589 116.162 229.636C116.118 229.684 116.044 229.687 115.996 229.643C115.95 229.599 115.947 229.527 115.989 229.478ZM117.9 227.43C117.944 227.383 118.019 227.38 118.066 227.423C118.113 227.467 118.116 227.541 118.073 227.589C118.029 227.637 117.955 227.64 117.907 227.596C117.862 227.552 117.859 227.479 117.9 227.43ZM113.784 223.767C113.84 223.74 113.907 223.766 113.933 223.822C113.934 223.823 113.935 223.824 113.935 223.826C113.96 223.886 113.935 223.955 113.877 223.985C113.82 224.007 113.753 223.982 113.726 223.926C113.702 223.866 113.727 223.797 113.784 223.767ZM121.503 231.229C121.521 231.171 121.583 231.139 121.642 231.157C121.645 231.158 121.648 231.16 121.652 231.161C121.711 231.181 121.744 231.246 121.723 231.305C121.722 231.306 121.722 231.309 121.721 231.311C121.695 231.367 121.632 231.397 121.571 231.379C121.512 231.355 121.482 231.289 121.503 231.229ZM113.954 232.243C113.99 232.182 114.068 232.164 114.127 232.2C114.128 232.2 114.129 232.201 114.13 232.201C114.193 232.237 114.213 232.317 114.177 232.378C114.176 232.38 114.174 232.384 114.173 232.387C114.136 232.447 114.058 232.466 113.999 232.43C113.998 232.429 113.997 232.429 113.996 232.428C113.934 232.388 113.916 232.305 113.954 232.243ZM115.68 229.544C115.717 229.484 115.795 229.466 115.854 229.501C115.855 229.502 115.856 229.503 115.857 229.503C115.919 229.543 115.937 229.627 115.897 229.689C115.857 229.75 115.775 229.769 115.713 229.729C115.653 229.691 115.635 229.612 115.674 229.552C115.676 229.55 115.678 229.547 115.68 229.544ZM117.398 226.847C117.437 226.785 117.52 226.765 117.583 226.804C117.645 226.844 117.665 226.927 117.626 226.989C117.626 226.99 117.625 226.99 117.625 226.991C117.626 226.998 117.619 227 117.611 227.008C117.567 227.055 117.496 227.064 117.44 227.032C117.378 226.992 117.36 226.911 117.398 226.847ZM113.004 224.511C113.064 224.468 113.146 224.482 113.191 224.541C113.234 224.601 113.219 224.684 113.159 224.726C113.157 224.727 113.156 224.728 113.154 224.73C113.096 224.77 113.017 224.757 112.975 224.699C112.932 224.638 112.945 224.556 113.004 224.511ZM120.588 233.122C120.599 233.052 120.665 233.003 120.736 233.014C120.737 233.014 120.739 233.014 120.74 233.014L120.748 233.013C120.816 233.03 120.861 233.097 120.849 233.166C120.838 233.237 120.772 233.286 120.701 233.275C120.7 233.275 120.698 233.274 120.697 233.274C120.678 233.27 120.661 233.261 120.646 233.25C120.602 233.224 120.579 233.173 120.588 233.122ZM121.305 229.856C121.377 229.874 121.424 229.942 121.415 230.016C121.396 230.086 121.326 230.131 121.254 230.118C121.184 230.104 121.139 230.035 121.153 229.966C121.153 229.966 121.153 229.965 121.153 229.964C121.165 229.892 121.233 229.845 121.305 229.856ZM113.71 221.342C113.813 221.271 113.953 221.293 114.028 221.394C114.1 221.496 114.077 221.638 113.974 221.711C113.873 221.783 113.733 221.76 113.659 221.66C113.589 221.557 113.612 221.417 113.71 221.342ZM115.85 246.297C115.974 246.316 116.061 246.431 116.044 246.556C116.024 246.68 115.907 246.763 115.784 246.743C115.661 246.723 115.575 246.608 115.59 246.484C115.61 246.361 115.727 246.277 115.85 246.297ZM116.706 240.87C116.829 240.89 116.913 241.007 116.893 241.13C116.873 241.254 116.756 241.338 116.633 241.317C116.51 241.297 116.426 241.18 116.446 241.057C116.466 240.935 116.582 240.85 116.706 240.87ZM117.554 235.444C117.677 235.46 117.765 235.573 117.75 235.696C117.735 235.82 117.622 235.907 117.499 235.893C117.496 235.893 117.492 235.893 117.489 235.892C117.364 235.873 117.278 235.758 117.294 235.632C117.315 235.508 117.43 235.425 117.554 235.444ZM118.409 230.018C118.531 230.036 118.615 230.151 118.597 230.273C118.597 230.274 118.596 230.276 118.596 230.277C118.577 230.401 118.46 230.485 118.337 230.465C118.214 230.445 118.13 230.329 118.149 230.206C118.149 230.205 118.149 230.204 118.149 230.204C118.168 230.081 118.283 229.997 118.405 230.016C118.407 230.017 118.408 230.017 118.409 230.018ZM138.459 240.961C138.534 241.058 138.517 241.198 138.42 241.273C138.419 241.275 138.417 241.276 138.416 241.276C138.312 241.348 138.168 241.327 138.091 241.226L138.459 240.961ZM114.269 226.008C114.334 225.9 114.472 225.865 114.58 225.93C114.581 225.93 114.582 225.931 114.584 225.932C114.69 226 114.723 226.14 114.659 226.248C114.59 226.355 114.448 226.385 114.341 226.316C114.24 226.249 114.208 226.113 114.269 226.008ZM126.55 243.399C126.669 243.37 126.79 243.444 126.819 243.564C126.819 243.565 126.819 243.567 126.82 243.568C126.85 243.689 126.779 243.811 126.659 243.845C126.537 243.869 126.417 243.796 126.382 243.677C126.351 243.553 126.426 243.429 126.55 243.399ZM125.263 238.061C125.379 238.03 125.499 238.1 125.53 238.217C125.531 238.221 125.533 238.226 125.533 238.232C125.563 238.35 125.49 238.471 125.372 238.501C125.249 238.531 125.124 238.456 125.095 238.333V238.332C125.064 238.216 125.133 238.097 125.249 238.065C125.254 238.063 125.258 238.062 125.263 238.061ZM112.703 222.564C112.767 222.464 112.901 222.433 113.002 222.498C113.006 222.501 113.009 222.502 113.013 222.505C113.116 222.573 113.146 222.711 113.08 222.814C113.009 222.918 112.87 222.948 112.763 222.882C112.659 222.813 112.63 222.672 112.7 222.568C112.701 222.567 112.702 222.566 112.703 222.564ZM123.232 245.171C123.356 245.145 123.477 245.225 123.503 245.348C123.529 245.471 123.449 245.593 123.327 245.619C123.203 245.644 123.083 245.565 123.056 245.442C123.03 245.318 123.109 245.197 123.232 245.171ZM122.172 239.803C122.297 239.784 122.416 239.864 122.444 239.988C122.463 240.108 122.385 240.224 122.265 240.252C122.141 240.278 122.02 240.198 121.994 240.075C121.973 239.951 122.05 239.831 122.172 239.803ZM121.121 234.441C121.243 234.417 121.36 234.496 121.385 234.617C121.409 234.739 121.329 234.857 121.208 234.882C121.208 234.882 121.207 234.882 121.207 234.882C121.083 234.908 120.962 234.828 120.936 234.705C120.916 234.582 120.997 234.466 121.121 234.441ZM120.06 229.074C120.18 229.049 120.298 229.127 120.322 229.247C120.322 229.248 120.322 229.25 120.323 229.251C120.345 229.373 120.266 229.491 120.144 229.516C120.027 229.543 119.91 229.469 119.884 229.351C119.882 229.347 119.882 229.342 119.881 229.337C119.857 229.217 119.934 229.099 120.054 229.075C120.056 229.074 120.058 229.074 120.06 229.074ZM114.094 231.475C114.217 231.503 114.296 231.621 114.275 231.745C114.252 231.867 114.134 231.948 114.011 231.923C113.889 231.901 113.808 231.782 113.832 231.659C113.832 231.657 113.833 231.656 113.833 231.654C113.855 231.533 113.971 231.452 114.093 231.474C114.093 231.475 114.093 231.475 114.094 231.475ZM115.174 226.113C115.298 226.14 115.377 226.259 115.355 226.383C115.326 226.507 115.203 226.584 115.08 226.556C114.962 226.528 114.885 226.414 114.905 226.294C114.93 226.17 115.05 226.09 115.174 226.113ZM111.952 220.758C111.981 220.671 112.074 220.624 112.16 220.653C112.162 220.654 112.166 220.655 112.169 220.656C112.256 220.69 112.3 220.79 112.265 220.878C112.265 220.879 112.264 220.88 112.264 220.882C112.23 220.968 112.134 221.01 112.047 220.977C112.046 220.977 112.046 220.976 112.045 220.976C111.961 220.946 111.917 220.853 111.948 220.768C111.95 220.765 111.951 220.762 111.952 220.758ZM123.262 235.776C123.342 235.736 123.44 235.767 123.482 235.848C123.484 235.853 123.486 235.859 123.489 235.863C123.526 235.95 123.487 236.051 123.401 236.089C123.314 236.126 123.213 236.087 123.175 236.001C123.137 235.915 123.176 235.814 123.262 235.776ZM121.639 231.982C121.723 231.944 121.824 231.98 121.863 232.065C121.864 232.067 121.865 232.07 121.865 232.07C121.903 232.157 121.865 232.258 121.778 232.298C121.691 232.336 121.59 232.297 121.551 232.21C121.513 232.122 121.552 232.021 121.639 231.982ZM120.018 228.188C120.105 228.149 120.205 228.188 120.245 228.275C120.284 228.362 120.244 228.463 120.157 228.503C120.07 228.541 119.969 228.502 119.93 228.415C119.893 228.328 119.932 228.228 120.018 228.188ZM114.554 231.284C114.644 231.283 114.719 231.356 114.72 231.446C114.72 231.448 114.72 231.45 114.72 231.452C114.722 231.546 114.648 231.624 114.555 231.626C114.554 231.626 114.554 231.626 114.554 231.626C114.458 231.623 114.382 231.547 114.379 231.452C114.38 231.358 114.458 231.283 114.552 231.284C114.551 231.284 114.552 231.284 114.554 231.284ZM114.499 227.153C114.594 227.156 114.67 227.233 114.673 227.328C114.675 227.417 114.604 227.492 114.515 227.494C114.512 227.494 114.509 227.494 114.506 227.494C114.416 227.499 114.338 227.43 114.332 227.34C114.332 227.335 114.332 227.332 114.332 227.327C114.33 227.233 114.404 227.155 114.497 227.153C114.498 227.153 114.499 227.153 114.499 227.153ZM114.453 223.03C114.545 223.03 114.62 223.105 114.62 223.197V223.197C114.624 223.288 114.556 223.366 114.465 223.371C114.461 223.371 114.456 223.371 114.453 223.371C114.359 223.373 114.281 223.3 114.279 223.206C114.279 223.205 114.279 223.205 114.279 223.205C114.282 223.11 114.359 223.033 114.453 223.03ZM113.47 226.381C113.52 226.37 113.572 226.402 113.583 226.453C113.594 226.504 113.563 226.555 113.511 226.566C113.509 226.567 113.507 226.568 113.504 226.568C113.452 226.574 113.405 226.538 113.397 226.487C113.39 226.438 113.421 226.392 113.47 226.381ZM113.083 224.159C113.133 224.15 113.18 224.183 113.189 224.232C113.189 224.235 113.189 224.236 113.19 224.239C113.202 224.284 113.175 224.331 113.13 224.343C113.126 224.344 113.121 224.344 113.117 224.344C113.069 224.354 113.021 224.323 113.012 224.274C113.012 224.273 113.012 224.272 113.012 224.272C113.003 224.221 113.034 224.173 113.083 224.159ZM112.697 221.944C112.745 221.934 112.793 221.965 112.802 222.014C112.802 222.015 112.802 222.015 112.802 222.017C112.813 222.067 112.782 222.117 112.731 222.131C112.681 222.14 112.634 222.106 112.625 222.057C112.625 222.055 112.625 222.053 112.625 222.05C112.615 222.002 112.646 221.955 112.695 221.945C112.695 221.944 112.696 221.944 112.697 221.944ZM116.08 229.911C116.147 229.866 116.236 229.885 116.28 229.951C116.282 229.954 116.284 229.958 116.287 229.961C116.333 230.024 116.319 230.112 116.256 230.158C116.252 230.161 116.247 230.164 116.244 230.167C116.173 230.214 116.078 230.196 116.031 230.124C115.984 230.056 116.003 229.962 116.071 229.917C116.075 229.914 116.078 229.912 116.08 229.911ZM114.093 226.748C114.166 226.704 114.261 226.726 114.307 226.798C114.354 226.867 114.335 226.961 114.267 227.006C114.264 227.008 114.261 227.01 114.257 227.011C114.191 227.056 114.102 227.037 114.057 226.971C114.056 226.968 114.053 226.964 114.051 226.96C114.003 226.893 114.019 226.8 114.086 226.753C114.088 226.752 114.09 226.75 114.093 226.748ZM112.113 223.592C112.186 223.548 112.281 223.57 112.327 223.643C112.373 223.713 112.354 223.808 112.283 223.853C112.281 223.854 112.28 223.855 112.278 223.856C112.204 223.9 112.109 223.876 112.066 223.803C112.021 223.73 112.044 223.638 112.113 223.592Z" fill="white"/>
<path d="M144.346 233.28C148.493 235.785 156.153 240.278 161.211 242.32C168.435 245.248 172.905 246.107 184.599 245.935C196.293 245.763 195.084 232.502 195.084 232.502C191.756 235.982 187.696 236.3 185.972 236.472C184.255 236.644 181.502 235.613 185.629 232.17C189.755 228.727 187.352 225.628 187.009 226.487C186.666 227.345 183.569 229.414 177.204 233.888C170.838 238.362 176.688 238.534 168.606 234.575C162.248 231.462 154.39 220.459 151.339 215.92L144.346 233.28Z" fill="url(#paint4_linear)"/>
<path d="M96.6204 214.844C100.219 215.597 103.618 216.205 106.815 216.667C124.802 219.311 136.78 217.83 144.519 215.379C147.576 214.46 150.488 213.114 153.168 211.381C154.714 210.437 156.083 209.232 157.216 207.819C153.016 199.711 150.283 189.759 148.5 180.362C146.56 169.932 145.441 159.367 145.152 148.761L144.129 149.257C143.279 149.459 142.407 149.548 141.533 149.521C138.831 149.427 136.256 148.34 134.303 146.469C129.34 149.183 124.782 152.58 120.76 156.559C118.369 158.872 116.155 161.361 114.137 164.007C104.925 176.094 106.589 181.016 101.538 188.173C101.525 188.187 101.519 188.207 101.505 188.22C96.4612 195.363 89.6013 204.092 96.6204 214.844Z" fill="url(#paint5_linear)"/>
<path d="M106.815 216.668C107.711 217.382 108.672 218.011 109.686 218.545C114.678 221.142 117.346 223.646 123.804 232.884C130.261 242.116 140.971 241.66 140.971 241.66L153.167 211.382L155.591 205.368C155.591 205.368 153.399 204.959 144.221 200.333C135.043 195.714 133.068 193.414 134.329 181.533C135.59 169.651 145.151 148.763 145.151 148.763L144.128 149.259C143.278 149.461 142.406 149.55 141.532 149.523C138.83 149.428 136.255 148.342 134.302 146.471C129.339 149.185 124.781 152.582 120.759 156.561C118.368 158.874 116.154 161.363 114.136 164.009C104.925 176.095 106.589 181.018 101.538 188.175C101.524 188.189 101.518 188.209 101.504 188.222C101.3 188.81 101.095 189.398 100.897 189.999C96.0775 204.324 101.855 212.722 106.815 216.668Z" fill="url(#paint6_linear)"/>
<path d="M137.706 139.193C137.96 140.542 138.308 141.871 138.749 143.171C139.498 145.371 140.448 147.497 141.588 149.522C142.443 149.544 143.298 149.455 144.13 149.258L145.134 148.776C145.141 148.773 145.147 148.768 145.153 148.762C145 145.577 145.048 142.384 145.299 139.206C144.896 139.26 144.493 139.299 144.09 139.319C141.964 139.497 139.823 139.455 137.706 139.193Z" fill="url(#paint7_linear)"/>
<path d="M137.706 139.195C141.681 139.723 149.849 139.624 152.411 135.943C155.474 131.536 154.398 127.34 155.25 126.963C156.101 126.593 157.732 125.357 157.422 124.412C157.118 123.473 153.765 121.65 152.206 118.379C152.06 118.075 151.915 117.784 151.757 117.507L151.75 117.5C151.72 117.43 151.684 117.361 151.645 117.295C151.628 117.262 151.608 117.231 151.585 117.203C151.578 117.193 151.571 117.182 151.566 117.169C151.539 117.13 151.513 117.083 151.487 117.037C151.282 116.713 150.971 116.237 150.555 115.702C150.364 115.451 150.146 115.18 149.902 114.903C149.632 114.586 149.318 114.268 148.985 113.95C148.961 113.928 148.938 113.904 148.913 113.882C148.83 113.803 148.754 113.725 148.668 113.647C148.516 113.509 148.358 113.376 148.192 113.244C148.067 113.138 147.934 113.039 147.803 112.947C147.744 112.9 147.677 112.854 147.611 112.808C147.493 112.722 147.367 112.636 147.242 112.557C147.217 112.537 147.19 112.519 147.162 112.504C147.162 112.51 147.169 112.518 147.169 112.531C147.261 112.811 147.33 113.098 147.373 113.389C147.393 113.482 147.407 113.588 147.42 113.694C147.466 114.088 147.476 114.487 147.453 114.883C147.453 114.95 147.447 115.016 147.44 115.088C147.433 115.154 147.426 115.227 147.42 115.299C147.406 115.445 147.386 115.597 147.361 115.749C147.361 115.768 147.354 115.782 147.354 115.802C147.322 116.026 147.277 116.249 147.222 116.469C147.208 116.555 147.183 116.634 147.163 116.72C147.162 116.725 147.16 116.73 147.156 116.734C147.117 116.899 147.064 117.071 147.004 117.243V117.256C146.977 117.342 146.945 117.428 146.912 117.514C146.777 117.905 146.618 118.286 146.437 118.658C146.378 118.79 146.304 118.922 146.232 119.061C146.199 119.127 146.166 119.186 146.127 119.252C146.093 119.319 146.061 119.391 146.021 119.457C146.001 119.494 145.98 119.529 145.955 119.563C145.902 119.668 145.836 119.767 145.77 119.873C145.704 119.979 145.638 120.084 145.566 120.19C145.499 120.296 145.433 120.402 145.355 120.508C145.163 120.785 144.952 121.063 144.727 121.347C144.602 121.505 144.47 121.664 144.338 121.829C143.819 122.434 143.268 123.009 142.687 123.553L142.311 123.91C141.148 124.991 140.123 126.212 139.26 127.545C139.148 127.763 139.036 127.988 138.917 128.219C138.597 128.851 138.328 129.508 138.111 130.182C137.219 133.104 137.081 136.204 137.706 139.195Z" fill="#FFBEB6"/>
<path d="M155.889 121.939C155.734 121.94 155.579 121.925 155.426 121.894C154.373 121.61 153.561 120.773 153.309 119.712C152.448 119.857 151.827 120.655 151.37 121.345C151.68 121.971 151.845 122.658 151.851 123.356C151.878 124.345 151.573 125.314 150.985 126.109C150.471 126.831 149.649 127.273 148.763 127.302C148.581 127.304 148.4 127.287 148.222 127.251C147.543 127.1 146.939 126.714 146.515 126.162C145.908 125.381 145.581 124.42 145.584 123.431C145.559 121.276 146.943 119.505 148.672 119.485C149.558 119.494 150.39 119.915 150.92 120.625C150.985 120.705 151.035 120.798 151.092 120.884C151.553 120.082 152.307 119.49 153.196 119.234C153.161 119.024 153.142 118.811 153.139 118.599C153.118 116.741 154.315 115.214 155.809 115.195H155.81C157.303 115.18 158.536 116.676 158.559 118.535C158.581 120.394 157.383 121.921 155.889 121.939ZM151.359 123.362C151.363 122.483 151.074 121.629 150.538 120.934C150.185 120.472 149.682 120.147 149.114 120.018C148.971 119.989 148.825 119.975 148.678 119.978C147.221 119.995 146.055 121.541 146.077 123.426C146.072 124.304 146.362 125.158 146.898 125.853C147.604 126.867 148.999 127.114 150.011 126.408C150.242 126.247 150.44 126.044 150.594 125.81C151.116 125.102 151.385 124.24 151.359 123.362ZM158.066 118.541C158.048 116.955 157.041 115.675 155.815 115.689C154.593 115.704 153.613 117.007 153.632 118.594C153.651 120.181 154.658 121.459 155.883 121.446C157.105 121.431 158.085 120.129 158.066 118.541Z" fill="url(#paint8_linear)"/>
<path d="M109.899 143.506C111.588 139.858 115.144 137.306 116.843 133.815C117.567 131.749 117.837 129.553 117.639 127.373C117.295 120.672 119.607 116.919 120.379 115.868C120.389 115.847 120.401 115.827 120.418 115.809C122.344 112.436 125.486 109.928 129.2 108.798C137.772 106.179 149.267 105.632 151.757 117.506C150.623 115.508 149.049 113.795 147.155 112.498C147.238 112.721 148.932 117.24 143.311 122.94C142.295 124.614 141.228 126.283 140.354 128.04C136.432 135.923 139.63 144.321 145.992 149.767C146.234 149.975 145.883 150.324 145.642 150.117C140.66 145.852 137.239 139.671 138.23 132.938C138.701 129.744 140.311 126.977 141.976 124.251C140.947 125.242 140.035 126.347 139.257 127.546C139.144 127.764 139.033 127.989 138.913 128.22C138.594 128.852 138.324 129.509 138.108 130.183C136.662 134.571 137.434 139.282 138.749 143.174C139.759 146.156 141.141 148.997 142.863 151.633C124.447 157.33 111.274 154.594 111.274 154.594C109.531 150.665 109.554 146.177 111.336 142.266C109.058 145.804 108.556 150.202 109.981 154.163C110.084 154.465 109.605 154.595 109.503 154.295C108.224 150.782 108.366 146.911 109.899 143.506Z" fill="#23286B"/>
<path d="M404.264 369.508L412.601 392.803L353.742 392.805C353.742 392.805 356.761 386.974 366.821 382.655C376.882 378.336 386.273 369.508 386.273 369.508L404.264 369.508Z" fill="url(#paint9_linear)"/>
<path d="M446.327 369.493L454.665 392.787L395.806 392.789C395.806 392.789 398.824 386.959 408.884 382.64C418.945 378.321 428.336 369.492 428.336 369.492L446.327 369.493Z" fill="#F7931E"/>
<path d="M429.405 204.871C428.701 207.163 427.614 209.32 426.19 211.248C424.004 214.14 420.927 216.226 417.435 217.185C417.435 217.185 417.435 217.338 413.572 218.131C408.274 219.019 407.662 219.173 407.662 219.173L397.274 218.603L392.215 238.558C389.707 250.18 385.359 264.41 385.133 278.453C384.813 298.524 386.271 369.535 386.271 369.535H404.261C419.006 354.836 417.607 343.339 418.697 320.046C419.789 296.759 423.341 304.244 422.243 282.065C421.152 259.887 421.703 264.324 428.797 232.715C430.962 223.582 431.168 214.091 429.405 204.871Z" fill="url(#paint10_linear)"/>
<path d="M446.953 337.217C444.68 324.474 440.443 327.088 441.295 317.224C442.133 307.367 440.162 300.989 436.474 290.56C432.806 280.125 425.029 281.758 436.347 247.273C440.936 233.513 441.407 218.711 437.702 204.687C436.929 204.861 436.097 205.034 435.216 205.205L435.247 204.621C435.247 204.621 433.686 205.112 431.245 205.891C430.503 206.004 429.734 206.114 428.933 206.22C428.87 206.382 428.805 206.536 428.74 206.692C418.887 209.857 401.408 215.594 402.287 216.188C403.508 217.015 399.164 246.681 399.164 246.681L399.163 246.681C397.923 259.268 397.44 273.073 398.56 285.054C399.975 300.125 428.336 369.519 428.336 369.519H446.331C446.33 369.518 449.212 349.974 446.953 337.217Z" fill="#23286B"/>
<path opacity="0.86" d="M433.838 216.219C433.775 216.194 433.704 216.224 433.679 216.288C433.652 216.346 433.678 216.417 433.737 216.444C433.738 216.445 433.739 216.445 433.741 216.445C433.804 216.47 433.875 216.44 433.899 216.376C433.924 216.316 433.896 216.247 433.838 216.219ZM431.121 215.102C431.057 215.077 430.986 215.109 430.962 215.172C430.937 215.235 430.968 215.307 431.031 215.331C431.094 215.356 431.166 215.324 431.19 215.261C431.213 215.198 431.182 215.128 431.121 215.102ZM425.197 225.055C425.171 224.994 425.101 224.966 425.04 224.992C424.979 225.018 424.951 225.088 424.977 225.149C425.003 225.211 425.073 225.239 425.134 225.213C425.195 225.187 425.223 225.116 425.197 225.055ZM424.069 222.347C424.048 222.288 423.984 222.257 423.924 222.278C423.92 222.279 423.915 222.282 423.912 222.283C423.849 222.307 423.818 222.377 423.84 222.439C423.87 222.5 423.942 222.529 424.006 222.504C424.067 222.477 424.095 222.407 424.069 222.347ZM429.35 220.293C429.303 220.247 429.229 220.248 429.183 220.295C429.137 220.342 429.138 220.416 429.185 220.462C429.232 220.508 429.306 220.507 429.352 220.46C429.398 220.418 429.4 220.347 429.358 220.301C429.356 220.299 429.352 220.296 429.35 220.293ZM427.27 218.217C427.224 218.172 427.15 218.173 427.104 218.219C427.086 218.239 427.073 218.263 427.07 218.289C427.063 218.327 427.077 218.367 427.105 218.393C427.111 218.401 427.12 218.405 427.128 218.405L427.136 218.406C427.179 218.434 427.235 218.429 427.271 218.392C427.319 218.346 427.321 218.27 427.275 218.222C427.274 218.221 427.272 218.219 427.27 218.217ZM441.089 225.62C440.996 225.535 440.852 225.542 440.767 225.635C440.766 225.637 440.764 225.64 440.762 225.642C440.68 225.735 440.69 225.878 440.783 225.96C440.784 225.96 440.784 225.96 440.785 225.961C440.878 226.046 441.021 226.039 441.106 225.945C441.108 225.944 441.11 225.941 441.111 225.939C441.193 225.845 441.184 225.703 441.09 225.621C441.09 225.622 441.09 225.621 441.089 225.62ZM436.888 221.962C436.794 221.879 436.653 221.889 436.571 221.983C436.57 221.983 436.57 221.983 436.57 221.984C436.486 222.08 436.495 222.227 436.591 222.312C436.687 222.397 436.833 222.387 436.918 222.291C436.996 222.19 436.984 222.045 436.888 221.962ZM432.694 218.312C432.598 218.228 432.453 218.238 432.367 218.333C432.283 218.43 432.293 218.576 432.388 218.661C432.484 218.745 432.63 218.736 432.715 218.64C432.8 218.547 432.793 218.403 432.7 218.318C432.699 218.316 432.696 218.315 432.694 218.312ZM424.181 239.679C424.054 239.688 423.958 239.796 423.964 239.924C423.971 240.046 424.075 240.14 424.196 240.134C424.201 240.134 424.204 240.133 424.208 240.133C424.335 240.125 424.431 240.016 424.424 239.888C424.416 239.763 424.306 239.669 424.181 239.679ZM423.787 234.12C423.661 234.131 423.569 234.24 423.579 234.366C423.587 234.493 423.696 234.591 423.823 234.584C423.95 234.576 424.047 234.467 424.04 234.339C424.024 234.211 423.914 234.117 423.787 234.12ZM423.401 228.564C423.274 228.579 423.18 228.688 423.184 228.817C423.191 228.939 423.295 229.033 423.416 229.027C423.421 229.027 423.424 229.026 423.429 229.026C423.554 229.021 423.65 228.915 423.645 228.79C423.645 228.787 423.645 228.785 423.645 228.782C423.636 228.654 423.528 228.557 423.401 228.564ZM423.006 223.014C422.881 223.024 422.788 223.134 422.798 223.259C422.798 223.259 422.798 223.259 422.798 223.26C422.807 223.387 422.917 223.483 423.043 223.475C423.17 223.466 423.266 223.356 423.258 223.229C423.249 223.102 423.138 223.005 423.012 223.014C423.01 223.014 423.008 223.014 423.006 223.014ZM443.506 216.053C443.385 216.013 443.255 216.076 443.212 216.196C443.17 216.316 443.234 216.448 443.354 216.49C443.475 216.532 443.606 216.468 443.648 216.348C443.69 216.227 443.626 216.096 443.506 216.053ZM438.23 214.292C438.115 214.25 437.989 214.31 437.948 214.424C437.947 214.428 437.946 214.432 437.944 214.435C437.901 214.551 437.961 214.682 438.077 214.726C438.194 214.769 438.324 214.709 438.367 214.592C438.369 214.587 438.371 214.583 438.372 214.578C438.414 214.463 438.355 214.336 438.239 214.295C438.237 214.294 438.233 214.293 438.23 214.292ZM435.098 234.133C435.043 234.016 434.904 233.965 434.786 234.02C434.67 234.074 434.618 234.214 434.673 234.331C434.728 234.449 434.867 234.5 434.984 234.445C434.985 234.444 434.987 234.443 434.988 234.443C435.103 234.387 435.151 234.25 435.098 234.133ZM432.616 229.151C432.562 229.034 432.422 228.983 432.306 229.038C432.189 229.092 432.138 229.232 432.192 229.348C432.247 229.466 432.386 229.517 432.504 229.462C432.505 229.461 432.507 229.461 432.508 229.46C432.621 229.404 432.669 229.267 432.616 229.151ZM430.134 224.168C430.072 224.055 429.932 224.01 429.817 224.066C429.702 224.126 429.659 224.268 429.719 224.382C429.777 224.493 429.912 224.538 430.024 224.486C430.138 224.424 430.186 224.286 430.134 224.168ZM427.642 219.192C427.589 219.077 427.453 219.027 427.339 219.08C427.225 219.132 427.175 219.268 427.227 219.383C427.228 219.387 427.231 219.391 427.232 219.393C427.288 219.505 427.423 219.553 427.536 219.498C427.538 219.497 427.54 219.496 427.541 219.495C427.65 219.444 427.698 219.315 427.648 219.205C427.647 219.201 427.645 219.196 427.642 219.192ZM413.752 235.689C413.637 235.648 413.511 235.709 413.47 235.824C413.469 235.829 413.467 235.835 413.465 235.84C413.425 235.958 413.488 236.086 413.606 236.125C413.607 236.125 413.608 236.126 413.608 236.126C413.729 236.167 413.859 236.104 413.902 235.984C413.935 235.862 413.87 235.734 413.752 235.689ZM415.518 230.414C415.399 230.371 415.269 230.433 415.226 230.552C415.225 230.553 415.225 230.555 415.225 230.556C415.184 230.677 415.247 230.808 415.367 230.85C415.489 230.885 415.617 230.819 415.661 230.7C415.702 230.582 415.638 230.454 415.52 230.414C415.52 230.414 415.519 230.414 415.518 230.414ZM417.277 225.128C417.156 225.088 417.026 225.151 416.983 225.271C416.941 225.39 417.004 225.521 417.123 225.563C417.127 225.564 417.131 225.565 417.134 225.567C417.249 225.608 417.374 225.549 417.416 225.434C417.417 225.43 417.417 225.427 417.419 225.424C417.46 225.303 417.396 225.172 417.277 225.128ZM439.865 231.594C439.805 231.498 439.678 231.469 439.583 231.53C439.488 231.59 439.458 231.717 439.519 231.812V231.812C439.579 231.908 439.706 231.937 439.801 231.875C439.896 231.815 439.925 231.689 439.865 231.594ZM437.234 227.38C437.174 227.285 437.047 227.256 436.952 227.317C436.857 227.377 436.828 227.504 436.889 227.599C436.949 227.695 437.076 227.724 437.171 227.663C437.266 227.606 437.296 227.483 437.239 227.389C437.238 227.386 437.236 227.383 437.234 227.38ZM434.606 223.159C434.591 223.123 434.562 223.095 434.525 223.081L434.517 223.079C434.454 223.052 434.382 223.058 434.324 223.094C434.226 223.155 434.197 223.284 434.258 223.383C434.258 223.383 434.258 223.384 434.259 223.385C434.32 223.479 434.446 223.508 434.541 223.448C434.586 223.422 434.616 223.378 434.624 223.327C434.647 223.272 434.641 223.208 434.606 223.159ZM431.976 218.945C431.915 218.85 431.789 218.822 431.694 218.881C431.596 218.941 431.566 219.069 431.626 219.166C431.685 219.265 431.814 219.295 431.91 219.235C432.008 219.174 432.037 219.045 431.976 218.947C431.977 218.946 431.977 218.946 431.976 218.945ZM419.14 234.948C419.03 234.923 418.921 234.992 418.896 235.102C418.896 235.103 418.895 235.103 418.895 235.105C418.866 235.211 418.929 235.321 419.035 235.349C419.038 235.349 419.041 235.35 419.044 235.351C419.156 235.375 419.268 235.305 419.298 235.194C419.317 235.084 419.249 234.976 419.14 234.948ZM420.258 230.107C420.147 230.081 420.038 230.15 420.013 230.26C420.013 230.261 420.012 230.262 420.012 230.264C419.983 230.37 420.047 230.479 420.152 230.507C420.156 230.508 420.158 230.508 420.161 230.509C420.27 230.535 420.378 230.468 420.406 230.36C420.432 230.249 420.367 230.137 420.258 230.107ZM421.375 225.265C421.264 225.239 421.155 225.308 421.13 225.418C421.13 225.419 421.129 225.42 421.129 225.422C421.099 225.524 421.157 225.632 421.259 225.663C421.266 225.665 421.271 225.667 421.278 225.667C421.389 225.693 421.498 225.624 421.523 225.514C421.523 225.513 421.524 225.512 421.524 225.51C421.547 225.402 421.482 225.294 421.375 225.265ZM441.832 219.696C441.741 219.63 441.614 219.65 441.548 219.741C441.547 219.743 441.545 219.745 441.544 219.747C441.477 219.832 441.492 219.954 441.578 220.02C441.582 220.023 441.584 220.025 441.588 220.028C441.676 220.096 441.802 220.08 441.871 219.992C441.873 219.99 441.874 219.987 441.876 219.984C441.94 219.892 441.922 219.766 441.832 219.696ZM437.791 216.807C437.696 216.746 437.57 216.769 437.502 216.859C437.436 216.953 437.46 217.082 437.554 217.149C437.65 217.211 437.779 217.183 437.841 217.087C437.899 216.996 437.878 216.874 437.791 216.807ZM429.695 232.753C429.584 232.778 429.511 232.884 429.528 232.996C429.547 233.107 429.652 233.181 429.762 233.162C429.873 233.145 429.95 233.041 429.935 232.928C429.917 232.814 429.81 232.737 429.695 232.753ZM428.878 227.851C428.768 227.876 428.694 227.982 428.711 228.095C428.731 228.205 428.835 228.279 428.945 228.261C429.053 228.245 429.128 228.146 429.113 228.037C429.112 228.033 429.111 228.03 429.111 228.025C429.093 227.913 428.99 227.836 428.878 227.851ZM428.059 222.958C427.951 222.973 427.876 223.073 427.891 223.182C427.892 223.186 427.893 223.189 427.893 223.194C427.913 223.304 428.018 223.378 428.127 223.36C428.238 223.34 428.312 223.235 428.293 223.125C428.278 223.017 428.178 222.942 428.071 222.957C428.068 222.956 428.064 222.957 428.059 222.958ZM411.318 228.668C411.226 228.602 411.1 228.621 411.03 228.711C410.964 228.802 410.984 228.93 411.075 228.996C411.077 228.997 411.079 228.999 411.081 229C411.166 229.067 411.288 229.052 411.353 228.966C411.357 228.962 411.359 228.96 411.361 228.956C411.429 228.868 411.413 228.741 411.325 228.672C411.324 228.671 411.322 228.67 411.318 228.668ZM439.485 219.387C439.439 219.336 439.361 219.334 439.311 219.379C439.261 219.425 439.258 219.502 439.303 219.553C439.349 219.603 439.427 219.606 439.477 219.56C439.525 219.514 439.528 219.438 439.485 219.387ZM437.489 217.248C437.443 217.198 437.366 217.195 437.316 217.241C437.266 217.287 437.263 217.364 437.308 217.414C437.354 217.465 437.431 217.467 437.482 217.422C437.53 217.375 437.533 217.299 437.489 217.248ZM435.486 215.1C435.442 215.053 435.369 215.05 435.321 215.094C435.272 215.132 435.262 215.203 435.3 215.253C435.304 215.258 435.309 215.263 435.313 215.268C435.357 215.315 435.43 215.318 435.479 215.274C435.528 215.235 435.537 215.164 435.499 215.113C435.495 215.109 435.491 215.104 435.486 215.1ZM427.862 223.679C427.795 223.677 427.74 223.728 427.737 223.795C427.735 223.861 427.786 223.917 427.853 223.919C427.92 223.921 427.975 223.87 427.978 223.803C427.979 223.736 427.927 223.681 427.862 223.679ZM427.958 220.749C427.895 220.744 427.839 220.792 427.834 220.855C427.834 220.859 427.834 220.861 427.834 220.865C427.832 220.931 427.883 220.987 427.95 220.99C428.017 220.993 428.076 220.942 428.082 220.875C428.083 220.806 428.029 220.75 427.96 220.75C427.96 220.749 427.96 220.749 427.958 220.749ZM428.064 217.82C428 217.815 427.944 217.863 427.939 217.927C427.939 217.93 427.939 217.933 427.939 217.936C427.937 218.003 427.988 218.058 428.055 218.061C428.121 218.063 428.177 218.012 428.179 217.945C428.182 217.878 428.131 217.823 428.064 217.82ZM433.729 221.216C433.709 221.154 433.645 221.12 433.583 221.14C433.579 221.141 433.575 221.142 433.572 221.145C433.51 221.166 433.477 221.233 433.498 221.295C433.499 221.297 433.5 221.3 433.5 221.302C433.527 221.362 433.594 221.392 433.656 221.374C433.72 221.349 433.752 221.279 433.729 221.216ZM432.699 218.463C432.676 218.403 432.609 218.374 432.548 218.396C432.546 218.397 432.543 218.398 432.541 218.399C432.479 218.424 432.447 218.493 432.469 218.556C432.495 218.616 432.562 218.646 432.625 218.628C432.689 218.605 432.723 218.535 432.7 218.471C432.7 218.468 432.699 218.466 432.699 218.463ZM431.675 215.72C431.649 215.66 431.582 215.63 431.519 215.647C431.457 215.672 431.425 215.741 431.447 215.804C431.467 215.865 431.531 215.899 431.592 215.879C431.596 215.878 431.6 215.877 431.603 215.875C431.665 215.854 431.698 215.787 431.677 215.724C431.677 215.723 431.676 215.721 431.675 215.72ZM441.609 222.275C441.572 222.213 441.49 222.192 441.428 222.231C441.427 222.232 441.426 222.232 441.424 222.233C441.36 222.271 441.338 222.353 441.375 222.417C441.376 222.421 441.379 222.423 441.381 222.426C441.419 222.489 441.5 222.509 441.563 222.471C441.564 222.47 441.565 222.47 441.566 222.469C441.63 222.427 441.649 222.342 441.609 222.275ZM439.807 219.457C439.77 219.394 439.688 219.374 439.626 219.413C439.625 219.414 439.624 219.414 439.622 219.415C439.557 219.456 439.537 219.542 439.579 219.609C439.62 219.675 439.706 219.694 439.773 219.652C439.835 219.612 439.854 219.529 439.814 219.467C439.812 219.463 439.809 219.459 439.807 219.457ZM438.013 216.639C437.971 216.573 437.885 216.554 437.819 216.595C437.753 216.637 437.734 216.723 437.776 216.789C437.774 216.797 437.783 216.799 437.789 216.809C437.836 216.856 437.91 216.867 437.968 216.833C438.034 216.791 438.054 216.705 438.013 216.639ZM427.68 224.684C427.606 224.675 427.535 224.722 427.516 224.795C427.499 224.868 427.545 224.941 427.618 224.959C427.686 224.979 427.758 224.941 427.778 224.872C427.779 224.867 427.781 224.862 427.782 224.856C427.802 224.781 427.757 224.704 427.682 224.684C427.681 224.684 427.68 224.684 427.68 224.684ZM428.398 221.416C428.323 221.406 428.252 221.454 428.233 221.526C428.217 221.6 428.262 221.673 428.335 221.69C428.41 221.71 428.487 221.666 428.507 221.59V221.59C428.519 221.513 428.472 221.438 428.398 221.416ZM429.114 218.149C429.04 218.139 428.969 218.187 428.95 218.259C428.933 218.333 428.979 218.406 429.052 218.423C429.121 218.443 429.193 218.403 429.213 218.334C429.215 218.328 429.217 218.321 429.217 218.313C429.232 218.239 429.188 218.167 429.114 218.149ZM429.832 214.881C429.757 214.868 429.684 214.917 429.667 214.992C429.651 215.065 429.696 215.138 429.769 215.156C429.838 215.176 429.91 215.135 429.929 215.067C429.931 215.06 429.933 215.053 429.934 215.045C429.95 214.972 429.905 214.899 429.832 214.881ZM445.34 216.117C445.279 216.071 445.193 216.084 445.147 216.145C445.146 216.146 445.145 216.147 445.144 216.149C445.102 216.212 445.116 216.297 445.175 216.344C445.237 216.388 445.323 216.373 445.368 216.311C445.369 216.309 445.371 216.307 445.372 216.305C445.415 216.244 445.4 216.16 445.34 216.117ZM442.599 214.199C442.536 214.155 442.45 214.168 442.404 214.23C442.36 214.293 442.376 214.379 442.437 214.424C442.439 214.425 442.441 214.427 442.443 214.428C442.504 214.47 442.588 214.456 442.631 214.396C442.675 214.332 442.661 214.245 442.599 214.199ZM434.684 223.194C434.673 223.12 434.604 223.069 434.529 223.08C434.528 223.08 434.526 223.081 434.524 223.081L434.517 223.079C434.445 223.097 434.4 223.166 434.411 223.24C434.422 223.314 434.491 223.365 434.566 223.354C434.567 223.354 434.569 223.353 434.57 223.353C434.589 223.348 434.607 223.339 434.624 223.327C434.67 223.3 434.694 223.247 434.684 223.194ZM433.935 219.782C433.86 219.8 433.811 219.872 433.82 219.95C433.841 220.023 433.913 220.07 433.989 220.056C434.061 220.042 434.109 219.971 434.095 219.898C434.095 219.897 434.095 219.897 434.094 219.896C434.081 219.821 434.01 219.77 433.935 219.782ZM433.352 216.492C433.277 216.504 433.226 216.576 433.239 216.651C433.251 216.726 433.322 216.777 433.398 216.764C433.473 216.751 433.524 216.681 433.511 216.606C433.5 216.531 433.43 216.48 433.357 216.491C433.355 216.492 433.354 216.492 433.352 216.492ZM446.492 214.264C446.386 214.189 446.239 214.213 446.161 214.318C446.085 214.426 446.11 214.576 446.219 214.652C446.323 214.726 446.467 214.705 446.546 214.604C446.62 214.495 446.597 214.347 446.492 214.264ZM439.63 236.957C439.5 236.978 439.41 237.098 439.426 237.228C439.448 237.357 439.569 237.445 439.698 237.424C439.826 237.402 439.916 237.283 439.902 237.152C439.881 237.024 439.759 236.936 439.63 236.957ZM438.737 231.288C438.608 231.309 438.52 231.431 438.541 231.56C438.563 231.689 438.684 231.778 438.813 231.755C438.942 231.734 439.03 231.612 439.008 231.483C438.987 231.355 438.865 231.268 438.737 231.288ZM437.852 225.621C437.723 225.637 437.632 225.755 437.647 225.884C437.663 226.013 437.782 226.105 437.91 226.089C437.914 226.088 437.917 226.088 437.92 226.088C438.05 226.067 438.14 225.947 438.124 225.817C438.101 225.687 437.98 225.6 437.852 225.621ZM436.958 219.951C436.831 219.971 436.743 220.09 436.762 220.218C436.762 220.22 436.762 220.222 436.762 220.224C436.783 220.352 436.905 220.441 437.034 220.419C437.163 220.397 437.251 220.276 437.229 220.146C437.209 220.019 437.09 219.931 436.963 219.95C436.961 219.95 436.96 219.951 436.958 219.951ZM436.072 214.283C435.944 214.304 435.857 214.425 435.876 214.553C435.897 214.68 436.013 214.767 436.139 214.75C436.27 214.73 436.359 214.61 436.343 214.479C436.322 214.35 436.202 214.263 436.072 214.283ZM416.362 231.329C416.254 231.252 416.105 231.278 416.029 231.387C415.955 231.491 415.976 231.635 416.077 231.713C416.186 231.788 416.334 231.765 416.416 231.66C416.49 231.553 416.465 231.408 416.362 231.329ZM419.733 226.692C419.627 226.615 419.479 226.64 419.402 226.746C419.325 226.852 419.35 227.001 419.456 227.078C419.562 227.155 419.71 227.13 419.787 227.024C419.864 226.918 419.84 226.768 419.733 226.692ZM444.264 220.657C444.194 220.545 444.047 220.509 443.935 220.578C443.822 220.647 443.787 220.795 443.856 220.907C443.924 221.019 444.072 221.055 444.185 220.986C444.296 220.916 444.331 220.77 444.264 220.657ZM441.28 215.762C441.213 215.65 441.067 215.614 440.955 215.681C440.954 215.682 440.952 215.683 440.95 215.683C440.84 215.755 440.804 215.9 440.871 216.013C440.944 216.124 441.091 216.155 441.202 216.083C441.31 216.013 441.345 215.873 441.28 215.762ZM428.461 233.929C428.335 233.899 428.21 233.976 428.18 234.102C428.18 234.103 428.18 234.105 428.18 234.106C428.148 234.233 428.222 234.361 428.347 234.396C428.475 234.42 428.6 234.344 428.638 234.22C428.669 234.091 428.59 233.961 428.461 233.929C428.462 233.929 428.462 233.929 428.461 233.929ZM429.804 228.354C429.683 228.322 429.558 228.395 429.526 228.516C429.525 228.521 429.524 228.526 429.523 228.531C429.491 228.656 429.567 228.782 429.691 228.813C429.82 228.845 429.949 228.766 429.981 228.637V228.637C430.013 228.515 429.941 228.39 429.819 228.358C429.815 228.356 429.81 228.354 429.804 228.354ZM431.149 222.771C431.02 222.744 430.893 222.827 430.866 222.956C430.839 223.083 430.918 223.208 431.044 223.239C431.17 223.269 431.295 223.192 431.325 223.067C431.325 223.065 431.325 223.063 431.325 223.062C431.356 222.933 431.277 222.802 431.149 222.771ZM432.491 217.197C432.365 217.169 432.24 217.248 432.21 217.374C432.181 217.501 432.261 217.627 432.388 217.657C432.511 217.684 432.634 217.61 432.667 217.488C432.699 217.357 432.62 217.227 432.491 217.197C432.492 217.197 432.492 217.197 432.491 217.197ZM446.094 216.911C446.026 216.806 445.886 216.775 445.781 216.842C445.777 216.844 445.773 216.847 445.77 216.85C445.662 216.923 445.63 217.07 445.7 217.181C445.778 217.284 445.92 217.311 446.032 217.243C446.141 217.17 446.17 217.024 446.098 216.915C446.095 216.914 446.094 216.913 446.094 216.911ZM431.924 235.781C431.795 235.755 431.668 235.838 431.641 235.966C431.615 236.095 431.698 236.223 431.826 236.25C431.955 236.277 432.081 236.194 432.109 236.065C432.136 235.935 432.054 235.808 431.924 235.781C431.924 235.781 431.925 235.781 431.924 235.781ZM433.03 230.173C432.9 230.153 432.776 230.238 432.747 230.366C432.726 230.493 432.808 230.614 432.933 230.642C433.062 230.669 433.189 230.586 433.216 230.457C433.239 230.327 433.158 230.203 433.03 230.173ZM434.129 224.572C434.001 224.547 433.879 224.631 433.854 224.759C433.829 224.887 433.913 225.01 434.041 225.035C434.17 225.061 434.297 224.978 434.323 224.849C434.342 224.719 434.256 224.597 434.129 224.572ZM435.235 218.965C435.11 218.939 434.987 219.02 434.962 219.146C434.962 219.148 434.961 219.15 434.961 219.152C434.938 219.279 435.021 219.402 435.148 219.428C435.27 219.455 435.392 219.378 435.42 219.256C435.421 219.251 435.421 219.246 435.423 219.241C435.448 219.115 435.367 218.992 435.242 218.967C435.239 218.965 435.237 218.965 435.235 218.965ZM442.58 227.082C442.451 227.108 442.367 227.234 442.391 227.364C442.42 227.491 442.545 227.573 442.673 227.545C442.8 227.522 442.883 227.4 442.861 227.273C442.861 227.273 442.861 227.272 442.861 227.271C442.833 227.143 442.708 227.06 442.58 227.082ZM441.463 221.473C441.335 221.502 441.253 221.626 441.274 221.756C441.297 221.883 441.42 221.969 441.547 221.945C441.675 221.922 441.76 221.799 441.737 221.671C441.736 221.667 441.735 221.665 441.735 221.661C441.712 221.534 441.59 221.45 441.464 221.473C441.463 221.473 441.463 221.473 441.463 221.473ZM440.336 215.872C440.207 215.899 440.123 216.024 440.147 216.154C440.177 216.283 440.305 216.364 440.434 216.334C440.557 216.305 440.637 216.186 440.617 216.061C440.59 215.932 440.464 215.848 440.336 215.872ZM422.417 228.66C422.311 228.588 422.169 228.617 422.097 228.722C422.095 228.725 422.093 228.728 422.091 228.731C422.019 228.839 422.048 228.984 422.155 229.056C422.264 229.129 422.412 229.102 422.487 228.994C422.56 228.885 422.532 228.737 422.423 228.665C422.421 228.663 422.419 228.661 422.417 228.66ZM425.581 223.903C425.475 223.831 425.333 223.86 425.261 223.965C425.259 223.969 425.257 223.971 425.255 223.974C425.183 224.082 425.212 224.227 425.319 224.299C425.428 224.372 425.576 224.345 425.65 224.237C425.723 224.128 425.695 223.98 425.586 223.907C425.585 223.905 425.583 223.904 425.581 223.903ZM428.745 219.145C428.635 219.076 428.49 219.108 428.419 219.217C428.347 219.325 428.376 219.47 428.483 219.541C428.592 219.615 428.74 219.587 428.815 219.479C428.888 219.37 428.86 219.223 428.751 219.15C428.749 219.149 428.747 219.147 428.745 219.145ZM431.909 214.388C431.798 214.322 431.657 214.354 431.583 214.46C431.511 214.567 431.54 214.712 431.647 214.784C431.756 214.857 431.903 214.829 431.978 214.722C432.051 214.611 432.021 214.463 431.91 214.39C431.91 214.389 431.909 214.389 431.909 214.388ZM445.295 214.273C445.261 214.184 445.16 214.14 445.07 214.174C445.07 214.174 445.069 214.175 445.068 214.175C444.975 214.209 444.926 214.313 444.959 214.407C444.994 214.5 445.097 214.549 445.19 214.516C445.284 214.481 445.332 214.378 445.299 214.284C445.299 214.28 445.297 214.277 445.295 214.273ZM431.894 225.967C431.81 225.924 431.707 225.958 431.665 226.042C431.662 226.047 431.66 226.053 431.657 226.058C431.619 226.149 431.659 226.255 431.751 226.294C431.841 226.333 431.947 226.292 431.985 226.201C432.024 226.111 431.983 226.007 431.894 225.967ZM433.587 222.003C433.498 221.962 433.393 222.001 433.353 222.088C433.352 222.09 433.352 222.092 433.35 222.094C433.31 222.184 433.35 222.29 433.442 222.331C433.533 222.372 433.639 222.331 433.679 222.239C433.719 222.149 433.678 222.043 433.587 222.003ZM435.28 218.039C435.189 217.999 435.084 218.04 435.043 218.132C435.003 218.223 435.044 218.328 435.136 218.369C435.228 218.41 435.332 218.369 435.372 218.277C435.411 218.185 435.37 218.081 435.28 218.039ZM436.973 214.075C436.879 214.039 436.774 214.083 436.736 214.175C436.7 214.266 436.745 214.37 436.835 214.405C436.836 214.405 436.836 214.406 436.836 214.406C436.923 214.444 437.025 214.405 437.062 214.318C437.063 214.316 437.063 214.314 437.064 214.312C437.105 214.223 437.066 214.118 436.977 214.077C436.977 214.077 436.975 214.076 436.973 214.075ZM440.935 225.582C440.837 225.579 440.756 225.657 440.753 225.755C440.753 225.756 440.753 225.757 440.753 225.757C440.755 225.853 440.831 225.932 440.927 225.939C441.025 225.94 441.105 225.862 441.109 225.765C441.115 225.67 441.042 225.588 440.948 225.584C440.944 225.582 440.94 225.582 440.935 225.582ZM440.984 221.274C440.889 221.272 440.811 221.348 440.81 221.443C440.81 221.445 440.81 221.447 440.81 221.449C440.806 221.547 440.884 221.629 440.982 221.632C440.983 221.632 440.984 221.632 440.984 221.632C441.083 221.628 441.163 221.548 441.167 221.449C441.165 221.351 441.084 221.272 440.986 221.274C440.986 221.274 440.984 221.274 440.984 221.274ZM441.04 216.959C440.94 216.963 440.861 217.043 440.857 217.142C440.855 217.236 440.929 217.314 441.023 217.316C441.026 217.316 441.029 217.316 441.033 217.316C441.128 217.322 441.209 217.249 441.214 217.155C441.214 217.15 441.214 217.146 441.214 217.141C441.217 217.043 441.139 216.962 441.041 216.959C441.041 216.959 441.041 216.959 441.04 216.959ZM428.953 216.256C428.88 216.189 428.769 216.188 428.696 216.254C428.627 216.327 428.63 216.443 428.703 216.512C428.772 216.579 428.88 216.579 428.951 216.514C429.017 216.441 429.019 216.33 428.953 216.256ZM442.114 216.152C442.061 216.14 442.008 216.173 441.996 216.226C441.983 216.279 442.017 216.332 442.07 216.345C442.073 216.346 442.075 216.346 442.078 216.346C442.131 216.353 442.181 216.316 442.189 216.262C442.197 216.212 442.165 216.163 442.114 216.152ZM439.389 219.839C439.32 219.793 439.226 219.812 439.181 219.881C439.179 219.885 439.177 219.889 439.175 219.892C439.127 219.958 439.141 220.05 439.207 220.098C439.211 220.101 439.215 220.104 439.22 220.107C439.293 220.156 439.393 220.137 439.441 220.063C439.489 219.991 439.47 219.894 439.398 219.845C439.395 219.843 439.391 219.842 439.389 219.839ZM441.464 216.535C441.387 216.489 441.288 216.512 441.241 216.588C441.193 216.66 441.213 216.757 441.284 216.805C441.287 216.807 441.29 216.809 441.294 216.811C441.362 216.857 441.456 216.838 441.501 216.769C441.503 216.765 441.506 216.761 441.508 216.758C441.558 216.688 441.541 216.59 441.471 216.54C441.469 216.539 441.466 216.538 441.464 216.535Z" fill="white"/>
<path d="M407.071 146.189C415.682 149.959 423.415 155.488 429.771 162.42C440.54 174.069 439.302 179.357 445.263 186.293C451.224 193.229 459.258 201.639 453.022 213.543C453.022 213.543 428.947 215.721 416.911 211.864L396.393 149.927C396.393 149.925 402.16 151.604 407.071 146.189Z" fill="url(#paint11_linear)"/>
<path d="M374.747 211.996C374.747 211.996 366.536 217.184 359.94 219.073C353.344 220.961 352.857 220.433 350.471 217.6C348.308 214.929 346.396 212.065 344.759 209.042C344.073 207.646 341.851 207.518 342.218 211.092C342.584 214.666 347.379 216.851 345.317 218.607C343.255 220.363 336.261 220.515 331.045 220.072C325.829 219.629 322.982 219.555 327.328 226.143C331.675 232.732 337.063 236.701 351.929 231.073C366.795 225.446 377.132 226.839 382.274 227.488L374.747 211.996Z" fill="url(#paint12_linear)"/>
<path d="M396.162 150.94C396.162 150.94 402.282 170.067 399.435 182.221C396.866 193.183 393.371 196.762 383.033 199.609C372.694 202.457 372.79 202.271 372.79 202.271L380.318 242.45C380.318 242.45 391.182 245.116 399.684 236.981C408.186 228.846 411.428 226.833 417.069 225.195C422.711 223.557 434.326 216.662 431.913 197.758C429.501 178.854 424.74 165.839 407.071 146.189" fill="#A1C3FC"/>
<path d="M395.219 140.492C396.062 143.563 396.458 146.741 396.394 149.925C396.394 149.925 400.942 152.919 407.071 146.189L402.618 135.068L395.219 140.492Z" fill="url(#paint13_linear)"/>
<path d="M383.693 118.889C383.667 118.968 383.65 119.027 383.636 119.061C383.627 119.072 383.627 119.081 383.623 119.096C383.517 119.413 383.421 119.739 383.331 120.078C382.361 123.737 379.271 126.252 379.137 127.277C379.004 128.302 380.911 129.26 381.855 129.48C382.799 129.7 383.316 134.624 386.838 137.908C390.143 140.988 395.663 141.4 399.549 139.884C402.04 132.106 401.309 128.181 394.092 123.565C386.215 118.524 387.39 113.064 387.39 113.064C385.739 114.705 384.476 116.695 383.693 118.889Z" fill="#FFBEB6"/>
<path d="M420.611 128.701C419.233 124.606 419.013 119.592 418.811 117.718C418.535 115.157 414.389 106.862 405.095 105.819C395.8 104.776 383.901 106.424 383.622 119.101C384.401 116.826 385.691 114.761 387.392 113.065C387.392 113.065 386.214 118.523 394.092 123.563C394.914 124.084 395.706 124.647 396.469 125.25C399.834 130.477 401.098 136.431 395.704 141.838C395.39 142.153 395.897 142.622 396.209 142.308C401.234 137.271 400.751 131.743 398.092 126.708C401.875 130.615 401.417 134.788 398.789 142.119C398.789 142.119 412.342 146.955 425.766 140.506C425.651 137.601 424.549 134.824 422.643 132.632C421.984 131.803 421.449 130.884 421.057 129.9C424.093 132.949 427.497 135.81 426.588 140.407C426.552 140.595 426.676 140.775 426.863 140.811C427.041 140.844 427.214 140.733 427.261 140.558C428.318 135.227 423.851 132.203 420.611 128.701Z" fill="#E94A47"/>
<path d="M387.128 123.884C385.986 124.994 384.161 124.966 383.054 123.822C382.653 123.408 382.385 122.882 382.285 122.313C382.206 121.882 382.865 121.677 382.945 122.114C383.111 123.316 384.217 124.158 385.417 123.992C385.869 123.929 386.292 123.726 386.624 123.413C386.949 123.116 387.456 123.584 387.128 123.884Z" fill="#1C2868"/>
<path d="M74.6943 52.103C78.7166 52.103 81.9774 48.8463 81.9774 44.8289C81.9774 40.8114 78.7166 37.5547 74.6943 37.5547C70.6719 37.5547 67.4111 40.8114 67.4111 44.8289C67.4111 48.8463 70.6719 52.103 74.6943 52.103Z" fill="#23286B"/>
<path d="M96.7128 52.103C100.735 52.103 103.996 48.8463 103.996 44.8289C103.996 40.8114 100.735 37.5547 96.7128 37.5547C92.6905 37.5547 89.4297 40.8114 89.4297 44.8289C89.4297 48.8463 92.6905 52.103 96.7128 52.103Z" fill="#A1C3FC"/>
<path d="M119.409 52.103C123.431 52.103 126.692 48.8463 126.692 44.8289C126.692 40.8114 123.431 37.5547 119.409 37.5547C115.387 37.5547 112.126 40.8114 112.126 44.8289C112.126 48.8463 115.387 52.103 119.409 52.103Z" fill="#D6D7D8"/>
<defs>
<linearGradient id="paint0_linear" x1="49.7969" y1="165.811" x2="496.27" y2="165.811" gradientUnits="userSpaceOnUse">
<stop stop-color="#EEEEEE"/>
<stop offset="1" stop-color="#D6D7D8"/>
</linearGradient>
<linearGradient id="paint1_linear" x1="136.855" y1="180.185" x2="253.046" y2="180.185" gradientUnits="userSpaceOnUse">
<stop stop-color="#A1C3FC"/>
<stop offset="1" stop-color="#78A9EF"/>
</linearGradient>
<linearGradient id="paint2_linear" x1="56.5453" y1="375.572" x2="144.447" y2="390.056" gradientUnits="userSpaceOnUse">
<stop stop-color="#3E8AF8"/>
<stop offset="1" stop-color="#1479F2"/>
</linearGradient>
<linearGradient id="paint3_linear" x1="59.7842" y1="314.127" x2="138.586" y2="272.391" gradientUnits="userSpaceOnUse">
<stop stop-color="#23286B"/>
<stop offset="1" stop-color="#151A4F"/>
</linearGradient>
<linearGradient id="paint4_linear" x1="189.959" y1="254.124" x2="156.628" y2="219.221" gradientUnits="userSpaceOnUse">
<stop stop-color="#FFBEB6"/>
<stop offset="1" stop-color="#F2A19C"/>
</linearGradient>
<linearGradient id="paint5_linear" x1="138.232" y1="160.689" x2="126.022" y2="203.388" gradientUnits="userSpaceOnUse">
<stop offset="0.1291" stop-color="#428DFC"/>
<stop offset="0.9987" stop-color="#1D72D8"/>
</linearGradient>
<linearGradient id="paint6_linear" x1="128.379" y1="197.276" x2="84.1739" y2="329.627" gradientUnits="userSpaceOnUse">
<stop offset="0.1291" stop-color="#428DFC"/>
<stop offset="0.9987" stop-color="#1D72D8"/>
</linearGradient>
<linearGradient id="paint7_linear" x1="145.729" y1="159.617" x2="141.404" y2="138.773" gradientUnits="userSpaceOnUse">
<stop stop-color="#FFBEB6"/>
<stop offset="1" stop-color="#F2A19C"/>
</linearGradient>
<linearGradient id="paint8_linear" x1="145.414" y1="123.758" x2="158.92" y2="118.852" gradientUnits="userSpaceOnUse">
<stop stop-color="#28306D"/>
<stop offset="0.51" stop-color="#1F275F"/>
<stop offset="1" stop-color="#171F51"/>
</linearGradient>
<linearGradient id="paint9_linear" x1="353.742" y1="381.156" x2="412.601" y2="381.156" gradientUnits="userSpaceOnUse">
<stop offset="0.1291" stop-color="#F7931E"/>
<stop offset="0.9987" stop-color="#D27800"/>
</linearGradient>
<linearGradient id="paint10_linear" x1="328.675" y1="327.378" x2="451.658" y2="270.676" gradientUnits="userSpaceOnUse">
<stop stop-color="#23286B"/>
<stop offset="1" stop-color="#151A4F"/>
</linearGradient>
<linearGradient id="paint11_linear" x1="430.999" y1="161.892" x2="391.985" y2="288.656" gradientUnits="userSpaceOnUse">
<stop stop-color="#A1C3FC"/>
<stop offset="0.323" stop-color="#92B9F7"/>
<stop offset="0.6955" stop-color="#FFB414"/>
<stop offset="1" stop-color="#FFAF11"/>
</linearGradient>
<linearGradient id="paint12_linear" x1="357.057" y1="219.728" x2="331.894" y2="253.784" gradientUnits="userSpaceOnUse">
<stop stop-color="#FFBEB6"/>
<stop offset="1" stop-color="#F2A19C"/>
</linearGradient>
<linearGradient id="paint13_linear" x1="404.675" y1="161.219" x2="399.153" y2="136.568" gradientUnits="userSpaceOnUse">
<stop stop-color="#FFBEB6"/>
<stop offset="1" stop-color="#F2A19C"/>
</linearGradient>
</defs>
</svg>
