<svg width="650" height="420" viewBox="0 0 650 420" fill="none" xmlns="http://www.w3.org/2000/svg">
<path fill-rule="evenodd" clip-rule="evenodd" d="M476.066 377.491H176.001C169.004 377.491 163.346 371.843 163.346 364.859V54.2786C163.346 47.2944 169.004 41.6467 176.001 41.6467H476.066C483.063 41.6467 488.721 47.2944 488.721 54.2786V364.859C488.721 371.843 483.063 377.491 476.066 377.491Z" fill="#B620E1"/>
<path fill-rule="evenodd" clip-rule="evenodd" d="M190.126 41.8622C190.841 41.8622 191.421 42.4413 191.421 43.1556C191.421 43.8699 190.841 44.449 190.126 44.449C184.647 44.449 180.195 49.0237 180.106 54.7513L180.105 54.9253V364.557C180.105 365.272 179.525 365.851 178.809 365.851C178.119 365.851 177.555 365.312 177.515 364.633L177.513 364.557V54.9253C177.513 47.7114 183.136 41.8622 190.126 41.8622Z" fill="white"/>
<path fill-rule="evenodd" clip-rule="evenodd" d="M288.477 41C289.167 41 289.731 41.5384 289.771 42.2174L289.773 42.2934V328.86C289.773 329.575 289.193 330.154 288.477 330.154C287.787 330.154 287.223 329.615 287.183 328.936L287.181 328.86V42.2934C287.181 41.5791 287.761 41 288.477 41Z" fill="white"/>
<path fill-rule="evenodd" clip-rule="evenodd" d="M355.427 71.3941H353.095C351.885 71.3941 350.935 70.4456 350.935 69.2385V64.6686C350.935 63.4615 351.885 62.513 353.095 62.513H355.427C356.637 62.513 357.587 63.4615 357.587 64.6686V69.2385C357.587 70.4025 356.593 71.3941 355.427 71.3941Z" fill="white"/>
<path fill-rule="evenodd" clip-rule="evenodd" d="M346.227 71.3941H304.848C303.638 71.3941 302.688 70.4456 302.688 69.2385V64.6686C302.688 63.4615 303.638 62.513 304.848 62.513H346.227C347.436 62.513 348.387 63.4615 348.387 64.6686V69.2385C348.387 70.4025 347.393 71.3941 346.227 71.3941Z" fill="white"/>
<path fill-rule="evenodd" clip-rule="evenodd" d="M350.374 112.653H304.848C303.638 112.653 302.688 111.704 302.688 110.497V105.927C302.688 104.72 303.638 103.771 304.848 103.771H350.374C351.583 103.771 352.533 104.72 352.533 105.927V110.497C352.533 111.704 351.54 112.653 350.374 112.653Z" fill="white"/>
<path fill-rule="evenodd" clip-rule="evenodd" d="M390.414 98.8997H317.417C316.208 98.8997 315.257 97.9513 315.257 96.7441V92.1742C315.257 90.9671 316.208 90.0186 317.417 90.0186H390.414C391.623 90.0186 392.574 90.9671 392.574 92.1742V96.7441C392.574 97.9513 391.623 98.8997 390.414 98.8997Z" fill="white"/>
<path fill-rule="evenodd" clip-rule="evenodd" d="M429.849 98.8997H399.096C397.886 98.8997 396.936 97.9513 396.936 96.7441V92.1742C396.936 90.9671 397.886 90.0186 399.096 90.0186H429.849C431.059 90.0186 432.009 90.9671 432.009 92.1742V96.7441C432.009 97.9513 431.015 98.8997 429.849 98.8997Z" fill="white"/>
<path fill-rule="evenodd" clip-rule="evenodd" d="M463.151 148.996H460.819C459.609 148.996 458.659 148.048 458.659 146.841V142.271C458.659 141.064 459.609 140.115 460.819 140.115H463.151C464.361 140.115 465.311 141.064 465.311 142.271V146.841C465.311 148.048 464.361 148.996 463.151 148.996Z" fill="white"/>
<path fill-rule="evenodd" clip-rule="evenodd" d="M449.157 162.965H446.824C445.615 162.965 444.665 162.016 444.665 160.809V156.239C444.665 155.032 445.615 154.083 446.824 154.083H449.157C450.366 154.083 451.316 155.032 451.316 156.239V160.809C451.316 162.016 450.323 162.965 449.157 162.965Z" fill="white"/>
<path fill-rule="evenodd" clip-rule="evenodd" d="M380.436 85.1469H304.848C303.638 85.1469 302.688 84.1985 302.688 82.9913V78.4214C302.688 77.2143 303.638 76.2658 304.848 76.2658H380.479C381.689 76.2658 382.639 77.2143 382.639 78.4214V82.9913C382.596 84.1985 381.645 85.1469 380.436 85.1469Z" fill="white"/>
<path fill-rule="evenodd" clip-rule="evenodd" d="M404.063 71.3941H362.684C361.474 71.3941 360.524 70.4456 360.524 69.2385V64.6686C360.524 63.4615 361.474 62.513 362.684 62.513H404.063C405.272 62.513 406.223 63.4615 406.223 64.6686V69.2385C406.223 70.4025 405.229 71.3941 404.063 71.3941Z" fill="white"/>
<path fill-rule="evenodd" clip-rule="evenodd" d="M437.019 85.19H388.34C387.131 85.19 386.181 84.2416 386.181 83.0344V78.4214C386.181 77.2143 387.131 76.2658 388.34 76.2658H437.019C438.229 76.2658 439.179 77.2143 439.179 78.4214V83.0344C439.179 84.1985 438.229 85.19 437.019 85.19Z" fill="white"/>
<path fill-rule="evenodd" clip-rule="evenodd" d="M346.227 148.91H304.848C303.638 148.91 302.688 147.961 302.688 146.754V142.184C302.688 140.977 303.638 140.029 304.848 140.029H346.227C347.436 140.029 348.387 140.977 348.387 142.184V146.754C348.387 147.961 347.393 148.91 346.227 148.91Z" fill="white"/>
<path fill-rule="evenodd" clip-rule="evenodd" d="M436.501 176.459H399.052C397.843 176.459 396.893 175.51 396.893 174.303V169.733C396.893 168.526 397.843 167.578 399.052 167.578H436.501C437.71 167.578 438.66 168.526 438.66 169.733V174.303C438.66 175.467 437.71 176.459 436.501 176.459Z" fill="white"/>
<path fill-rule="evenodd" clip-rule="evenodd" d="M380.436 162.663H304.848C303.638 162.663 302.688 161.714 302.688 160.507V155.937C302.688 154.73 303.638 153.782 304.848 153.782H380.479C381.689 153.782 382.639 154.73 382.639 155.937V160.507C382.596 161.714 381.645 162.663 380.436 162.663Z" fill="white"/>
<path fill-rule="evenodd" clip-rule="evenodd" d="M404.063 148.91H353.095C351.885 148.91 350.935 147.961 350.935 146.754V142.184C350.935 140.977 351.885 140.029 353.095 140.029H404.063C405.272 140.029 406.223 140.977 406.223 142.184V146.754C406.223 147.961 405.229 148.91 404.063 148.91Z" fill="white"/>
<path fill-rule="evenodd" clip-rule="evenodd" d="M453.304 148.91H411.924C410.715 148.91 409.765 147.961 409.765 146.754V142.184C409.765 140.977 410.715 140.029 411.924 140.029H453.304C454.513 140.029 455.463 140.977 455.463 142.184V146.754C455.463 147.961 454.47 148.91 453.304 148.91Z" fill="white"/>
<path fill-rule="evenodd" clip-rule="evenodd" d="M355.427 135.588H353.095C351.885 135.588 350.935 134.64 350.935 133.433V128.863C350.935 127.656 351.885 126.707 353.095 126.707H355.427C356.637 126.707 357.587 127.656 357.587 128.863V133.433C357.587 134.64 356.593 135.588 355.427 135.588Z" fill="white"/>
<path fill-rule="evenodd" clip-rule="evenodd" d="M346.227 135.588H304.848C303.638 135.588 302.688 134.64 302.688 133.433V128.863C302.688 127.656 303.638 126.707 304.848 126.707H346.227C347.436 126.707 348.387 127.656 348.387 128.863V133.433C348.387 134.64 347.393 135.588 346.227 135.588Z" fill="white"/>
<path fill-rule="evenodd" clip-rule="evenodd" d="M404.063 135.588H362.684C361.474 135.588 360.524 134.64 360.524 133.433V128.863C360.524 127.656 361.474 126.707 362.684 126.707H404.063C405.272 126.707 406.223 127.656 406.223 128.863V133.433C406.223 134.64 405.229 135.588 404.063 135.588Z" fill="white"/>
<path fill-rule="evenodd" clip-rule="evenodd" d="M440.432 162.706H388.384C387.174 162.706 386.224 161.757 386.224 160.55V155.937C386.224 154.73 387.174 153.782 388.384 153.782H440.432C441.641 153.782 442.592 154.73 442.592 155.937V160.55C442.592 161.757 441.598 162.706 440.432 162.706Z" fill="white"/>
<path fill-rule="evenodd" clip-rule="evenodd" d="M253.361 153.868H205.071C203.861 153.868 202.911 152.919 202.911 151.712V147.142C202.911 145.935 203.861 144.987 205.071 144.987H253.361C254.57 144.987 255.521 145.935 255.521 147.142V151.712C255.521 152.919 254.57 153.868 253.361 153.868Z" fill="white"/>
<path fill-rule="evenodd" clip-rule="evenodd" d="M213.666 140.934H205.071C203.861 140.934 202.911 139.986 202.911 138.779V134.209C202.911 133.002 203.861 132.053 205.071 132.053H213.666C214.876 132.053 215.826 133.002 215.826 134.209V138.779C215.826 139.986 214.876 140.934 213.666 140.934Z" fill="white"/>
<path fill-rule="evenodd" clip-rule="evenodd" d="M230.512 125.759H205.071C203.861 125.759 202.911 124.81 202.911 123.603V119.033C202.911 117.826 203.861 116.878 205.071 116.878H230.512C231.721 116.878 232.671 117.826 232.671 119.033V123.603C232.671 124.81 231.678 125.759 230.512 125.759Z" fill="white"/>
<path fill-rule="evenodd" clip-rule="evenodd" d="M240.014 112.48H205.071C203.861 112.48 202.911 111.532 202.911 110.324V105.755C202.911 104.547 203.861 103.599 205.071 103.599H240.014C241.224 103.599 242.174 104.547 242.174 105.755V110.324C242.174 111.532 241.224 112.48 240.014 112.48Z" fill="white"/>
<path fill-rule="evenodd" clip-rule="evenodd" d="M230.512 98.9859H205.071C203.861 98.9859 202.911 98.0375 202.911 96.8303V92.2604C202.911 91.0533 203.861 90.1048 205.071 90.1048H230.512C231.721 90.1048 232.671 91.0533 232.671 92.2604V96.8303C232.671 98.0375 231.678 98.9859 230.512 98.9859Z" fill="white"/>
<path fill-rule="evenodd" clip-rule="evenodd" d="M220.275 84.7158H205.071C203.861 84.7158 202.911 83.7673 202.911 82.5602V77.9903C202.911 76.7831 203.861 75.8347 205.071 75.8347H220.275C221.484 75.8347 222.435 76.7831 222.435 77.9903V82.5602C222.435 83.7673 221.441 84.7158 220.275 84.7158Z" fill="white"/>
<path fill-rule="evenodd" clip-rule="evenodd" d="M231.116 84.7158H227.445C226.667 84.7158 226.02 84.0691 226.02 83.2931V77.2574C226.02 76.4814 226.667 75.8347 227.445 75.8347H231.116C231.894 75.8347 232.542 76.4814 232.542 77.2574V83.2931C232.542 84.0691 231.894 84.7158 231.116 84.7158Z" fill="white"/>
<path fill-rule="evenodd" clip-rule="evenodd" d="M241.007 98.8135H237.336C236.559 98.8135 235.911 98.1668 235.911 97.3908V91.3551C235.911 90.5791 236.559 89.9324 237.336 89.9324H241.007C241.785 89.9324 242.433 90.5791 242.433 91.3551V97.3908C242.433 98.2099 241.785 98.8135 241.007 98.8135Z" fill="white"/>
<path fill-rule="evenodd" clip-rule="evenodd" d="M251.547 112.523H247.876C247.098 112.523 246.45 111.877 246.45 111.1V105.065C246.45 104.289 247.098 103.642 247.876 103.642H251.547C252.324 103.642 252.972 104.289 252.972 105.065V111.1C252.972 111.877 252.324 112.523 251.547 112.523Z" fill="white"/>
<path fill-rule="evenodd" clip-rule="evenodd" d="M241.31 125.888H237.639C236.861 125.888 236.213 125.241 236.213 124.465V118.43C236.213 117.654 236.861 117.007 237.639 117.007H241.31C242.088 117.007 242.736 117.654 242.736 118.43V124.465C242.736 125.241 242.131 125.888 241.31 125.888Z" fill="white"/>
<path fill-rule="evenodd" clip-rule="evenodd" d="M224.076 140.934H220.404C219.627 140.934 218.979 140.287 218.979 139.511V133.476C218.979 132.7 219.627 132.053 220.404 132.053H224.076C224.853 132.053 225.501 132.7 225.501 133.476V139.511C225.501 140.331 224.853 140.934 224.076 140.934Z" fill="white"/>
<path fill-rule="evenodd" clip-rule="evenodd" d="M262.95 153.868H259.278C258.501 153.868 257.853 153.221 257.853 152.445V146.409C257.853 145.633 258.501 144.987 259.278 144.987H262.95C263.727 144.987 264.375 145.633 264.375 146.409V152.445C264.375 153.221 263.727 153.868 262.95 153.868Z" fill="white"/>
<path fill-rule="evenodd" clip-rule="evenodd" d="M236.17 70.4457H204.509C203.3 70.4457 202.35 69.4972 202.35 68.29V63.7201C202.35 62.513 203.3 61.5645 204.509 61.5645H236.17C237.379 61.5645 238.33 62.513 238.33 63.7201V68.29C238.33 69.4541 237.379 70.4457 236.17 70.4457Z" fill="white"/>
<rect x="44.2183" y="266.218" width="128.889" height="110.928" fill="white"/>
<path fill-rule="evenodd" clip-rule="evenodd" d="M173.107 264.925H44.2182C43.5025 264.925 42.9224 265.504 42.9224 266.218V377.146C42.9224 377.861 43.5025 378.44 44.2182 378.44H173.107C173.823 378.44 174.403 377.861 174.403 377.146V266.218C174.403 265.504 173.823 264.925 173.107 264.925ZM171.811 267.512V375.853H45.5135V267.512H171.811Z" fill="#2E186A"/>
<path fill-rule="evenodd" clip-rule="evenodd" d="M216.387 160.593C216.387 160.593 224.464 158.395 229.086 154.04C231.807 151.41 235.349 147.918 235.263 146.754C235.133 144.599 230.598 147.918 229.864 148.35" fill="white"/>
<path fill-rule="evenodd" clip-rule="evenodd" d="M233.28 147.783L233.119 147.867C232.917 147.973 232.705 148.092 232.482 148.222L232.199 148.392C231.643 148.734 230.575 149.432 230.52 149.464C229.903 149.826 229.109 149.621 228.746 149.005C228.397 148.412 228.575 147.655 229.139 147.277L230.264 146.551C230.527 146.383 230.789 146.219 230.978 146.105C231.302 145.911 231.611 145.736 231.91 145.578C232.806 145.107 233.564 144.817 234.242 144.753C235.448 144.638 236.424 145.313 236.547 146.557L236.555 146.659C236.674 148.264 234.971 150.153 229.975 154.981C228.604 156.273 226.896 157.446 224.928 158.51C223.133 159.481 221.218 160.31 219.305 161.002C218.719 161.214 218.169 161.4 217.666 161.56L217.091 161.737C216.933 161.784 216.811 161.819 216.728 161.841C216.037 162.029 215.325 161.623 215.137 160.934C214.949 160.245 215.356 159.534 216.046 159.346L216.203 159.301C216.313 159.269 216.438 159.232 216.576 159.189L216.683 159.156C217.206 158.994 217.791 158.798 218.422 158.57C220.223 157.919 222.022 157.139 223.694 156.235C225.478 155.271 227.006 154.221 228.184 153.111L229.237 152.089C230.485 150.867 231.385 149.95 232.163 149.094L232.264 148.982C232.607 148.602 232.904 148.255 233.153 147.945L233.28 147.783Z" fill="#2E186A"/>
<path fill-rule="evenodd" clip-rule="evenodd" d="M220.749 153.437C220.749 153.437 224.594 150.117 225.933 147.358C227.272 144.599 228.179 142.486 227.747 142.098C227.315 141.71 224.81 142.4 223.816 144.038C222.736 146.797 218.244 150.548 218.244 150.548C218.806 150.333 221.527 147.272 222.823 145.375C224.075 143.478 224.162 140.546 220.231 143.823C220.231 143.823 216.128 147.487 214.53 148.565C214.53 148.565 207.316 151.281 205.502 154.342C204.293 156.412 194.747 172.234 187.231 182.538C182.61 187.366 173.885 216.941 188.095 213.665C191.076 213.061 194.401 210.259 195.395 207.715L214.314 161.542C218.676 159.731 221.613 157.791 223.514 156.11C225.976 153.911 232.844 144.771 232.8 143.823C232.628 141.236 228.395 142.314 226.235 147.013" fill="white"/>
<path fill-rule="evenodd" clip-rule="evenodd" d="M224.38 141.707L224.385 141.704C225.864 140.731 227.725 140.339 228.614 141.137C228.84 141.34 228.994 141.552 229.085 141.786L229.094 141.809L229.224 141.74C229.364 141.667 229.504 141.601 229.645 141.541L229.786 141.483C231.916 140.641 233.943 141.484 234.095 143.764C234.137 144.699 232.742 146.813 230.132 150.275L229.844 150.656C227.681 153.5 225.555 156.023 224.373 157.078C222.211 158.991 219.257 160.819 215.503 162.443L215.31 162.525L196.602 208.185C195.448 211.141 191.829 214.153 188.548 214.89L188.387 214.925C184.451 215.832 181.592 214.536 180.14 211.406C178.976 208.899 178.756 205.302 179.316 200.975C180.259 193.691 183.464 184.843 186.12 181.834L186.23 181.712L186.405 181.472C189.444 177.285 193.006 171.946 196.799 165.981L197.912 164.224C200.628 159.916 203.337 155.479 204.387 153.684C205.227 152.266 206.893 150.949 209.172 149.661C210.246 149.054 211.39 148.494 212.533 147.992C212.866 147.846 213.179 147.713 213.468 147.595L213.919 147.414L213.942 147.398C214.401 147.074 215.09 146.528 215.941 145.819L216.494 145.355C217.01 144.918 217.547 144.456 218.083 143.989L219.401 142.83C220.457 141.95 221.341 141.403 222.1 141.177C222.957 140.922 223.775 141.064 224.313 141.632L224.38 141.707ZM226.195 143.636L226.111 143.679C225.632 143.931 225.229 144.261 224.983 144.618L224.971 144.636L224.955 144.675C224.718 145.234 224.377 145.818 223.944 146.431L223.812 146.616C223.33 147.277 222.751 147.963 222.093 148.667C221.543 149.255 220.963 149.831 220.377 150.378L220.218 150.525L220.206 150.538C219.603 151.141 219.083 151.585 218.761 151.733L218.709 151.755C217.366 152.271 216.326 150.554 217.358 149.605L217.643 149.359L217.882 149.149C217.965 149.076 218.051 148.998 218.141 148.918L218.276 148.794L218.547 148.543L218.653 148.432C218.812 148.262 218.981 148.078 219.156 147.883L219.288 147.735C220.227 146.675 221.173 145.495 221.741 144.663C221.857 144.487 221.96 144.298 222.046 144.11L222.068 144.056L222.03 144.082C221.782 144.247 221.498 144.458 221.182 144.716L221.073 144.806L220.335 145.458L220.195 145.581C219.652 146.057 219.103 146.534 218.568 146.99L217.902 147.554L217.446 147.934C216.514 148.707 215.772 149.288 215.255 149.637C215.171 149.693 215.082 149.74 214.987 149.775L214.61 149.924L214.287 150.056C214.064 150.149 213.827 150.25 213.577 150.36C212.508 150.829 211.44 151.352 210.449 151.912C208.536 152.993 207.165 154.078 206.622 154.994L206.102 155.871C204.872 157.933 202.649 161.559 200.383 165.161L199.266 166.929C195.249 173.259 191.478 178.914 188.279 183.299C188.245 183.345 188.208 183.389 188.168 183.431C185.935 185.765 182.786 194.358 181.886 201.306C181.383 205.193 181.576 208.347 182.491 210.319C183.415 212.309 185.033 213.043 187.838 212.397C190.295 211.899 193.229 209.51 194.147 207.345L213.114 161.052C213.245 160.733 213.498 160.48 213.816 160.348C217.646 158.758 220.584 156.973 222.65 155.146L222.789 155.019C223.847 154.023 225.81 151.682 227.791 149.076L228.061 148.72C229.075 147.376 229.984 146.104 230.632 145.122L230.803 144.86C231.021 144.522 231.199 144.232 231.33 143.999L231.412 143.849L231.463 143.75L231.451 143.748C231.33 143.728 231.11 143.753 230.821 143.858L230.74 143.888C229.565 144.353 228.276 145.675 227.413 147.552C227.342 147.707 227.244 147.841 227.128 147.951L227.05 148.018L227.003 148.113C226.837 148.434 226.643 148.763 226.423 149.1L226.287 149.303C225.804 150.014 225.212 150.753 224.534 151.51C223.892 152.226 223.207 152.921 222.522 153.57L222.243 153.832C222.153 153.915 222.066 153.995 221.982 154.071L221.621 154.394L221.597 154.415C221.056 154.882 220.238 154.823 219.77 154.283C219.319 153.764 219.357 152.988 219.841 152.514L220.124 152.261L220.356 152.051C220.477 151.94 220.604 151.82 220.738 151.694C221.375 151.09 222.011 150.444 222.602 149.785C223.208 149.108 223.731 148.457 224.142 147.851C224.4 147.472 224.609 147.118 224.767 146.794L225.046 146.214C225.49 145.285 225.828 144.54 226.075 143.936L226.195 143.636Z" fill="#2E186A"/>
<path fill-rule="evenodd" clip-rule="evenodd" d="M187.793 178.83L198.289 159.774L214.832 163.697L200.665 198.791L187.793 178.83Z" fill="#0B4870"/>
<path fill-rule="evenodd" clip-rule="evenodd" d="M120.368 318.427L120.886 378.008H129.784L130.303 359.427C130.303 359.427 133.931 377.577 146.327 378.396C158.767 379.216 169.479 375.81 169.393 375.335C169.349 375.077 169.781 371.455 170.17 367.877C170.516 364.773 167.579 361.755 164.382 361.971C159.588 362.229 153.325 361.884 149.524 358.694C142.742 353.046 143.606 311.96 143.606 311.96L120.368 318.427Z" fill="#2E186A"/>
<path fill-rule="evenodd" clip-rule="evenodd" d="M135.572 318.427L144.168 378.008H153.066L153.411 367.403C153.411 367.403 157.169 377.62 169.609 378.44C182.048 379.259 192.76 375.853 192.674 375.379C192.631 375.12 193.063 371.498 193.451 367.92C193.797 364.816 190.86 361.798 187.663 362.014C182.869 362.272 178.809 355.806 175.008 352.615C168.226 346.968 166.887 312.004 166.887 312.004L135.572 318.427Z" fill="#2E186A"/>
<path fill-rule="evenodd" clip-rule="evenodd" d="M191.378 257.38C188.182 250.094 149.394 228.625 149.394 228.625C149.394 228.625 166.542 182.667 156.866 169.13C148.444 157.748 133.24 158.308 133.24 158.308L105.466 157.274V157.144H100.931C96.0502 157.144 89.3984 162.361 88.6641 167.966C87.3251 178.313 83.3081 192.583 80.5437 204.482C74.0647 224.313 67.4993 253.888 80.6733 266.262C80.7597 266.434 114.321 266.262 114.321 266.262L114.364 358.306H181.271C181.314 358.349 194.531 264.623 191.378 257.38Z" fill="#0B4870"/>
<path fill-rule="evenodd" clip-rule="evenodd" d="M111.693 143.374C112.014 142.735 112.792 142.476 113.432 142.795C114.072 143.115 114.332 143.892 114.011 144.53C113.377 145.798 113.148 147.566 113.442 149.405C113.944 152.697 115.889 155.035 117.497 154.92L117.575 154.912C118.286 154.825 118.932 155.329 119.019 156.038C119.107 156.747 118.602 157.393 117.891 157.48C114.572 157.887 111.575 154.352 110.882 149.804C110.506 147.46 110.806 145.146 111.693 143.374Z" fill="#F0C449"/>
<path fill-rule="evenodd" clip-rule="evenodd" d="M145.989 142.21C146.309 141.571 147.087 141.312 147.727 141.631C148.367 141.951 148.627 142.728 148.307 143.366C147.672 144.634 147.443 146.402 147.738 148.241C148.24 151.533 150.184 153.871 151.792 153.756L151.871 153.748C152.581 153.661 153.228 154.165 153.315 154.874C153.402 155.583 152.897 156.229 152.187 156.316C148.867 156.723 145.871 153.188 145.177 148.64C144.802 146.296 145.101 143.982 145.989 142.21Z" fill="#F0C449"/>
<path fill-rule="evenodd" clip-rule="evenodd" d="M114.969 115.326C120.238 111.445 123.737 91.0533 109.44 77.3867C94.927 63.5477 82.876 77.6885 80.198 81.3962C77.5201 85.1038 75.49 95.3646 88.0161 105.065C100.585 114.722 108.965 119.766 114.969 115.326Z" fill="#2E186A"/>
<path fill-rule="evenodd" clip-rule="evenodd" d="M122.657 124.336L122.311 124.552C120.368 125.802 117.647 125.284 116.264 123.344L112.42 117.955C111.038 116.015 111.513 113.429 113.457 112.178L113.802 111.963C115.746 110.713 118.467 111.23 119.849 113.17L123.694 118.559C125.076 120.499 124.601 123.086 122.657 124.336Z" fill="#F0C449"/>
<path fill-rule="evenodd" clip-rule="evenodd" d="M119.995 141.436C121.093 139.136 120.011 136.333 117.578 135.175C115.144 134.017 112.281 134.943 111.183 137.243C110.085 139.543 111.167 142.346 113.6 143.503C116.034 144.661 118.897 143.735 119.995 141.436Z" fill="white"/>
<path fill-rule="evenodd" clip-rule="evenodd" d="M109.749 136.385C108.482 139.177 110.096 142.746 113.307 144.37C116.518 145.993 120.163 145.084 121.429 142.292C122.696 139.5 121.082 135.931 117.871 134.308C114.66 132.684 111.015 133.593 109.749 136.385ZM112.203 137.627C112.904 136.081 114.986 135.562 116.87 136.515C118.755 137.468 119.677 139.506 118.976 141.051C118.274 142.597 116.193 143.116 114.308 142.163C112.424 141.211 111.502 139.173 112.203 137.627Z" fill="#2E186A"/>
<path fill-rule="evenodd" clip-rule="evenodd" d="M153.519 139.866C154.617 137.566 153.535 134.763 151.102 133.606C148.668 132.448 145.805 133.374 144.707 135.674C143.609 137.973 144.691 140.776 147.124 141.934C149.558 143.092 152.421 142.166 153.519 139.866Z" fill="white"/>
<path fill-rule="evenodd" clip-rule="evenodd" d="M143.273 134.816C142.006 137.608 143.62 141.176 146.831 142.8C150.042 144.424 153.687 143.515 154.953 140.723C156.22 137.93 154.606 134.362 151.395 132.738C148.184 131.114 144.539 132.023 143.273 134.816ZM145.727 136.058C146.428 134.512 148.509 133.993 150.394 134.946C152.279 135.899 153.201 137.936 152.499 139.482C151.798 141.028 149.717 141.547 147.832 140.594C145.947 139.641 145.026 137.604 145.727 136.058Z" fill="#2E186A"/>
<path fill-rule="evenodd" clip-rule="evenodd" d="M135.442 153.049L135.701 159.947L141.489 161.24C141.835 162.189 142.18 178.485 127.236 176.459C117.431 175.122 112.852 166.37 110.217 158.352L118.554 158.912L118.597 139.425L135.442 153.049Z" fill="white"/>
<path fill-rule="evenodd" clip-rule="evenodd" d="M117.301 139.422L117.261 157.529L110.304 157.061C109.388 156.999 108.7 157.883 108.986 158.755C110.587 163.626 112.498 167.576 115.027 170.721C118.177 174.638 122.144 177.07 127.06 177.74C134.225 178.712 138.913 175.855 141.282 170.486C142.78 167.092 143.234 162.244 142.707 160.798L142.674 160.717C142.509 160.343 142.175 160.068 141.772 159.978L136.958 158.902L136.737 153C136.723 152.627 136.549 152.279 136.258 152.044L119.413 138.42C118.567 137.736 117.304 138.335 117.301 139.422ZM119.886 142.132L134.169 153.684L134.406 159.995L134.412 160.075C134.467 160.627 134.87 161.086 135.418 161.209L140.294 162.298L140.294 162.282C140.307 162.83 140.284 163.487 140.219 164.183C140.049 166.006 139.622 167.83 138.91 169.444C136.992 173.791 133.387 175.988 127.41 175.177L127.177 175.144C120.05 174.074 115.447 168.85 112.173 160.025L112.081 159.773L118.466 160.202C119.214 160.253 119.848 159.662 119.849 158.915L119.886 142.132Z" fill="#2E186A"/>
<path fill-rule="evenodd" clip-rule="evenodd" d="M136.15 157.019C144.526 155.483 149.712 145.524 147.733 134.776C145.754 124.027 137.361 116.559 128.985 118.095C120.609 119.631 115.423 129.589 117.402 140.338C119.38 151.086 127.774 158.555 136.15 157.019Z" fill="white"/>
<path fill-rule="evenodd" clip-rule="evenodd" d="M129.434 117.526C119.894 119.599 113.724 130.271 115.446 141.275C117.168 152.279 126.163 159.658 135.703 157.586C145.243 155.513 151.413 144.841 149.691 133.837C147.969 122.833 138.974 115.454 129.434 117.526ZM129.814 119.965C137.731 118.246 145.524 124.637 147.054 134.411C148.584 144.184 143.238 153.429 135.321 155.148C127.404 156.867 119.611 150.476 118.082 140.703C116.552 130.929 121.897 121.685 129.814 119.965Z" fill="#2E186A"/>
<path fill-rule="evenodd" clip-rule="evenodd" d="M134.895 132.312C135.562 132.135 136.245 132.512 136.458 133.158L136.479 133.231L138.589 141.182C138.9 142.268 138.13 143.38 137.03 143.432L136.949 143.434L134.012 143.52C133.297 143.541 132.7 142.98 132.679 142.266C132.659 141.577 133.181 140.998 133.86 140.939L133.936 140.935L135.827 140.879L133.974 133.893C133.797 133.227 134.174 132.545 134.822 132.333L134.895 132.312Z" fill="#2E186A"/>
<path fill-rule="evenodd" clip-rule="evenodd" d="M126.05 127.934C127.349 127.199 128.745 126.922 130.128 127.455C130.607 127.639 131.058 127.918 131.472 128.289C132.003 128.767 132.047 129.585 131.568 130.116C131.108 130.627 130.332 130.686 129.8 130.265L129.738 130.212C129.556 130.049 129.377 129.938 129.195 129.868C128.668 129.665 128.017 129.794 127.328 130.184C127.155 130.282 126.996 130.387 126.858 130.491L126.791 130.542C126.753 130.572 126.729 130.592 126.72 130.6C126.188 131.078 125.369 131.035 124.89 130.504C124.412 129.973 124.455 129.155 124.987 128.677C125.213 128.474 125.575 128.202 126.05 127.934Z" fill="#2E186A"/>
<path fill-rule="evenodd" clip-rule="evenodd" d="M137.924 127.493C138.78 127.293 139.671 127.232 140.547 127.405C141.809 127.654 142.855 128.372 143.5 129.598C143.833 130.23 143.589 131.012 142.956 131.344C142.346 131.664 141.597 131.45 141.245 130.869L141.206 130.801C140.944 130.302 140.571 130.046 140.043 129.942C139.582 129.851 139.043 129.888 138.517 130.011L138.387 130.044C138.308 130.064 138.244 130.083 138.199 130.098L138.145 130.116C137.475 130.368 136.728 130.03 136.476 129.362C136.223 128.693 136.562 127.947 137.232 127.696L137.361 127.65C137.506 127.602 137.696 127.547 137.924 127.493Z" fill="#2E186A"/>
<path fill-rule="evenodd" clip-rule="evenodd" d="M131.389 136.232C131.421 135.257 130.925 134.449 130.281 134.428C129.638 134.407 129.09 135.181 129.058 136.157C129.026 137.132 129.522 137.94 130.166 137.961C130.81 137.982 131.358 137.208 131.389 136.232Z" fill="#2E186A"/>
<path fill-rule="evenodd" clip-rule="evenodd" d="M141.317 138.333C141.959 138.287 142.423 137.46 142.352 136.486C142.282 135.512 141.704 134.761 141.061 134.807C140.419 134.854 139.955 135.681 140.026 136.654C140.097 137.628 140.675 138.38 141.317 138.333Z" fill="#2E186A"/>
<path fill-rule="evenodd" clip-rule="evenodd" d="M150.102 138.794C153.437 138.277 156.076 141.965 156.809 146.82C157.508 151.456 155.68 155.746 152.314 156.267C152.27 156.274 152.226 156.278 152.181 156.28L152.115 156.282H152.029C151.313 156.282 150.733 155.703 150.733 154.989C150.733 154.3 151.272 153.737 151.952 153.698L151.995 153.696L152.068 153.68C153.596 153.286 154.707 150.595 154.269 147.365L154.246 147.206C153.708 143.64 151.996 141.204 150.567 141.342L150.5 141.35C149.792 141.46 149.13 140.976 149.02 140.27C148.911 139.564 149.395 138.903 150.102 138.794Z" fill="#F0C449"/>
<path fill-rule="evenodd" clip-rule="evenodd" d="M115.375 140.389C118.752 139.866 121.816 143.407 122.513 148.028C123.212 152.663 121.384 156.953 118.018 157.474C117.974 157.481 117.93 157.485 117.886 157.488L117.819 157.489H117.733C117.017 157.489 116.437 156.91 116.437 156.196C116.437 155.507 116.977 154.944 117.657 154.905L117.698 154.903L117.772 154.887C119.3 154.493 120.412 151.802 119.973 148.572L119.95 148.413C119.448 145.084 117.479 142.765 115.851 142.935L115.772 142.945C115.065 143.055 114.403 142.571 114.293 141.865C114.183 141.16 114.667 140.499 115.375 140.389Z" fill="#F0C449"/>
<path fill-rule="evenodd" clip-rule="evenodd" d="M126.2 143.182C126.371 147.627 128.094 149.977 130.893 150.226C131.944 150.32 133.009 150.097 134.049 149.678C134.565 149.47 134.968 149.259 135.218 149.104C136.011 148.614 136.041 147.472 135.274 146.942L128.233 142.07C127.355 141.462 126.159 142.117 126.2 143.182ZM129.22 145.901L131.732 147.638L131.644 147.648C131.463 147.663 131.289 147.664 131.123 147.65C130.302 147.577 129.656 147.101 129.252 145.99L129.22 145.901Z" fill="#2E186A"/>
<path fill-rule="evenodd" clip-rule="evenodd" d="M127.02 113.472L126.976 113.515C121.966 114.248 116.351 116.533 113.241 119.895C107.712 125.845 110.261 138.563 115.876 139.425C116.351 139.511 116.826 139.555 117.301 139.555C117.258 139.253 117.215 138.908 117.171 138.606C117.042 137.442 116.999 136.278 116.999 135.114C124.687 132.269 124.644 120.758 124.644 119.809C126.285 121.103 128.402 123.301 127.84 125.759L144.815 126.836C146.457 129.639 147.58 132.915 147.968 136.451C147.968 136.494 147.968 136.537 147.968 136.58C149.567 134.295 149.61 130.76 148.314 127.052L154.059 127.397C154.059 127.397 159.328 108.04 127.02 113.472Z" fill="#2E186A"/>
<path fill-rule="evenodd" clip-rule="evenodd" d="M108.976 184.526C109.068 183.818 109.718 183.318 110.428 183.411C111.112 183.499 111.602 184.106 111.553 184.784L111.546 184.86L109.705 198.967L144.343 199.05C145.033 199.051 145.596 199.591 145.634 200.27L145.636 200.346C145.634 201.035 145.094 201.597 144.413 201.634L144.337 201.636L108.227 201.55C107.473 201.548 106.885 200.907 106.938 200.167L106.946 200.09L108.976 184.526Z" fill="white"/>
<path fill-rule="evenodd" clip-rule="evenodd" d="M78.8987 205.802C79.0745 205.11 79.7794 204.691 80.4732 204.866C81.1669 205.042 81.5867 205.745 81.4109 206.438C80.0038 211.98 84.659 218.594 90.1379 218.833L90.3042 218.838L142.698 218.795C143.413 218.794 143.994 219.373 143.995 220.087C143.995 220.776 143.456 221.339 142.776 221.379L142.7 221.382L90.2795 221.425C82.9904 221.28 77.0777 212.975 78.8987 205.802Z" fill="white"/>
<path fill-rule="evenodd" clip-rule="evenodd" d="M101.19 199.917C103.488 198.408 105.931 198.22 108.151 198.8C108.581 198.913 108.905 199.03 109.106 199.119C109.759 199.411 110.051 200.177 109.758 200.829C109.476 201.457 108.753 201.751 108.117 201.509L107.987 201.456C107.889 201.418 107.722 201.362 107.495 201.303C105.925 200.893 104.22 201.024 102.614 202.078C101.791 202.618 101.022 203.39 100.321 204.429C99.9206 205.021 99.1153 205.177 98.5218 204.778C97.9284 204.379 97.7716 203.575 98.1716 202.983C99.0612 201.666 100.074 200.649 101.19 199.917Z" fill="white"/>
<path fill-rule="evenodd" clip-rule="evenodd" d="M96.3459 198.14C100.343 194.833 104.305 194.653 107.687 196.384C108.137 196.614 108.537 196.862 108.884 197.112L109.037 197.225C109.178 197.332 109.286 197.421 109.359 197.487C109.89 197.966 109.93 198.784 109.45 199.314C108.988 199.823 108.213 199.88 107.682 199.458L107.578 199.37C107.521 199.323 107.451 199.27 107.368 199.21C107.123 199.033 106.833 198.854 106.504 198.686C103.994 197.401 101.144 197.53 97.9997 200.132C97.4486 200.587 96.6318 200.511 96.1751 199.961C95.7184 199.411 95.7949 198.596 96.3459 198.14Z" fill="white"/>
<path fill-rule="evenodd" clip-rule="evenodd" d="M100.888 214.139L127.366 214.397L136.091 173.441C136.264 172.535 137.041 171.889 137.862 171.889L202.393 172.88C203.559 172.88 204.423 174.131 204.164 175.381L195.957 219.054C195.395 221.77 191.983 223.839 189.521 223.796C173.669 223.537 109.829 222.632 107.929 222.589C99.4196 222.546 100.888 214.139 100.888 214.139Z" fill="#F0C449"/>
<path fill-rule="evenodd" clip-rule="evenodd" d="M212.241 221.554C212.931 221.554 213.495 222.093 213.534 222.771L213.536 222.847V375.853C213.536 376.567 212.956 377.146 212.241 377.146C211.55 377.146 210.986 376.608 210.947 375.929L210.945 375.853V224.14H66.808L66.8084 375.853C66.8084 376.542 66.2689 377.105 65.5887 377.144L65.5126 377.146C64.8225 377.146 64.2584 376.608 64.219 375.929L64.2168 375.853V222.847C64.2168 222.159 64.7562 221.596 65.4365 221.556L65.5126 221.554H212.241Z" fill="#2E186A"/>
<path fill-rule="evenodd" clip-rule="evenodd" d="M170.732 376.888H161.013C160.063 376.974 155.053 376.758 159.329 374.085C160.193 373.697 167.363 369.127 170.213 368.61C173.064 368.093 183.992 368.093 184.208 368.093C184.467 368.093 188.225 357.315 188.312 356.711L203.775 357.401C202.954 359.47 198.116 374.689 194.575 376.025C190.989 377.405 170.689 376.672 170.689 376.672C170.689 376.672 171.034 373.654 175.051 373.223C179.025 372.792 180.753 372.792 180.753 372.792" fill="white"/>
<path fill-rule="evenodd" clip-rule="evenodd" d="M201.974 358.615L189.262 358.048L189.08 358.612C188.737 359.652 188.251 361.064 187.704 362.614L187.181 364.081C186.855 364.989 186.552 365.815 186.293 366.501L186.047 367.145C185.888 367.556 185.753 367.889 185.645 368.14L185.557 368.338C185.516 368.428 185.478 368.507 185.442 368.575L185.291 368.855C185.03 369.319 184.899 369.381 184.29 369.386L182.999 369.39C182.639 369.392 182.257 369.394 181.858 369.398C180.379 369.411 178.903 369.433 177.504 369.466L176.263 369.5C173.445 369.584 171.379 369.713 170.445 369.882C169.581 370.039 167.991 370.735 165.919 371.838C165.64 371.986 165.354 372.141 165.059 372.303L164.458 372.637C163.447 373.208 161.583 374.293 160.56 374.876L160 375.191L159.897 375.257C159.82 375.307 159.746 375.355 159.677 375.402L159.496 375.529L159.562 375.539C159.987 375.598 160.46 375.624 160.791 375.607L160.954 375.596L161.013 375.594H169.643L169.666 375.534C169.835 375.098 170.071 374.665 170.385 374.254L170.506 374.101C171.473 372.926 172.938 372.149 174.911 371.937L175.52 371.873C176.812 371.739 177.932 371.644 178.887 371.581L179.317 371.555C180.038 371.513 180.511 371.499 180.752 371.499C181.468 371.499 182.048 372.078 182.048 372.792C182.048 373.481 181.509 374.044 180.828 374.083L180.459 374.091L180.08 374.105C179.897 374.113 179.692 374.124 179.467 374.137L178.838 374.177C177.818 374.247 176.605 374.355 175.189 374.509C174.145 374.621 173.397 374.93 172.867 375.38L172.796 375.442L174.127 375.476C176.83 375.54 179.554 375.577 182.127 375.573L182.894 375.571C188.737 375.543 192.891 375.287 194.116 374.815C194.568 374.645 195.336 373.767 196.205 372.303C197.082 370.825 198.023 368.845 199.013 366.455L199.137 366.154C199.713 364.75 200.605 362.364 201.338 360.365L201.974 358.615ZM204.979 357.877L204.998 357.832C205.032 357.8 202.689 364.323 201.536 367.134C200.457 369.766 199.425 371.954 198.435 373.621C197.282 375.565 196.209 376.791 195.04 377.232C193.386 377.869 189.188 378.128 182.906 378.157C180.34 378.169 177.609 378.139 174.883 378.081L174.066 378.062C173.387 378.046 172.748 378.029 172.156 378.012L171.408 377.99L171.365 378.016C171.198 378.109 171.009 378.167 170.808 378.179L170.732 378.181H161.057L160.973 378.187C160.056 378.244 158.717 378.113 157.829 377.764L157.678 377.7C156.695 377.257 156.084 376.404 156.411 375.297C156.652 374.483 157.385 373.774 158.641 372.989L158.717 372.945L158.823 372.892C159.16 372.71 162.245 370.904 163.503 370.206C163.812 370.035 164.114 369.87 164.408 369.712L164.7 369.555C167.01 368.326 168.763 367.559 169.981 367.337L170.164 367.306C171.402 367.109 173.706 366.979 176.841 366.896C178.43 366.853 180.131 366.826 181.836 366.811L183.396 366.801L183.51 366.52C183.563 366.384 183.621 366.235 183.683 366.075L183.928 365.431C184.173 364.777 184.457 364 184.763 363.15L185.405 361.339C186.24 358.959 187.009 356.667 187.029 356.528C187.119 355.894 187.659 355.426 188.293 355.418L188.369 355.419L203.832 356.109C204.722 356.148 205.307 357.051 204.979 357.877Z" fill="#542FA0"/>
<path fill-rule="evenodd" clip-rule="evenodd" d="M328.301 272.771C323.377 266.391 303.076 242.205 303.076 242.205L286.144 256.691L289.081 260.7C274.871 257.294 260.747 255.656 257.162 257.165L258.285 260.14C243.167 256.173 219.454 252.25 214.573 265.141C209.39 274.711 186.195 360.203 186.195 360.203L216.085 360.979L219.108 349.123C219.886 356.84 220.75 363.824 221.786 369.257C223.212 376.715 238.502 378.44 246.104 378.353L265.8 378.095L295.172 343.001L280.227 293.94C292.019 296.181 311.11 298.897 320.526 295.621C321.001 295.578 321.433 295.535 321.908 295.448C332.059 293.552 336.205 283.808 328.301 272.771Z" fill="#5AD3E2"/>
<path fill-rule="evenodd" clip-rule="evenodd" d="M235.047 258.156L244.938 238.454L262.043 249.318L259.797 258.631C261.222 266.391 252.238 271.78 246.018 266.865L235.047 258.156Z" fill="white"/>
<path fill-rule="evenodd" clip-rule="evenodd" d="M243.78 237.875L233.888 257.577C233.614 258.124 233.761 258.788 234.24 259.169L245.211 267.877L245.427 268.043C252.427 273.298 262.289 267.493 261.155 258.93L261.118 258.676L263.303 249.621C263.432 249.084 263.205 248.524 262.738 248.227L245.634 237.363C244.986 236.951 244.124 237.189 243.78 237.875ZM245.453 240.314L260.566 249.913L258.537 258.328C258.494 258.504 258.489 258.686 258.522 258.864L258.556 259.061C259.58 265.545 252.048 269.98 246.822 265.851L236.676 257.797L245.453 240.314Z" fill="#542FA0"/>
<path fill-rule="evenodd" clip-rule="evenodd" d="M246.363 211.121C246.363 211.121 252.367 234.272 266.794 228.581C266.794 228.581 272.884 225.908 273.057 222.201C273.057 222.201 268.219 223.451 267.01 219.83C267.01 219.83 277.463 222.33 280.011 214.225C280.011 214.225 270.508 217.114 267.442 210.992C264.418 204.827 245.586 205.171 246.363 211.121Z" fill="#542FA0"/>
<path fill-rule="evenodd" clip-rule="evenodd" d="M236.818 232.85C236.818 232.85 226.97 217.717 242.174 207.543C243.599 206.594 253.404 200.3 259.278 208.146C263.166 213.406 266.276 219.614 268.306 224.615C268.306 224.658 272.323 233.97 270.984 240.739C269.645 247.508 261.308 250.655 255.866 250.051C250.424 249.448 249.041 248.456 246.493 245.999C243.945 243.541 236.818 232.85 236.818 232.85Z" fill="white"/>
<path fill-rule="evenodd" clip-rule="evenodd" d="M269.525 224.176L269.526 224.182L269.507 224.129C267.169 218.371 264.066 212.535 260.61 207.773L260.316 207.372C257.389 203.461 253.339 202.319 248.789 203.281C247.173 203.623 245.581 204.213 244.045 204.975C243.018 205.484 242.191 205.977 241.455 206.466C237.731 208.959 235.209 211.887 233.782 215.163C231.65 220.059 232.074 225.241 234.046 230.166C234.408 231.07 234.797 231.891 235.186 232.615L235.301 232.825C235.431 233.059 235.542 233.249 235.63 233.394L235.767 233.608L236.562 234.788C236.76 235.081 236.97 235.389 237.189 235.71C238.149 237.116 239.124 238.522 240.072 239.857L240.67 240.695L241.343 241.628C243.17 244.14 244.591 245.94 245.521 246.858L245.593 246.929C248.694 249.919 250.475 250.755 255.723 251.337C262.768 252.118 270.909 247.793 272.255 240.99C272.552 239.487 272.62 237.828 272.49 236.037C272.314 233.624 271.79 231.068 271.024 228.482C270.694 227.364 270.34 226.318 269.982 225.353L269.839 224.974C269.793 224.853 269.748 224.737 269.703 224.624L269.525 224.176ZM267.552 226.253C267.891 227.165 268.226 228.156 268.539 229.214C269.255 231.637 269.744 234.019 269.905 236.225C270.02 237.8 269.961 239.233 269.712 240.488C268.664 245.791 261.845 249.413 256.009 248.766L255.574 248.716C251.25 248.208 249.997 247.579 247.393 245.069C246.608 244.311 245.213 242.546 243.418 240.078L242.777 239.189L242.586 238.923C241.525 237.438 240.418 235.846 239.331 234.254L238.564 233.125L237.897 232.133C237.889 232.121 237.852 232.061 237.796 231.968C237.698 231.805 237.588 231.612 237.469 231.39C237.124 230.749 236.777 230.016 236.453 229.206C234.714 224.864 234.345 220.359 236.158 216.195C237.382 213.385 239.575 210.839 242.895 208.617C243.545 208.185 244.281 207.746 245.198 207.292C246.551 206.62 247.944 206.104 249.326 205.812C252.899 205.056 255.876 205.867 258.128 208.773L258.236 208.914L258.513 209.293C261.835 213.871 264.842 219.525 267.105 225.101L267.127 225.091L267.203 225.319C267.251 225.456 267.302 225.597 267.349 225.727L267.552 226.253Z" fill="#542FA0"/>
<path fill-rule="evenodd" clip-rule="evenodd" d="M259.113 222.411C259.666 222.003 260.438 222.099 260.874 222.618L260.925 222.682L265.935 229.451C266.369 230.037 266.231 230.859 265.644 231.274L265.577 231.318L262.726 233.086C262.118 233.463 261.319 233.277 260.942 232.67C260.578 232.085 260.738 231.324 261.293 230.932L261.359 230.889L263.016 229.86L258.841 224.22C258.432 223.667 258.529 222.897 259.048 222.461L259.113 222.411Z" fill="#542FA0"/>
<path fill-rule="evenodd" clip-rule="evenodd" d="M263.377 221.588C263.814 221.344 263.859 220.591 263.476 219.904C263.093 219.218 262.428 218.858 261.99 219.101C261.553 219.344 261.508 220.098 261.891 220.785C262.274 221.471 262.939 221.831 263.377 221.588Z" fill="#542FA0"/>
<path fill-rule="evenodd" clip-rule="evenodd" d="M256.991 227.083C257.466 226.926 257.651 226.193 257.404 225.448C257.156 224.702 256.57 224.224 256.094 224.382C255.619 224.539 255.434 225.271 255.682 226.017C255.929 226.763 256.515 227.24 256.991 227.083Z" fill="#542FA0"/>
<path fill-rule="evenodd" clip-rule="evenodd" d="M251.638 219.198C252.321 218.986 253.047 219.368 253.26 220.05C253.464 220.708 253.116 221.405 252.478 221.644L252.406 221.668C251.766 221.867 251.294 222.206 250.944 222.655C250.745 222.911 250.597 223.188 250.495 223.463L250.458 223.569C250.431 223.648 250.415 223.706 250.409 223.736L250.406 223.75C250.289 224.454 249.621 224.93 248.915 224.813C248.209 224.696 247.732 224.029 247.85 223.325C247.88 223.143 247.947 222.882 248.065 222.564C248.254 222.054 248.526 221.545 248.898 221.067C249.564 220.213 250.474 219.558 251.638 219.198Z" fill="#542FA0"/>
<path fill-rule="evenodd" clip-rule="evenodd" d="M258.634 213.572C259.821 212.718 261.078 212.275 262.381 212.553C262.72 212.626 263.048 212.748 263.361 212.921C263.987 213.267 264.214 214.054 263.868 214.679C263.534 215.281 262.791 215.513 262.177 215.22L262.107 215.184C262.017 215.135 261.928 215.102 261.838 215.082C261.403 214.99 260.8 215.202 260.15 215.67C259.939 215.822 259.743 215.986 259.569 216.15L259.433 216.283L259.378 216.34C258.9 216.871 258.081 216.915 257.549 216.437C257.016 215.96 256.972 215.142 257.45 214.611C257.7 214.334 258.104 213.954 258.634 213.572Z" fill="#542FA0"/>
<path fill-rule="evenodd" clip-rule="evenodd" d="M242.001 215.346C242.001 215.346 259.408 235.954 244.722 245.481C244.722 245.481 238.286 249.361 234.744 247.077C234.744 247.077 239.064 243.412 236.515 240.006C236.515 240.006 231.98 251.215 222.866 248.284C222.866 248.284 231.764 241.429 228.093 234.66C224.421 227.848 237.034 210.776 242.001 215.346Z" fill="#542FA0"/>
<path fill-rule="evenodd" clip-rule="evenodd" d="M260.66 207.284C260.66 207.284 247.789 190.384 231.462 205.085C222.046 213.535 223.082 222.675 225.631 228.926L217.856 237.118C216.171 238.885 216.258 241.688 218.029 243.369C218.892 244.188 219.972 244.576 221.095 244.576C222.261 244.576 223.428 244.102 224.335 243.196L260.66 207.284Z" fill="#F0C449"/>
<path fill-rule="evenodd" clip-rule="evenodd" d="M260.401 236.514L264.202 235.479L260.401 236.514Z" fill="white"/>
<path fill-rule="evenodd" clip-rule="evenodd" d="M263.861 234.232C264.552 234.044 265.264 234.45 265.452 235.139C265.634 235.804 265.262 236.488 264.616 236.705L264.543 236.727L260.742 237.762C260.052 237.95 259.339 237.544 259.151 236.854C258.969 236.19 259.341 235.505 259.987 235.288L260.06 235.266L263.861 234.232Z" fill="#542FA0"/>
<path fill-rule="evenodd" clip-rule="evenodd" d="M302.428 250.181C298.325 247.551 294.826 244.964 292.71 242.722C290.852 240.955 289.341 239.575 288.088 238.54C285.108 235.997 281.22 234.79 277.29 235.221C274.309 235.566 270.854 236.04 269.212 236.686C266.059 237.937 255.693 241.903 256.384 243.541C256.859 244.705 262.561 243.8 265.498 243.196L271.372 250.181C271.372 250.181 273.964 249.318 275.476 249.405C278.585 249.577 282.041 250.655 283.725 249.62C283.725 249.62 286.231 253.802 291.025 259.536" fill="white"/>
<path fill-rule="evenodd" clip-rule="evenodd" d="M277.148 233.935C281.424 233.466 285.67 234.775 288.914 237.544L289.181 237.766C290.129 238.562 291.234 239.556 292.591 240.829L293.604 241.786L293.653 241.835C295.56 243.856 298.803 246.32 303.128 249.092C303.73 249.478 303.905 250.278 303.518 250.879C303.132 251.481 302.33 251.655 301.728 251.269L301.136 250.887C297.038 248.227 293.906 245.832 291.907 243.757L291.793 243.638L291.21 243.084C289.704 241.663 288.51 240.583 287.504 239.738L287.246 239.523C284.529 237.205 280.995 236.115 277.439 236.505L276.457 236.622C273.201 237.021 270.944 237.418 269.774 237.856L268.126 238.506L267.126 238.905L266.328 239.228C265.415 239.601 264.562 239.958 263.747 240.313C262.839 240.707 262.008 241.085 261.261 241.446L260.839 241.652C260.084 242.025 259.437 242.373 258.912 242.689L258.715 242.809L258.745 242.808C258.982 242.803 259.24 242.791 259.517 242.773L259.908 242.743C261.47 242.611 263.446 242.298 265.236 241.93C265.674 241.84 266.124 241.981 266.431 242.299L266.49 242.365L271.816 248.697L271.892 248.675C271.978 248.651 272.066 248.628 272.154 248.604L272.422 248.535C272.873 248.422 273.313 248.327 273.734 248.254C274.417 248.136 275.023 248.083 275.547 248.113C275.905 248.133 276.276 248.164 276.677 248.207L277.175 248.265C277.365 248.288 277.548 248.311 277.757 248.34L279.169 248.536C281.462 248.843 282.414 248.854 282.971 248.561L283.046 248.519C283.638 248.155 284.407 248.324 284.795 248.889L285.133 249.431L285.282 249.664C285.661 250.254 286.115 250.932 286.642 251.69C288.153 253.863 289.948 256.229 292.02 258.707C292.478 259.256 292.405 260.071 291.855 260.529C291.306 260.987 290.489 260.913 290.03 260.365C287.907 257.826 286.066 255.399 284.513 253.165L284.195 252.705C283.885 252.254 283.603 251.832 283.348 251.442L283.213 251.235L283.185 251.242C282.207 251.48 280.969 251.393 278.743 251.089L277.316 250.891C277.187 250.873 277.068 250.858 276.949 250.843L276.859 250.832C276.312 250.765 275.841 250.72 275.401 250.696C275.104 250.679 274.68 250.716 274.175 250.803C273.824 250.864 273.446 250.946 273.055 251.044C272.814 251.104 272.58 251.168 272.356 251.232L272.002 251.338C271.901 251.369 271.826 251.393 271.782 251.408C271.305 251.566 270.783 251.435 270.438 251.078L270.38 251.012L264.998 244.614L264.684 244.674C263.234 244.944 261.74 245.168 260.446 245.292L260.127 245.321L259.797 245.347C257.153 245.547 255.721 245.344 255.19 244.043C254.693 242.866 255.367 241.988 256.696 241.044C257.511 240.464 258.667 239.824 260.133 239.117C260.816 238.787 261.561 238.446 262.364 238.093L262.712 237.941C263.666 237.526 264.666 237.109 265.748 236.671L266.755 236.267L268.737 235.483C270.29 234.872 273.011 234.414 277.148 233.935Z" fill="#542FA0"/>
<path fill-rule="evenodd" clip-rule="evenodd" d="M270.551 238.971C270.551 238.971 263.727 243.283 264.331 245.956C264.936 248.629 267.053 247.809 267.053 247.809" fill="white"/>
<path fill-rule="evenodd" clip-rule="evenodd" d="M269.826 237.899L269.858 237.879C270.463 237.497 271.263 237.676 271.646 238.28C272.015 238.861 271.861 239.623 271.31 240.02L270.999 240.224L270.742 240.396C270.609 240.487 270.468 240.584 270.32 240.688C269.616 241.183 268.912 241.718 268.26 242.27C267.418 242.983 266.729 243.668 266.251 244.287C265.738 244.954 265.545 245.45 265.595 245.671C265.733 246.279 265.914 246.514 266.109 246.595C266.21 246.637 266.348 246.644 266.486 246.622L266.59 246.601L266.584 246.604C267.251 246.345 268.002 246.676 268.261 247.342C268.519 248.008 268.188 248.757 267.521 249.015C267.428 249.051 267.3 249.092 267.141 249.129C266.498 249.277 265.805 249.27 265.115 248.984C264.098 248.563 263.381 247.628 263.067 246.241C262.807 245.091 263.259 243.928 264.197 242.711C264.802 241.925 265.614 241.118 266.584 240.297C267.301 239.69 268.064 239.11 268.827 238.574C268.987 238.461 269.141 238.355 269.286 238.257L269.566 238.069C269.679 237.994 269.767 237.936 269.826 237.899Z" fill="#542FA0"/>
<path fill-rule="evenodd" clip-rule="evenodd" d="M272.193 241.774C272.193 241.774 266.448 246.128 267.269 248.758C268.089 251.388 270.119 250.396 270.119 250.396" fill="white"/>
<path fill-rule="evenodd" clip-rule="evenodd" d="M271.409 240.744C271.979 240.312 272.792 240.423 273.224 240.992C273.657 241.56 273.546 242.372 272.976 242.804L272.785 242.953L272.583 243.116C272.477 243.203 272.365 243.295 272.248 243.394C271.691 243.866 271.134 244.377 270.617 244.904C269.921 245.616 269.357 246.301 268.979 246.918C268.558 247.604 268.424 248.111 268.506 248.373C268.679 248.928 268.871 249.167 269.054 249.249C269.169 249.3 269.333 249.297 269.503 249.247L269.554 249.232L269.55 249.234C270.192 248.92 270.968 249.186 271.283 249.828C271.598 250.469 271.332 251.244 270.689 251.558C270.58 251.611 270.428 251.672 270.237 251.728C269.526 251.938 268.756 251.95 267.995 251.609C267.087 251.204 266.414 250.368 266.031 249.143C265.68 248.018 265.996 246.826 266.769 245.567C267.263 244.762 267.942 243.936 268.763 243.097C269.341 242.506 269.957 241.942 270.573 241.421L270.835 241.201C271.082 240.998 271.278 240.843 271.409 240.744Z" fill="#542FA0"/>
<path fill-rule="evenodd" clip-rule="evenodd" d="M274.309 245.136C274.309 245.136 267.484 250.482 271.717 251.819C275.907 253.155 277.246 252.121 277.246 252.121C277.246 252.121 278.715 249.793 274.352 249.318" fill="white"/>
<path fill-rule="evenodd" clip-rule="evenodd" d="M273.509 244.119C274.072 243.678 274.887 243.776 275.329 244.338C275.754 244.878 275.679 245.651 275.172 246.101L274.961 246.273C274.835 246.377 274.693 246.497 274.54 246.63C274.101 247.012 273.663 247.423 273.258 247.846C272.755 248.371 272.342 248.873 272.052 249.325L271.947 249.491C271.459 250.273 271.51 250.397 272.112 250.587C273.959 251.176 275.24 251.304 276.05 251.173L276.118 251.161C276.077 251.126 276.022 251.089 275.945 251.046L275.883 251.013C275.531 250.833 274.98 250.688 274.212 250.604C273.501 250.527 272.987 249.888 273.064 249.178C273.142 248.468 273.781 247.955 274.493 248.033C276.611 248.263 277.955 248.949 278.519 250.115C278.886 250.873 278.843 251.639 278.575 252.336C278.498 252.537 278.415 252.696 278.343 252.81C278.262 252.938 278.16 253.051 278.04 253.143C277.862 253.28 277.598 253.422 277.24 253.54C275.914 253.977 273.977 253.897 271.327 253.052C268.727 252.231 268.472 250.108 269.87 247.93C270.262 247.319 270.776 246.694 271.385 246.058C271.849 245.574 272.343 245.11 272.837 244.681L273.087 244.466C273.266 244.314 273.411 244.196 273.509 244.119Z" fill="#542FA0"/>
<path fill-rule="evenodd" clip-rule="evenodd" d="M267.355 344.252C267.355 344.252 316.855 292 327.653 279.885C338.451 267.77 358.277 269.754 366.181 279.669C374.086 289.585 414.515 353.09 414.515 353.09L368.212 364.04L351.409 316.358L325.277 365.118L267.355 344.252Z" fill="white"/>
<path fill-rule="evenodd" clip-rule="evenodd" d="M326.685 279.025L325.87 279.935C321.521 284.762 312.496 294.459 300.078 307.679L295.877 312.149C289.841 318.566 283.463 325.329 277.07 332.096L266.414 343.363C265.772 344.04 266.037 345.152 266.915 345.468L324.838 366.334L324.914 366.359C325.499 366.53 326.129 366.271 326.42 365.728L351.164 319.559L366.99 364.469C367.209 365.093 367.866 365.451 368.511 365.299L414.814 354.348C415.655 354.149 416.062 353.204 415.649 352.463L415.542 352.291L410.977 345.143L406.677 338.434C401.792 330.822 396.907 323.249 392.26 316.097L388.644 310.543C377.752 293.852 370.176 282.602 367.196 278.864C363.051 273.665 355.816 270.459 348.042 270.223C339.846 269.975 332.046 273.011 326.685 279.025ZM347.964 272.809C355.015 273.022 361.528 275.909 365.168 280.475L365.36 280.718C368.498 284.729 376.37 296.452 387.529 313.576L389.391 316.436C394.01 323.54 398.881 331.085 403.763 338.688L407.875 345.101L412.444 352.25L369.047 362.513L352.632 315.929L352.604 315.855C352.189 314.863 350.786 314.779 350.267 315.748L324.663 363.521L269.656 343.705L278.042 334.837L287.143 325.197C289.551 322.644 291.936 320.113 294.281 317.622L303.217 308.119C315.008 295.56 323.583 286.342 327.802 281.658L328.622 280.745C333.449 275.329 340.504 272.583 347.964 272.809Z" fill="#542FA0"/>
<path fill-rule="evenodd" clip-rule="evenodd" d="M267.355 344.252L343.116 333.517C346.356 333.215 349.639 333.258 352.921 333.56L425.313 342.527L425.141 377.62L246.104 377.75L267.355 344.252Z" fill="white"/>
<path fill-rule="evenodd" clip-rule="evenodd" d="M342.996 332.229L342.934 332.236L267.173 342.971C266.797 343.024 266.464 343.239 266.26 343.56L245.009 377.058C244.463 377.919 245.083 379.044 246.105 379.043L425.142 378.914C425.854 378.913 426.433 378.338 426.436 377.627L426.609 342.533C426.612 341.878 426.124 341.324 425.473 341.244L353.081 332.276L353.04 332.272C349.555 331.951 346.211 331.929 342.996 332.229ZM352.782 334.846L424.012 343.669L423.851 376.328L248.459 376.455L268.129 345.448L343.263 334.802L343.237 334.804C346.125 334.535 349.136 334.54 352.278 334.802L352.782 334.846Z" fill="#542FA0"/>
<path fill-rule="evenodd" clip-rule="evenodd" d="M345.535 273.849C343.98 273.547 342.425 274.539 342.123 276.091L331.757 329.076L279.018 336.19L279.19 337.354C279.493 339.595 281.566 341.191 283.812 340.889L334.046 334.12C336.292 333.818 337.89 331.749 337.588 329.507L347.781 277.298C348.084 275.703 347.09 274.194 345.535 273.849Z" fill="#F0C449"/>
<path fill-rule="evenodd" clip-rule="evenodd" d="M580.464 337.742L579.039 357.789C579.039 357.789 600.204 368.265 598.303 379.086L553.641 378.914L554.419 340.285L580.464 337.742Z" fill="#F0C449"/>
<path fill-rule="evenodd" clip-rule="evenodd" d="M538.177 170.164C557.96 173.398 557.355 181.848 564.05 194.523C570.745 207.198 588.584 357.832 588.584 357.832L536.147 358.565L533.124 248.887L512.607 346.968L450.927 347.528C450.927 347.528 503.666 201.981 508.201 192.281C512.736 182.624 517.833 178.7 524.528 176.89C531.223 175.079 538.177 170.164 538.177 170.164Z" fill="#0B4870"/>
<path fill-rule="evenodd" clip-rule="evenodd" d="M607.158 171.975C596.705 153.307 574.763 122.31 564.785 118.99C564.569 118.904 564.353 118.818 564.094 118.774L554.289 116.921C548.803 124.077 537.659 131.536 528.027 129.337C512.737 125.845 519.043 112.265 519.605 111.316L524.486 112.394L523.924 111.144L520.209 110.411C516.452 109.505 511.571 109.764 505.48 111.79C490.233 116.921 454.685 129.078 454.685 129.078L469.846 150.634C469.846 150.634 474.856 148.134 491.011 142.831C494.207 141.796 497.749 140.762 501.291 139.727C501.895 147.013 505.696 155.506 515.069 164.991C519.821 170.897 538.696 173.398 538.696 173.398C544.268 174.993 555.714 166.112 558.738 161.068C559.731 159.429 560.768 157.576 561.805 155.549C572.646 169.819 589.751 190.944 589.751 190.944L594.286 189.78C604.566 185.34 612.168 180.942 607.158 171.975Z" fill="#2E186A"/>
<path fill-rule="evenodd" clip-rule="evenodd" d="M541.071 93.4676L542.497 94.4161C542.497 94.4161 551.049 99.0722 553.727 90.4498C555.757 83.8967 549.494 81.8704 546.341 81.2668" fill="white"/>
<path fill-rule="evenodd" clip-rule="evenodd" d="M545.069 81.0232C545.204 80.3217 545.883 79.8621 546.585 79.9966C548.977 80.4545 551.156 81.2774 552.801 82.6285C555.169 84.5733 556.041 87.3583 554.965 90.8327C553.841 94.452 551.622 96.4169 548.706 96.8668C547.013 97.1281 545.257 96.8607 543.547 96.2648C542.799 96.0041 542.223 95.74 541.877 95.5515L541.827 95.523L541.778 95.4922L540.353 94.5438C539.758 94.1475 539.597 93.3445 539.994 92.7502C540.376 92.1779 541.136 92.0077 541.724 92.3497L541.791 92.3915L543.162 93.3042L543.326 93.3843L543.439 93.4369C543.724 93.5677 544.048 93.6994 544.401 93.8227C545.744 94.2908 547.1 94.4972 548.31 94.3104C550.233 94.0138 551.655 92.7546 552.489 90.0677C553.251 87.609 552.72 85.911 551.155 84.626C549.91 83.6036 548.102 82.9208 546.097 82.5371C545.394 82.4025 544.934 81.7248 545.069 81.0232Z" fill="#2E186A"/>
<path fill-rule="evenodd" clip-rule="evenodd" d="M521.203 105.108L524.485 112.351L519.604 111.273C519.086 112.221 512.78 125.802 528.027 129.294C538.048 131.579 549.667 123.474 554.894 116.058L546.428 114.506L539.517 97.8651L521.203 105.108Z" fill="white"/>
<path fill-rule="evenodd" clip-rule="evenodd" d="M520.726 103.905L520.653 103.937C520.016 104.234 519.728 104.992 520.022 105.641L522.238 110.529L519.885 110.01C519.321 109.886 518.744 110.148 518.467 110.654C518.151 111.232 517.679 112.384 517.314 113.637C516.758 115.545 516.483 117.502 516.611 119.416C516.976 124.858 520.479 128.892 527.738 130.554C532.768 131.701 538.389 130.493 543.888 127.444C548.685 124.784 553.11 120.837 555.954 116.803L555.997 116.738C556.473 115.972 556.032 114.952 555.128 114.786L547.355 113.361L540.714 97.3698C540.443 96.7173 539.698 96.4024 539.04 96.6626L520.726 103.905ZM538.808 99.5365L545.231 115.002L545.267 115.081C545.448 115.445 545.79 115.705 546.194 115.778L552.591 116.951L552.516 117.043C546.359 124.54 536.093 129.806 528.316 128.033C522.165 126.624 519.485 123.537 519.197 119.243C519.091 117.662 519.325 115.997 519.802 114.359L519.88 114.1C520.011 113.673 520.154 113.267 520.302 112.889L520.353 112.763L524.206 113.614L524.275 113.627C525.285 113.797 526.096 112.767 525.666 111.818L522.944 105.811L538.808 99.5365Z" fill="#2E186A"/>
<path fill-rule="evenodd" clip-rule="evenodd" d="M556.875 117.8C563.503 115.303 567.114 108.619 564.94 102.872C562.766 97.1257 555.631 94.4917 549.003 96.9894C542.375 99.4871 538.764 106.171 540.938 111.917C543.112 117.664 550.247 120.298 556.875 117.8Z" fill="#2E186A"/>
<path fill-rule="evenodd" clip-rule="evenodd" d="M569.355 127.316C574.51 125.373 577.316 120.169 575.622 115.692C573.929 111.215 568.377 109.16 563.222 111.103C558.067 113.045 555.261 118.25 556.954 122.727C558.648 127.204 564.2 129.259 569.355 127.316Z" fill="#2E186A"/>
<path fill-rule="evenodd" clip-rule="evenodd" d="M580.311 136.252C584.93 134.512 587.445 129.85 585.929 125.841C584.412 121.831 579.438 119.992 574.818 121.733C570.199 123.474 567.684 128.135 569.2 132.145C570.717 136.154 575.691 137.993 580.311 136.252Z" fill="#2E186A"/>
<path fill-rule="evenodd" clip-rule="evenodd" d="M592.04 138.735C593.163 142.098 591.003 145.892 587.159 147.229C583.315 148.565 579.255 146.927 578.132 143.607C577.009 140.288 578.996 136.278 582.84 134.942C586.684 133.562 590.917 135.373 592.04 138.735Z" fill="#2E186A"/>
<path fill-rule="evenodd" clip-rule="evenodd" d="M599.124 147.789C599.21 151.41 601.024 152.876 602.752 153.437C603.573 153.695 603.616 154.859 602.838 155.161C598.26 156.972 590.01 159.171 587.462 152.747C586.252 149.729 587.721 146.065 591.09 144.469C594.502 142.874 599.037 144.513 599.124 147.789Z" fill="#2E186A"/>
<path fill-rule="evenodd" clip-rule="evenodd" d="M562.248 109.901C562.912 109.217 564.006 109.199 564.691 109.862C565.354 110.502 565.392 111.543 564.795 112.23L564.731 112.3L558.165 119.069C557.502 119.753 556.408 119.771 555.722 119.108C555.06 118.468 555.021 117.426 555.619 116.739L555.683 116.67L562.248 109.901Z" fill="#F0C449"/>
<path fill-rule="evenodd" clip-rule="evenodd" d="M574.338 120.298C575.045 119.659 576.138 119.713 576.778 120.42C577.397 121.102 577.367 122.144 576.725 122.79L576.657 122.855L570.739 128.201C570.032 128.84 568.939 128.786 568.299 128.08C567.68 127.397 567.71 126.356 568.352 125.71L568.42 125.644L574.338 120.298Z" fill="#F0C449"/>
<path fill-rule="evenodd" clip-rule="evenodd" d="M581.761 133.703C582.542 133.155 583.619 133.344 584.168 134.123C584.698 134.877 584.539 135.909 583.82 136.471L583.746 136.525L581.716 137.948C580.935 138.495 579.858 138.307 579.309 137.528C578.779 136.773 578.938 135.742 579.657 135.18L579.731 135.125L581.761 133.703Z" fill="#F0C449"/>
<path fill-rule="evenodd" clip-rule="evenodd" d="M589.251 143.281C590.005 142.696 591.09 142.831 591.676 143.583C592.242 144.31 592.134 145.346 591.446 145.943L591.373 146.003L589.429 147.512C588.676 148.097 587.59 147.961 587.005 147.21C586.438 146.483 586.546 145.446 587.234 144.85L587.308 144.79L589.251 143.281Z" fill="#F0C449"/>
<path fill-rule="evenodd" clip-rule="evenodd" d="M510.447 77.2143C509.281 81.1806 505.955 99.9344 518.006 104.591C530.057 109.247 541.374 99.8913 545.65 88.3372C549.926 76.7832 547.248 65.4878 539.689 62.3837C532.13 59.2365 518.913 48.5878 510.447 77.2143Z" fill="white"/>
<path fill-rule="evenodd" clip-rule="evenodd" d="M523.72 56.8564C517.708 58.2803 512.938 64.4251 509.314 76.4829L509.204 76.8501C508.205 80.2463 507.53 85.858 507.98 90.7617C508.654 98.1049 511.638 103.517 517.539 105.797C529.446 110.397 541.896 102.214 546.866 88.7854C551.293 76.8223 548.591 64.8595 540.431 61.2931L539.942 61.0857C539.574 60.9271 539.168 60.741 538.674 60.5057L536.219 59.3171L535.701 59.0726C530.836 56.8007 527.41 55.9826 523.72 56.8564ZM511.635 77.771L511.69 77.5805C515.092 66.0783 519.337 60.5531 524.318 59.3733C527.338 58.6581 530.346 59.4039 534.852 61.5328L535.593 61.8882C536.206 62.1852 537.07 62.6063 537.204 62.6707L537.735 62.9245C538.293 63.1884 538.752 63.395 539.19 63.5774C546.025 66.3842 548.479 76.9618 544.434 87.8891C539.915 100.102 528.832 107.386 518.474 103.384C513.652 101.522 511.154 96.9903 510.561 90.5258C510.151 86.0613 510.754 80.8941 511.635 77.771Z" fill="#2E186A"/>
<path fill-rule="evenodd" clip-rule="evenodd" d="M522.758 92.4329C520.295 92.864 518.438 92.1742 517.401 91.6569C516.926 91.4413 516.408 91.7 516.322 92.2174C516.062 93.6832 516.149 96.2699 519.388 97.0459C522.801 97.865 523.492 94.8903 523.665 93.2089C523.708 92.7778 523.276 92.3467 522.758 92.4329Z" fill="#2E186A"/>
<path fill-rule="evenodd" clip-rule="evenodd" d="M522.09 71.1749C522.378 70.5211 523.143 70.2244 523.798 70.5121C524.429 70.7896 524.728 71.5092 524.49 72.1465L524.462 72.2169L518.723 85.2314L521.015 85.8366C521.682 86.0126 522.09 86.6771 521.954 87.3435L521.937 87.4176C521.76 88.0835 521.095 88.4902 520.427 88.3547L520.353 88.3374L516.595 87.3458C515.851 87.1495 515.447 86.357 515.711 85.6475L515.74 85.5744L522.09 71.1749Z" fill="#2E186A"/>
<path fill-rule="evenodd" clip-rule="evenodd" d="M526.245 72.8004C528.261 71.8997 530.089 72.5545 531.532 74.0683C531.85 74.4025 532.126 74.7562 532.363 75.1106L532.464 75.2659C532.558 75.4129 532.627 75.5343 532.674 75.622C533.006 76.2547 532.762 77.0364 532.128 77.3681C531.517 77.6876 530.769 77.4732 530.417 76.892L530.351 76.7744C530.321 76.7225 530.272 76.6436 530.207 76.5453C530.048 76.3076 529.862 76.0692 529.653 75.8507C528.918 75.0786 528.201 74.8038 527.394 75.1233L527.304 75.1613C526.651 75.4532 525.884 75.1614 525.592 74.5094C525.3 73.8575 525.592 73.0923 526.245 72.8004Z" fill="#2E186A"/>
<path fill-rule="evenodd" clip-rule="evenodd" d="M515.848 65.3846C517.783 64.1693 519.736 64.6318 521.401 66.0206C521.954 66.4812 522.358 66.9404 522.6 67.2757C523.018 67.8553 522.886 68.6636 522.305 69.081C521.747 69.4823 520.977 69.3761 520.546 68.852L520.446 68.722C520.414 68.6825 520.37 68.6298 520.315 68.567C520.146 68.3754 519.952 68.1828 519.739 68.0055C518.874 67.284 518.091 67.0807 517.311 67.5241L517.228 67.5741C516.622 67.9545 515.822 67.7726 515.441 67.168C515.06 66.5634 515.242 65.7649 515.848 65.3846Z" fill="#2E186A"/>
<path fill-rule="evenodd" clip-rule="evenodd" d="M527.001 82.8216C527.227 81.7255 526.842 80.7201 526.141 80.5761C525.44 80.4321 524.689 81.204 524.463 82.3001C524.237 83.3962 524.622 84.4016 525.323 84.5456C526.024 84.6896 526.775 83.9177 527.001 82.8216Z" fill="#2E186A"/>
<path fill-rule="evenodd" clip-rule="evenodd" d="M514.663 80.4734C514.889 79.3773 514.504 78.3719 513.803 78.2279C513.102 78.0839 512.351 78.8558 512.125 79.9519C511.899 81.0481 512.284 82.0534 512.985 82.1974C513.686 82.3414 514.437 81.5696 514.663 80.4734Z" fill="#2E186A"/>
<path fill-rule="evenodd" clip-rule="evenodd" d="M520.788 78.7239C519.892 84.963 523.252 90.9396 528.48 91.9956C533.707 93.0516 538.547 88.7314 539.443 82.4923C540.339 76.2533 536.979 70.2767 531.752 69.2207C526.524 68.1647 521.685 72.4849 520.788 78.7239ZM522.767 79.1248C523.532 73.8002 527.506 70.2544 531.489 71.0585C535.471 71.8627 538.23 76.7681 537.465 82.0927C536.699 87.4173 532.726 90.9631 528.743 90.159C524.761 89.3548 522.002 84.4494 522.767 79.1248Z" fill="#F0C449"/>
<path fill-rule="evenodd" clip-rule="evenodd" d="M499.731 74.67C498.834 80.9091 502.195 86.8857 507.422 87.9417C512.649 88.9977 517.489 84.6775 518.385 78.4384C519.282 72.1994 515.921 66.2228 510.694 65.1668C505.466 64.1108 500.627 68.431 499.731 74.67ZM501.709 75.0709C502.475 69.7463 506.449 66.2005 510.431 67.0046C514.413 67.8088 517.173 72.7142 516.407 78.0388C515.642 83.3634 511.668 86.9092 507.686 86.1051C503.703 85.301 500.944 80.3955 501.709 75.0709Z" fill="#F0C449"/>
<path fill-rule="evenodd" clip-rule="evenodd" d="M516.577 75.092C516.673 74.5887 517.143 74.2512 517.645 74.3109L517.714 74.3215L522.681 75.27C523.208 75.3706 523.554 75.8788 523.453 76.405C523.356 76.9083 522.886 77.2458 522.384 77.1861L522.316 77.1755L517.349 76.227C516.821 76.1263 516.476 75.6182 516.577 75.092Z" fill="#F0C449"/>
<path fill-rule="evenodd" clip-rule="evenodd" d="M537.516 77.896C537.68 77.4104 538.192 77.1397 538.681 77.2669L538.747 77.2867L550.021 81.0806C550.53 81.2517 550.803 81.802 550.631 82.3097C550.467 82.7952 549.956 83.0659 549.466 82.9388L549.4 82.9189L538.126 79.1251C537.618 78.9539 537.345 78.4036 537.516 77.896Z" fill="#F0C449"/>
<path fill-rule="evenodd" clip-rule="evenodd" d="M560.422 75.2311C559.515 69.2385 550.617 59.3227 542.454 59.4089C531.914 48.7171 516.149 37.9821 506.949 56.8222C505.998 58.8054 507.078 61.2196 509.195 61.6939L539.171 69.4541C539.992 73.9809 542.324 81.1375 548.63 83.9829C550.444 84.802 551.697 84.7158 552.475 83.9829C553.9 85.4056 554.677 87.4319 553.727 90.3635C551.222 98.4255 543.534 94.8903 542.583 94.373C541.028 96.7872 539.128 98.986 536.968 100.797C543.49 104.375 550.617 106.056 554.893 100.366C560.509 93.0796 561.632 83.5949 560.422 75.2311Z" fill="#2E186A"/>
<path fill-rule="evenodd" clip-rule="evenodd" d="M419.482 93.1227L417.927 96.4423L419.871 101.4L423.758 102.306C423.758 102.306 426.609 100.883 424.104 99.2446C421.599 97.6064 421.815 98.2531 421.815 98.2531L422.247 95.7957L427.387 92.9071" fill="white"/>
<path fill-rule="evenodd" clip-rule="evenodd" d="M426.751 91.7801C427.375 91.4297 428.165 91.6502 428.516 92.2726C428.854 92.872 428.662 93.6255 428.09 93.9935L428.023 94.0342L423.417 96.6221L423.305 97.2598L423.309 97.2622C423.681 97.454 424.128 97.7186 424.666 98.066L424.814 98.1628C425.928 98.8908 426.51 99.808 426.422 100.847C426.354 101.648 425.921 102.286 425.287 102.825C424.937 103.124 424.596 103.334 424.338 103.462C424.098 103.582 423.827 103.624 423.563 103.584L423.464 103.565L419.577 102.66C419.189 102.569 418.866 102.307 418.698 101.95L418.665 101.872L416.721 96.9137C416.602 96.6113 416.602 96.2766 416.719 95.9757L416.754 95.8946L418.309 92.5749C418.612 91.9279 419.383 91.6485 420.031 91.9511C420.656 92.2424 420.938 92.967 420.688 93.5981L420.656 93.6705L419.337 96.4872L420.829 100.295L423.524 100.923L423.544 100.908L423.606 100.857C423.66 100.811 423.704 100.769 423.738 100.734L423.804 100.663L423.792 100.649C423.727 100.575 423.623 100.484 423.473 100.38L423.394 100.326L423.149 100.168C422.716 99.8915 422.375 99.6919 422.125 99.5623L422.051 99.5244L422.01 99.5318C421.46 99.6134 420.86 99.3588 420.614 98.7383L420.586 98.6621L420.558 98.5683C420.554 98.5514 420.549 98.5298 420.542 98.4974C420.504 98.3055 420.499 98.1019 420.557 97.8782L420.578 97.8064L420.971 95.5722C421.033 95.2198 421.238 94.9101 421.535 94.715L421.611 94.6687L426.751 91.7801Z" fill="#2E186A"/>
<path fill-rule="evenodd" clip-rule="evenodd" d="M416.718 94.5885L415.163 97.9082L417.107 102.866L420.994 103.771C420.994 103.771 423.845 102.349 421.34 100.71C418.835 99.0722 419.05 99.7189 419.05 99.7189L419.482 97.2615L424.622 94.373" fill="white"/>
<path fill-rule="evenodd" clip-rule="evenodd" d="M423.987 93.2459C424.61 92.8955 425.4 93.116 425.752 93.7384C426.09 94.3378 425.897 95.0913 425.326 95.4593L425.258 95.5L420.652 98.0879L420.54 98.7256L420.544 98.7281C420.916 98.9198 421.363 99.1844 421.901 99.5318L422.05 99.6286C423.163 100.357 423.746 101.274 423.658 102.313C423.589 103.114 423.157 103.752 422.523 104.291C422.172 104.589 421.831 104.8 421.574 104.928C421.333 105.048 421.062 105.09 420.798 105.05L420.7 105.031L416.812 104.126C416.424 104.035 416.101 103.772 415.934 103.415L415.9 103.337L413.956 98.3795C413.838 98.0771 413.838 97.7424 413.954 97.4415L413.989 97.3604L415.544 94.0407C415.847 93.3937 416.618 93.1143 417.267 93.4169C417.891 93.7082 418.174 94.4328 417.923 95.0639L417.892 95.1363L416.572 97.953L418.065 101.761L420.76 102.388L420.779 102.374L420.841 102.323C420.895 102.277 420.939 102.235 420.973 102.2L421.039 102.129L421.028 102.115C420.963 102.041 420.858 101.949 420.708 101.845L420.63 101.792L420.384 101.634C419.952 101.357 419.611 101.158 419.361 101.028L419.287 100.99L419.246 100.998C418.695 101.079 418.095 100.825 417.849 100.204L417.821 100.128L417.794 100.034C417.79 100.017 417.785 99.9956 417.777 99.9632C417.739 99.7713 417.734 99.5677 417.792 99.344L417.813 99.2722L418.206 97.038C418.268 96.6856 418.473 96.3759 418.77 96.1808L418.847 96.1345L423.987 93.2459Z" fill="#2E186A"/>
<path fill-rule="evenodd" clip-rule="evenodd" d="M413.608 95.0628L411.88 98.6842L413.997 104.073L418.23 105.065C418.23 105.065 421.34 103.513 418.619 101.745C415.897 99.9775 416.157 100.667 416.157 100.667L416.632 97.9944L422.247 94.8472" fill="white"/>
<path fill-rule="evenodd" clip-rule="evenodd" d="M421.612 93.7195C422.236 93.3697 423.026 93.5911 423.376 94.2139C423.714 94.8137 423.521 95.567 422.949 95.9343L422.881 95.9749L417.8 98.8221L417.65 99.6667L417.673 99.6782C418.078 99.8853 418.571 100.176 419.173 100.563L419.325 100.661C420.505 101.428 421.117 102.388 421.021 103.473C420.948 104.306 420.491 104.975 419.821 105.543C419.447 105.861 419.083 106.085 418.809 106.222C418.568 106.342 418.297 106.384 418.032 106.343L417.934 106.324L413.701 105.332C413.314 105.242 412.991 104.979 412.824 104.623L412.79 104.545L410.674 99.1562C410.554 98.851 410.555 98.5128 410.675 98.2098L410.71 98.1281L412.438 94.5067C412.746 93.8618 413.519 93.5879 414.165 93.895C414.787 94.1907 415.065 94.9174 414.81 95.5467L414.778 95.6188L413.291 98.7338L414.955 102.969L418.003 103.683L418.079 103.625L418.143 103.572C418.271 103.464 418.355 103.368 418.4 103.309L418.425 103.273L418.405 103.245C418.332 103.148 418.198 103.024 417.992 102.883L417.912 102.829L417.528 102.584C417.125 102.331 416.799 102.141 416.55 102.01L416.406 101.936L416.373 101.943C415.831 102.032 415.236 101.795 414.973 101.195L414.943 101.121L414.917 101.047C414.911 101.025 414.904 100.998 414.89 100.945C414.848 100.761 414.836 100.567 414.882 100.35L414.905 100.255L414.926 100.187L415.356 97.7684C415.418 97.4165 415.624 97.1075 415.921 96.9129L415.997 96.8667L421.612 93.7195Z" fill="#2E186A"/>
<path fill-rule="evenodd" clip-rule="evenodd" d="M430.237 90.4497C426.738 90.4929 422.635 90.536 422.635 90.536C422.635 90.536 414.385 92.1311 413.089 92.3467C411.794 92.5622 405.401 95.7526 405.703 96.4423C406.351 98.1668 411.707 97.089 414.428 95.925C417.149 94.8041 423.283 95.9681 423.283 95.9681C423.283 95.9681 424.967 101.098 423.844 101.098C422.721 101.098 416.545 100.624 415.595 102.521C414.644 104.418 415.076 105.884 417.452 105.625C419.827 105.367 423.197 106.919 423.197 106.919C423.197 106.919 431.835 105.453 433.952 104.375C436.068 103.297 444.88 123.905 453.345 137.399C461.811 150.893 467.427 152.273 474.424 146.884C481.205 141.667 472.221 129.294 468.074 124.81C464.792 121.232 446.262 102.047 438.487 93.9418C436.327 91.6569 433.347 90.4066 430.237 90.4497Z" fill="white"/>
<path fill-rule="evenodd" clip-rule="evenodd" d="M430.219 89.1565L422.622 89.2427C422.543 89.2435 422.466 89.2514 422.389 89.2662L416.314 90.4318C414.898 90.701 413.84 90.8993 413.25 91.0056L412.877 91.0709C412.058 91.2071 410.095 92.0667 408.191 93.0738L407.79 93.2883C407.006 93.7146 406.323 94.1233 405.809 94.4789C405.448 94.7292 405.162 94.9576 404.948 95.1796L404.89 95.2409C404.454 95.7122 404.224 96.2061 404.48 96.8728L404.49 96.8965C405.089 98.4903 406.892 98.84 409.435 98.552C411.242 98.3472 413.389 97.7768 414.939 97.1138C415.607 96.8387 416.753 96.7081 418.195 96.7345C419.202 96.7528 420.291 96.8444 421.389 96.9857L421.646 97.0197C421.815 97.0427 421.98 97.0662 422.138 97.0899L422.279 97.1114L422.35 97.358C422.402 97.5426 422.454 97.7305 422.504 97.9194C422.585 98.2287 422.657 98.5273 422.719 98.8094L422.75 98.9545C422.81 99.2406 422.856 99.5005 422.888 99.7268L422.894 99.7775L422.95 99.7794C421.691 99.7399 420.693 99.7388 419.666 99.8018L419.309 99.8262C416.791 100.018 415.126 100.565 414.436 101.943C412.993 104.823 414.223 107.278 417.593 106.911C417.98 106.869 418.451 106.889 418.985 106.969C419.632 107.067 420.34 107.247 421.068 107.486C421.478 107.621 421.868 107.766 422.224 107.91L422.49 108.021C422.562 108.052 422.618 108.076 422.654 108.093C422.862 108.189 423.09 108.227 423.317 108.206L423.456 108.187L424.734 107.959C424.881 107.933 425.032 107.905 425.187 107.876C426.513 107.63 427.84 107.367 429.082 107.098L429.632 106.976C430.621 106.755 431.502 106.54 432.252 106.332L432.438 106.28C433.051 106.106 433.566 105.939 433.984 105.774L434.039 105.752L434.092 105.806C434.254 105.977 434.451 106.216 434.676 106.52L434.761 106.637C435.473 107.62 436.383 109.126 437.552 111.238L437.96 111.982C439.653 115.114 444.771 124.909 445.974 127.144L446.652 128.397C448.138 131.131 449.492 133.528 450.792 135.704L450.986 136.029C451.414 136.742 451.834 137.427 452.248 138.085C460.688 151.539 467.108 154.152 475.216 147.908C478.865 145.101 478.973 140.532 476.532 135.047C474.864 131.3 472.002 127.203 469.25 124.176L468.276 123.125C466.593 121.327 463.296 117.877 458.171 112.541L439.423 93.0474C437.028 90.5127 433.702 89.1082 430.219 89.1565ZM430.255 91.743C432.949 91.7056 435.521 92.765 437.414 94.6934L461.094 119.329C464.243 122.62 466.216 124.699 467.119 125.684C469.764 128.543 472.578 132.537 474.163 136.097C476.177 140.621 476.098 143.963 473.633 145.859C466.977 150.986 462.172 149.03 454.444 136.713C454.121 136.197 453.793 135.665 453.46 135.115L453.209 134.699C451.744 132.259 450.205 129.53 448.483 126.338L447.92 125.29C446.24 122.128 441.429 112.928 440.051 110.404L439.689 109.749C438.577 107.753 437.688 106.282 436.947 105.241L436.863 105.123C436.382 104.458 435.955 103.965 435.55 103.628C434.903 103.092 434.196 102.847 433.452 103.18L433.363 103.223C433.04 103.387 432.414 103.602 431.558 103.84C430.726 104.07 429.702 104.316 428.531 104.57C427.318 104.833 426.016 105.091 424.713 105.333L423.847 105.491L423.356 105.578L423.201 105.514C422.793 105.348 422.348 105.183 421.878 105.029C421.022 104.748 420.178 104.533 419.371 104.412C418.632 104.3 417.944 104.271 417.311 104.34C416.656 104.411 416.452 104.337 416.435 104.303C416.421 104.275 416.41 104.185 416.433 104.022C416.468 103.773 416.574 103.457 416.754 103.1C416.883 102.841 418.055 102.492 419.825 102.384C420.611 102.335 421.398 102.329 422.339 102.35L423.743 102.391C423.781 102.392 423.814 102.392 423.845 102.392C424.536 102.392 425.073 101.983 425.33 101.396C425.474 101.067 425.526 100.71 425.526 100.297C425.526 99.7429 425.427 99.0619 425.251 98.2572C425.181 97.9381 425.1 97.6054 425.01 97.2634C424.929 96.9549 424.844 96.6505 424.758 96.3568L424.642 95.9692L424.514 95.5653C424.368 95.1179 423.989 94.7855 423.525 94.6975L423.182 94.6367L423.015 94.609C422.621 94.5445 422.186 94.4802 421.72 94.4202C420.535 94.2677 419.355 94.1685 418.242 94.1482C416.475 94.1159 415.022 94.2815 413.934 94.7294C412.599 95.3003 410.698 95.8055 409.142 95.9818L408.983 95.9988C408.72 96.0251 408.473 96.0413 408.244 96.0473L408.165 96.0483L408.28 95.9817C408.62 95.7836 408.999 95.5738 409.404 95.3596L409.672 95.2191C411.198 94.4282 412.791 93.7328 413.264 93.63L413.776 93.5392C414.185 93.4654 414.774 93.3558 415.521 93.215L418.107 92.7236L422.765 91.828L430.255 91.743Z" fill="#2E186A"/>
<path fill-rule="evenodd" clip-rule="evenodd" d="M550.704 208.577C550.704 208.577 593.767 194.307 606.38 182.624C612.427 177.019 599.815 159.99 575.41 180.511C551.006 201.033 529.668 196.506 529.668 196.506L550.704 208.577Z" fill="white"/>
<path fill-rule="evenodd" clip-rule="evenodd" d="M574.575 179.522C565.488 187.164 556.229 191.834 547.131 194.097C540.883 195.652 535.475 195.913 531.249 195.433L530.93 195.395C530.777 195.375 530.634 195.355 530.5 195.336L530.122 195.275L529.938 195.241C528.493 194.934 527.742 196.892 529.023 197.627L550.058 209.699C550.378 209.882 550.761 209.921 551.112 209.805L551.783 209.579C552.267 209.416 552.819 209.227 553.434 209.015L554.911 208.501C556.605 207.909 558.439 207.254 560.385 206.543C567.334 204.004 574.283 201.275 580.774 198.462L581.748 198.037C588.688 194.998 594.649 192.044 599.353 189.234C602.669 187.254 605.325 185.366 607.261 183.572C611.181 179.939 608.864 173.234 602.836 170.586C595.818 167.504 585.94 170.081 574.91 179.242L574.575 179.522ZM601.793 172.954C606.29 174.929 607.864 179.484 605.498 181.676C603.773 183.275 601.363 185 598.338 186.825L598.023 187.014C593.21 189.889 587.005 192.941 579.741 196.089C573.641 198.733 567.124 201.305 560.584 203.714L559.494 204.114C557.399 204.879 555.434 205.58 553.637 206.206L551.519 206.937L550.844 207.165L535.284 198.236L535.458 198.236C539.075 198.218 543.213 197.738 547.758 196.607C557.108 194.281 566.592 189.53 575.864 181.819L576.245 181.5C586.724 172.689 595.735 170.293 601.793 172.954Z" fill="#2E186A"/>
<path fill-rule="evenodd" clip-rule="evenodd" d="M583.92 194.048L573.726 194.307L565.001 153.351C564.828 152.445 564.051 151.798 563.23 151.798L498.699 152.79C497.533 152.79 496.669 154.04 496.928 155.291L505.135 198.963C505.696 201.679 509.109 203.749 511.571 203.706C527.423 203.447 574.979 202.542 576.836 202.498C585.388 202.455 583.92 194.048 583.92 194.048Z" fill="#F0C449"/>
<path fill-rule="evenodd" clip-rule="evenodd" d="M555.023 207.025C540.64 213.061 532.13 208.276 527.768 200.17C524.528 194.135 520.727 186.03 523.276 184.779C525.954 184.219 529.193 194.307 529.193 194.307C529.193 194.307 523.794 182.926 526.558 182.322C528.718 181.891 530.791 186.504 533.081 193.617C533.081 193.617 529.366 184.133 529.409 182.624C529.539 178.313 533.253 177.968 536.925 193.316L533.729 182.538C533.124 179.132 536.277 179.606 538.005 182.71C539.862 186.03 544.786 197.282 545.996 200.946" fill="white"/>
<path fill-rule="evenodd" clip-rule="evenodd" d="M529.233 179.376C530.241 178.428 531.593 178.611 532.718 179.647L532.796 179.72L532.91 179.834L532.92 179.819C533.371 179.19 534.082 178.836 535.001 178.887L535.104 178.894C536.585 179.023 538.13 180.271 539.136 182.079C541.025 185.455 545.985 196.781 547.226 200.542C547.45 201.22 547.081 201.951 546.401 202.175C545.721 202.398 544.989 202.03 544.765 201.351L544.669 201.067C543.332 197.192 538.636 186.49 536.872 183.338C536.29 182.292 535.505 181.617 534.993 181.49L534.969 181.485L534.963 181.518L534.957 181.572C534.94 181.737 534.948 181.947 534.986 182.201L534.993 182.247L535.87 185.203L535.89 185.255C536.651 187.271 537.397 189.76 538.114 192.718L538.185 193.015C538.57 194.622 536.237 195.272 535.707 193.759L535.682 193.683L533.403 185.997L533.361 185.887C532.532 183.733 531.73 182.294 531.017 181.602L530.936 181.526L530.889 181.485L530.876 181.521C530.799 181.749 530.731 182.103 530.709 182.548L530.704 182.661C530.701 182.784 530.837 183.377 531.085 184.209L531.119 184.324C531.26 184.79 531.432 185.322 531.63 185.912L531.72 186.178L531.729 186.198C532.474 187.861 533.253 189.97 534.117 192.614L534.314 193.222C534.827 194.814 532.484 195.645 531.874 194.088L531.37 192.783L531.296 192.587C530.949 191.678 530.603 190.753 530.271 189.846L529.939 188.927L529.597 187.966C529.541 187.807 529.487 187.652 529.434 187.5L529.303 187.122L529.23 186.962C529.052 186.575 528.877 186.219 528.704 185.892L528.63 185.754C528.144 184.854 527.692 184.221 527.296 183.863C527.231 183.803 527.169 183.754 527.113 183.714L527.07 183.686L527.069 183.717C527.064 183.836 527.066 183.978 527.078 184.141L527.086 184.241C527.161 185.091 527.451 186.27 527.915 187.677L528.002 187.936L528.098 188.129C528.201 188.337 528.303 188.551 528.406 188.771L528.509 188.993C529.004 190.072 529.468 191.221 529.89 192.37L530.032 192.762C530.077 192.889 530.121 193.013 530.163 193.132L530.365 193.724L530.427 193.912C530.913 195.425 528.785 196.291 528.057 194.929L528.022 194.861C527.993 194.8 527.941 194.688 527.868 194.53L527.719 194.201C527.641 194.029 527.558 193.845 527.473 193.65C527.064 192.725 526.655 191.747 526.273 190.76C526.055 190.197 525.852 189.646 525.666 189.111L525.613 188.958L525.57 188.872C524.937 187.653 524.333 186.751 523.824 186.293L523.761 186.238L523.759 186.253C523.742 186.375 523.734 186.523 523.738 186.696L523.741 186.802C523.781 187.635 524.064 188.807 524.573 190.251C525.461 192.766 526.96 195.926 528.909 199.558C533.607 208.286 542.093 211.048 554.521 205.833C555.18 205.556 555.94 205.866 556.217 206.524C556.495 207.182 556.185 207.941 555.525 208.218C541.891 213.939 531.97 210.71 526.626 200.781C524.618 197.04 523.071 193.778 522.129 191.11L522.006 190.754C520.746 187.05 520.694 184.605 522.704 183.619C522.801 183.571 522.904 183.536 523.01 183.514C523.507 183.41 523.99 183.467 524.453 183.653L524.477 183.664C524.515 182.346 525.006 181.384 526.203 181.078L526.304 181.054C526.976 180.92 527.596 181.016 528.182 181.32L528.247 181.356L528.271 181.242C528.434 180.51 528.722 179.898 529.151 179.457L529.233 179.376Z" fill="#2E186A"/>
<path fill-rule="evenodd" clip-rule="evenodd" d="M542.669 194.652C542.669 194.652 545.52 188.616 548.112 190.341C550.703 192.065 544.872 201.119 544.872 201.119" fill="white"/>
<path fill-rule="evenodd" clip-rule="evenodd" d="M542.994 191.587L543.181 191.331C544.563 189.492 546.023 188.454 547.717 188.796C548.108 188.874 548.482 189.032 548.831 189.265C550.634 190.464 550.374 192.814 549.005 196.087C548.711 196.791 548.365 197.527 547.979 198.283C547.538 199.144 547.068 199.988 546.598 200.781L546.406 201.102C546.344 201.205 546.284 201.303 546.226 201.397L545.963 201.818C545.576 202.419 544.774 202.593 544.172 202.207C543.57 201.821 543.396 201.02 543.783 200.419L543.939 200.171L544.101 199.908C544.185 199.77 544.274 199.621 544.367 199.464C544.812 198.714 545.256 197.916 545.67 197.107C546.028 196.406 546.346 195.73 546.614 195.091C547.085 193.962 547.378 192.997 547.458 192.273C547.495 191.94 547.484 191.685 547.438 191.52L547.419 191.46C547.411 191.438 547.404 191.428 547.399 191.422L547.393 191.417C547.32 191.368 547.259 191.342 547.204 191.331C546.798 191.249 545.98 191.871 545.099 193.096C544.768 193.556 544.458 194.056 544.18 194.556L544.043 194.809L543.924 195.038C543.881 195.122 543.854 195.178 543.842 195.204C543.537 195.85 542.764 196.127 542.117 195.822C541.47 195.517 541.192 194.747 541.498 194.101L541.585 193.92C541.666 193.759 541.776 193.549 541.913 193.304C542.236 192.721 542.598 192.138 542.994 191.587Z" fill="#2E186A"/>
<path fill-rule="evenodd" clip-rule="evenodd" d="M482.113 261.864C482.026 261.778 481.897 261.648 481.81 261.562C474.338 254.88 467.168 246.559 460.214 243.283C458.4 233.927 450.538 223.408 418.921 229.271C399.052 234.186 394.646 241.472 396.892 248.629C390.068 252.724 376.159 262.726 363.677 281.997C346.399 308.727 402.162 350.977 411.967 350.977C421.772 350.977 491.097 323.946 491.097 323.946L495.157 311.616C501.032 293.896 495.935 274.367 482.113 261.864Z" fill="#F0C449"/>
<path fill-rule="evenodd" clip-rule="evenodd" d="M460.214 243.196C460.991 247.077 460.689 250.741 460.559 252.983C460.17 262.338 455.16 266.779 454.08 270.271C460.905 266.218 467.211 256.863 470.321 250.741C468.377 248.887 463.626 244.878 460.214 243.196Z" fill="#2E186A"/>
<path fill-rule="evenodd" clip-rule="evenodd" d="M421.339 271.004C417.97 269.452 399.613 258.932 396.719 248.154C393.264 250.008 388.944 252.724 385.575 256.734C389.463 259.105 411.405 272.125 421.123 271.392C421.253 271.392 421.383 271.349 421.512 271.349C421.469 271.219 421.426 271.09 421.339 271.004Z" fill="#2E186A"/>
<path fill-rule="evenodd" clip-rule="evenodd" d="M415.163 243.24L411.232 247.292C411.232 247.292 429.935 261.476 436.025 295.707C439.999 317.953 442.029 338.819 442.029 338.819L453.605 338.216C453.605 338.216 443.757 282.86 447.774 271.176C451.791 259.493 448.12 246.344 445.398 244.231C442.677 242.032 415.163 243.24 415.163 243.24Z" fill="white"/>
<path fill-rule="evenodd" clip-rule="evenodd" d="M411.448 219.14C411.448 219.14 404.71 220.951 407.388 226.728C410.066 232.505 416.718 227.116 416.718 227.116L413.565 218.752L411.448 219.14Z" fill="white"/>
<path fill-rule="evenodd" clip-rule="evenodd" d="M413.331 217.48L411.214 217.868L411.163 217.878L411.112 217.891C410.917 217.943 410.612 218.043 410.231 218.196C409.603 218.449 408.975 218.77 408.381 219.168C405.682 220.979 404.585 223.76 406.212 227.271C407.348 229.72 409.269 230.825 411.585 230.681C412.907 230.598 414.255 230.124 415.593 229.392C416.452 228.921 417.126 228.45 417.535 228.12C417.968 227.769 418.127 227.181 417.931 226.66L414.778 218.296C414.557 217.711 413.948 217.367 413.331 217.48ZM412.733 220.219L415.154 226.64L415.058 226.703C414.833 226.846 414.594 226.988 414.347 227.124C413.314 227.689 412.304 228.044 411.424 228.099C410.16 228.178 409.244 227.652 408.564 226.184C407.525 223.941 408.105 222.47 409.827 221.315C410.259 221.025 410.73 220.785 411.201 220.595L411.291 220.559L411.454 220.498C411.555 220.461 411.639 220.433 411.704 220.413L411.742 220.401L412.733 220.219Z" fill="#2E186A"/>
<path fill-rule="evenodd" clip-rule="evenodd" d="M426.091 195.256C427.862 194.652 439.913 190.858 443.8 200.731C447.688 210.604 449.027 222.244 449.156 227.676C449.286 233.108 425.227 236.514 423.802 236.385C422.376 236.255 420.389 235.091 420.389 235.091L413.306 220.218C413.219 220.175 407.259 201.55 426.091 195.256Z" fill="white"/>
<path fill-rule="evenodd" clip-rule="evenodd" d="M428.805 193.2C427.583 193.443 426.545 193.734 425.672 194.032C416.962 196.943 412.461 202.616 411.323 209.881C410.927 212.41 410.975 214.954 411.337 217.375L411.363 217.55C411.584 218.99 411.821 220.077 412.159 220.734L412.171 220.756L412.135 220.773L419.219 235.647C419.33 235.881 419.51 236.076 419.733 236.207L419.893 236.298C420.207 236.474 420.646 236.7 421.156 236.926C421.588 237.118 422.012 237.281 422.422 237.408C422.867 237.545 423.288 237.637 423.684 237.673L423.782 237.679C425.251 237.734 431.894 236.686 437 235.462L437.371 235.372C445.703 233.329 450.532 231.018 450.452 227.645C450.264 219.797 448.346 208.739 445.006 200.258C443.085 195.378 439.216 193.055 434.225 192.773C432.447 192.673 430.619 192.839 428.805 193.2ZM414.465 219.615C414.421 219.474 414.368 219.287 414.313 219.071C414.16 218.471 414.015 217.766 413.9 216.993C413.574 214.816 413.532 212.529 413.884 210.281C414.866 204.007 418.654 199.18 426.261 196.564L426.502 196.482C427.281 196.217 428.212 195.955 429.311 195.737C430.925 195.416 432.539 195.269 434.078 195.356C438.132 195.585 441.078 197.354 442.594 201.204C445.812 209.377 447.68 220.142 447.86 227.707C447.894 229.12 443.573 231.188 436.753 232.86C434.214 233.482 431.453 234.032 428.833 234.46L427.891 234.61C425.877 234.92 424.145 235.117 423.919 235.097C423.722 235.079 423.473 235.025 423.188 234.936C422.884 234.843 422.553 234.715 422.208 234.562L421.99 234.463C421.846 234.396 421.705 234.327 421.568 234.257L421.38 234.16L414.476 219.662C414.352 219.402 414.144 219.19 413.885 219.061C414.308 219.272 414.189 218.739 414.307 219.105L414.465 219.615Z" fill="#2E186A"/>
<path fill-rule="evenodd" clip-rule="evenodd" d="M419.698 231.815L419.266 239.316L415.552 243.584C415.552 243.584 426.523 250.353 437.019 262.295C437.019 262.295 445.614 253.242 447.126 239.058L426.998 241.558L425.4 233.712L419.698 231.815Z" fill="white"/>
<path fill-rule="evenodd" clip-rule="evenodd" d="M418.405 231.741L417.998 238.802L414.574 242.736C414.068 243.317 414.182 244.202 414.802 244.639L415.298 244.958L415.728 245.24C415.98 245.407 416.255 245.592 416.551 245.795C417.908 246.725 419.423 247.826 421.056 249.094C425.725 252.718 430.396 256.938 434.753 261.706C435.188 262.183 435.619 262.664 436.045 263.148C436.548 263.72 437.435 263.737 437.959 263.185L438.034 263.105C438.132 262.998 438.272 262.841 438.448 262.635C438.818 262.203 439.228 261.696 439.667 261.115C440.917 259.464 442.164 257.55 443.327 255.391C445.969 250.485 447.79 245.057 448.415 239.194L448.421 239.12C448.46 238.324 447.77 237.674 446.966 237.774L428.028 240.126L426.67 233.454C426.577 233.001 426.249 232.631 425.81 232.485L420.108 230.588C419.299 230.318 418.454 230.89 418.405 231.741ZM420.895 233.576L424.279 234.702L425.728 241.816L425.746 241.891C425.911 242.512 426.512 242.922 427.158 242.842L445.63 240.547L445.573 240.918C444.821 245.667 443.232 250.104 441.044 254.166C439.947 256.203 438.772 258.007 437.599 259.556L437.448 259.754C437.348 259.884 437.25 260.01 437.154 260.131L436.998 260.327L436.668 259.963C432.205 255.079 427.426 250.761 422.647 247.052C421.084 245.839 419.624 244.772 418.299 243.856L417.659 243.418L417.503 243.313L420.244 240.165C420.432 239.948 420.543 239.676 420.56 239.391L420.895 233.576Z" fill="#2E186A"/>
<path fill-rule="evenodd" clip-rule="evenodd" d="M415.508 219.485C416.934 220.304 421.642 226.038 423.153 228.883C423.153 228.883 430.194 224.443 441.165 221.597C441.165 221.597 447.169 220.218 449.761 220.347C449.761 220.347 451.877 231.168 448.422 237.937C444.923 244.662 434.297 245.654 428.639 243.498C422.981 241.343 421.814 239.963 419.828 236.686C417.841 233.41 411.578 220.821 411.578 220.821L415.508 219.485Z" fill="#968BB4"/>
<path fill-rule="evenodd" clip-rule="evenodd" d="M412.917 222.546C412.917 222.546 408.511 218.407 406.006 213.578C403.673 209.052 404.667 203.447 408.597 200.17C411.88 197.454 414.99 198.187 414.99 198.187C414.99 198.187 409.375 192.41 413.824 184.995C415.422 182.365 418.014 180.511 420.994 179.865C428.294 178.269 432.095 183.874 432.095 183.874C432.095 183.874 436.328 167.707 454.382 172.191C456.196 172.665 458.615 174.562 459.868 175.941C467.513 184.348 453 200.084 444.189 203.231C434.513 206.68 428.294 206.465 424.493 204.827C427.257 205.689 428.25 221.209 412.917 222.546Z" fill="#2E186A"/>
<path fill-rule="evenodd" clip-rule="evenodd" d="M439.463 216.288C440.111 216.05 440.827 216.359 441.1 216.983L441.128 217.053L444.497 226.15C444.804 226.977 444.209 227.853 443.341 227.89L443.266 227.891L439.767 227.848C439.052 227.84 438.479 227.253 438.487 226.539C438.496 225.85 439.042 225.294 439.723 225.263L439.799 225.262L441.413 225.282L438.697 217.95C438.458 217.304 438.768 216.589 439.393 216.317L439.463 216.288Z" fill="#2E186A"/>
<path fill-rule="evenodd" clip-rule="evenodd" d="M444.475 218.047C445.007 217.915 445.277 217.153 445.077 216.344C444.876 215.535 444.282 214.985 443.75 215.117C443.217 215.248 442.947 216.01 443.148 216.819C443.348 217.628 443.942 218.178 444.475 218.047Z" fill="#2E186A"/>
<path fill-rule="evenodd" clip-rule="evenodd" d="M435.83 220.111C436.378 220.081 436.786 219.383 436.74 218.551C436.695 217.718 436.215 217.068 435.667 217.098C435.119 217.127 434.711 217.826 434.757 218.658C434.802 219.49 435.283 220.141 435.83 220.111Z" fill="#2E186A"/>
<path fill-rule="evenodd" clip-rule="evenodd" d="M432.986 211.252C433.701 211.219 434.307 211.771 434.339 212.485C434.371 213.173 433.857 213.76 433.18 213.83L433.104 213.836C432.213 213.876 431.523 214.195 430.975 214.71C430.768 214.905 430.597 215.115 430.463 215.321L430.408 215.408C430.377 215.459 430.357 215.496 430.347 215.515L430.342 215.526C430.051 216.179 429.285 216.473 428.631 216.183C427.977 215.893 427.683 215.129 427.973 214.476C428.034 214.339 428.138 214.145 428.29 213.912C428.531 213.541 428.831 213.173 429.197 212.829C430.176 211.907 431.443 211.322 432.986 211.252Z" fill="#2E186A"/>
<path fill-rule="evenodd" clip-rule="evenodd" d="M443.942 205.871C444.969 205.89 445.904 206.236 446.649 206.962C447.161 207.461 447.171 208.28 446.671 208.791C446.191 209.282 445.416 209.31 444.902 208.87L444.839 208.813C444.595 208.576 444.295 208.465 443.896 208.458C443.423 208.449 442.858 208.592 442.28 208.842C442.125 208.909 441.978 208.979 441.843 209.051L441.711 209.122C441.647 209.158 441.597 209.187 441.564 209.207L441.528 209.229C440.929 209.62 440.126 209.451 439.735 208.853C439.344 208.255 439.512 207.454 440.112 207.063C440.357 206.903 440.749 206.685 441.25 206.468C442.139 206.084 443.044 205.855 443.942 205.871Z" fill="#2E186A"/>
<path fill-rule="evenodd" clip-rule="evenodd" d="M440.909 229.498L440.909 229.489L435.596 229.834C434.593 229.899 434.043 231.029 434.611 231.856C434.699 231.985 434.841 232.153 435.041 232.347C435.343 232.637 435.715 232.92 436.163 233.177C437.101 233.716 438.262 234.086 439.656 234.223C439.708 234.228 439.759 234.23 439.811 234.229C441.363 234.196 442.304 233.277 442.422 231.975C442.454 231.625 442.427 231.289 442.36 230.947L442.317 230.747L442.272 230.57L442.261 230.507C442.154 229.963 441.726 229.487 440.993 229.487L440.909 229.498Z" fill="#2E186A"/>
<path fill-rule="evenodd" clip-rule="evenodd" d="M422.942 267.273C423.576 267 424.308 267.271 424.614 267.878L424.667 267.996L424.918 268.592L425.082 268.991C425.251 269.403 425.432 269.854 425.624 270.34C426.353 272.191 427.082 274.174 427.763 276.213C428.49 278.39 429.119 280.504 429.622 282.511C430.209 284.856 430.609 286.999 430.793 288.901C430.862 289.612 430.34 290.244 429.628 290.312C428.915 290.381 428.282 289.86 428.214 289.149C428.043 287.389 427.666 285.367 427.107 283.138C426.622 281.201 426.012 279.149 425.304 277.031C424.706 275.238 424.068 273.486 423.426 271.834L423.212 271.287C422.963 270.653 422.731 270.082 422.524 269.583L422.267 268.973C421.983 268.318 422.285 267.556 422.942 267.273Z" fill="#2E186A"/>
<path fill-rule="evenodd" clip-rule="evenodd" d="M451.334 267.689C452.022 267.63 452.63 268.118 452.728 268.791L453.147 273.483L453.306 275.214C453.544 277.806 453.789 280.377 454.032 282.828L454.261 285.103C454.359 286.06 454.454 286.977 454.548 287.853C454.624 288.563 454.108 289.2 453.397 289.276C452.685 289.352 452.047 288.837 451.971 288.127L451.828 286.777C451.732 285.856 451.634 284.895 451.534 283.898L451.291 281.428C451.074 279.201 450.857 276.897 450.645 274.584L450.296 270.704L450.154 269.088C450.093 268.377 450.621 267.75 451.334 267.689Z" fill="#2E186A"/>
<path fill-rule="evenodd" clip-rule="evenodd" d="M409.465 285.557C410 285.083 410.819 285.131 411.294 285.666C411.751 286.179 411.724 286.955 411.245 287.435L411.186 287.491L403.108 294.648C402.68 295.028 402.053 295.081 401.566 294.781C397.006 291.963 393.226 292.055 390.168 293.847C389.704 294.118 389.302 294.408 388.965 294.694L388.848 294.796C388.759 294.875 388.693 294.938 388.649 294.982L388.608 295.024C388.127 295.553 387.308 295.593 386.778 295.113C386.248 294.633 386.208 293.815 386.689 293.286C386.806 293.157 387.005 292.963 387.284 292.726C387.732 292.345 388.256 291.967 388.856 291.616C392.476 289.495 396.93 289.261 401.935 292.001L402.093 292.089L409.465 285.557Z" fill="#2E186A"/>
<path fill-rule="evenodd" clip-rule="evenodd" d="M400.345 292.609C400.687 292.011 401.434 291.789 402.043 292.089L402.349 292.261L408.34 295.67L419.877 302.206C421.627 303.192 422.748 303.816 423.079 303.988L423.151 304.025C423.797 304.333 424.07 305.105 423.761 305.75C423.453 306.394 422.679 306.667 422.033 306.359L421.745 306.209C421.054 305.837 419.318 304.865 416.677 303.373L410.649 299.958L400.828 294.373C400.207 294.019 399.991 293.229 400.345 292.609Z" fill="#2E186A"/>
<path fill-rule="evenodd" clip-rule="evenodd" d="M467.984 282.754C468.616 282.476 469.35 282.742 469.66 283.347L469.693 283.416L473.71 292.513C473.998 293.166 473.702 293.93 473.047 294.218C472.415 294.496 471.681 294.23 471.371 293.625L471.338 293.556L467.321 284.459C467.033 283.806 467.33 283.042 467.984 282.754Z" fill="#2E186A"/>
<path fill-rule="evenodd" clip-rule="evenodd" d="M421.599 340.673C421.599 340.673 401.557 332.353 376.721 315.194C351.928 298.035 336.119 324.592 342.814 335.457C348.688 345.028 381.731 377.965 381.731 377.965L494.121 377.06C494.121 377.06 520.512 343.907 524.658 338.69C538.696 321.1 527.077 311.831 511.7 310.495C497.187 309.244 458.054 337.698 453.26 341.363L421.599 340.673Z" fill="#2E186A"/>
<path fill-rule="evenodd" clip-rule="evenodd" d="M490.363 292.086H418.143C417.193 292.086 416.372 292.732 416.156 293.638L406.352 334.982H388.21C388.21 334.982 386.569 343.476 396.158 343.476C398.62 343.476 402.248 343.476 406.352 343.476C406.524 343.519 406.74 343.562 406.913 343.562H479.132C480.083 343.562 480.903 342.915 481.119 342.01L492.35 294.629C492.652 293.293 491.658 292.086 490.363 292.086Z" fill="#0B4870"/>
<path fill-rule="evenodd" clip-rule="evenodd" d="M648.763 376C649.446 376 650 376.672 650 377.5C650 378.299 649.485 378.952 648.836 378.997L648.763 379H1.237C0.553822 379 0 378.328 0 377.5C0 376.701 0.514969 376.048 1.16431 376.003L1.237 376H648.763Z" fill="#2E186A"/>
</svg>
